<mxfile host="app.diagrams.net" agent="Mozilla/5.0 (Windows NT 10.0; Win64; x64) AppleWebKit/537.36 (KHTML, like Gecko) Chrome/135.0.0.0 Safari/537.36 OPR/120.0.0.0" version="28.0.7" pages="14">
  <diagram name="Página-1" id="SX2uQiUAX7lSWOiT3LaV">
    <mxGraphModel dx="1594" dy="914" grid="1" gridSize="10" guides="1" tooltips="1" connect="1" arrows="1" fold="1" page="1" pageScale="1" pageWidth="827" pageHeight="1169" math="0" shadow="0">
      <root>
        <mxCell id="0" />
        <mxCell id="1" parent="0" />
        <mxCell id="BZRTwxR85-qrf9XuoJa8-1" style="edgeStyle=orthogonalEdgeStyle;rounded=0;orthogonalLoop=1;jettySize=auto;html=1;entryX=0;entryY=0.5;entryDx=0;entryDy=0;" edge="1" parent="1" source="BZRTwxR85-qrf9XuoJa8-2" target="BZRTwxR85-qrf9XuoJa8-5">
          <mxGeometry relative="1" as="geometry" />
        </mxCell>
        <mxCell id="BZRTwxR85-qrf9XuoJa8-2" value="" style="ellipse;whiteSpace=wrap;html=1;aspect=fixed;fillColor=#60a917;fontColor=#ffffff;strokeColor=#2D7600;" vertex="1" parent="1">
          <mxGeometry x="50" y="200" width="40" height="40" as="geometry" />
        </mxCell>
        <mxCell id="BZRTwxR85-qrf9XuoJa8-3" value="" style="ellipse;whiteSpace=wrap;html=1;aspect=fixed;fillColor=light-dark(#A20025,#FF0000);strokeColor=light-dark(#6F0000,#FF6868);fontColor=#ffffff;" vertex="1" parent="1">
          <mxGeometry x="770" y="200" width="40" height="40" as="geometry" />
        </mxCell>
        <mxCell id="BZRTwxR85-qrf9XuoJa8-4" style="edgeStyle=orthogonalEdgeStyle;rounded=0;orthogonalLoop=1;jettySize=auto;html=1;entryX=0;entryY=0.5;entryDx=0;entryDy=0;" edge="1" parent="1" source="BZRTwxR85-qrf9XuoJa8-5" target="BZRTwxR85-qrf9XuoJa8-7">
          <mxGeometry relative="1" as="geometry" />
        </mxCell>
        <mxCell id="BZRTwxR85-qrf9XuoJa8-5" value="Receber a primeira nota&lt;div&gt;&lt;font style=&quot;color: light-dark(rgb(0, 127, 255), rgb(51, 51, 255));&quot;&gt;N1&lt;/font&gt;&lt;/div&gt;" style="rounded=0;whiteSpace=wrap;html=1;" vertex="1" parent="1">
          <mxGeometry x="130" y="190" width="120" height="60" as="geometry" />
        </mxCell>
        <mxCell id="BZRTwxR85-qrf9XuoJa8-6" style="edgeStyle=orthogonalEdgeStyle;rounded=0;orthogonalLoop=1;jettySize=auto;html=1;exitX=1;exitY=0.5;exitDx=0;exitDy=0;entryX=0;entryY=0.5;entryDx=0;entryDy=0;" edge="1" parent="1" source="BZRTwxR85-qrf9XuoJa8-7" target="BZRTwxR85-qrf9XuoJa8-9">
          <mxGeometry relative="1" as="geometry" />
        </mxCell>
        <mxCell id="BZRTwxR85-qrf9XuoJa8-7" value="Receber a segunda nota&lt;div&gt;&lt;font style=&quot;color: light-dark(rgb(0, 127, 255), rgb(0, 0, 255));&quot;&gt;N2&lt;/font&gt;&lt;/div&gt;" style="rounded=0;whiteSpace=wrap;html=1;" vertex="1" parent="1">
          <mxGeometry x="293.5" y="190" width="120" height="60" as="geometry" />
        </mxCell>
        <mxCell id="BZRTwxR85-qrf9XuoJa8-8" style="edgeStyle=orthogonalEdgeStyle;rounded=0;orthogonalLoop=1;jettySize=auto;html=1;exitX=1;exitY=0.5;exitDx=0;exitDy=0;entryX=0;entryY=0.5;entryDx=0;entryDy=0;" edge="1" parent="1" source="BZRTwxR85-qrf9XuoJa8-9" target="BZRTwxR85-qrf9XuoJa8-11">
          <mxGeometry relative="1" as="geometry" />
        </mxCell>
        <mxCell id="BZRTwxR85-qrf9XuoJa8-9" value="Calcular a média&lt;div&gt;&lt;font style=&quot;color: light-dark(rgb(0, 127, 255), rgb(0, 0, 255));&quot;&gt;media = (N1 + N2) / 2&lt;/font&gt;&lt;/div&gt;" style="rounded=0;whiteSpace=wrap;html=1;" vertex="1" parent="1">
          <mxGeometry x="450" y="190" width="120" height="60" as="geometry" />
        </mxCell>
        <mxCell id="BZRTwxR85-qrf9XuoJa8-10" style="edgeStyle=orthogonalEdgeStyle;rounded=0;orthogonalLoop=1;jettySize=auto;html=1;exitX=1;exitY=0.5;exitDx=0;exitDy=0;" edge="1" parent="1" source="BZRTwxR85-qrf9XuoJa8-11" target="BZRTwxR85-qrf9XuoJa8-3">
          <mxGeometry relative="1" as="geometry" />
        </mxCell>
        <mxCell id="BZRTwxR85-qrf9XuoJa8-11" value="&lt;div&gt;&lt;font style=&quot;&quot;&gt;Exibir&amp;nbsp;&lt;/font&gt;&lt;/div&gt;&lt;div&gt;&lt;font style=&quot;color: light-dark(rgb(0, 127, 255), rgb(0, 0, 255));&quot;&gt;media&lt;/font&gt;&lt;/div&gt;" style="rounded=0;whiteSpace=wrap;html=1;" vertex="1" parent="1">
          <mxGeometry x="610" y="190" width="120" height="60" as="geometry" />
        </mxCell>
      </root>
    </mxGraphModel>
  </diagram>
  <diagram name="Página-2" id="p73LHZcXN6AnTe_rZuDc">
    <mxGraphModel dx="542" dy="306" grid="1" gridSize="10" guides="1" tooltips="1" connect="1" arrows="1" fold="1" page="1" pageScale="1" pageWidth="827" pageHeight="1169" math="0" shadow="0">
      <root>
        <mxCell id="0" />
        <mxCell id="1" parent="0" />
        <mxCell id="BuyGtD8ECy8CztNBaefz-1" style="edgeStyle=orthogonalEdgeStyle;rounded=0;orthogonalLoop=1;jettySize=auto;html=1;entryX=0;entryY=0.5;entryDx=0;entryDy=0;" edge="1" parent="1" source="BuyGtD8ECy8CztNBaefz-2" target="BuyGtD8ECy8CztNBaefz-5">
          <mxGeometry relative="1" as="geometry" />
        </mxCell>
        <mxCell id="BuyGtD8ECy8CztNBaefz-2" value="" style="ellipse;whiteSpace=wrap;html=1;aspect=fixed;fillColor=#60a917;fontColor=#ffffff;strokeColor=#2D7600;" vertex="1" parent="1">
          <mxGeometry x="310" y="360" width="40" height="40" as="geometry" />
        </mxCell>
        <mxCell id="BuyGtD8ECy8CztNBaefz-3" value="" style="ellipse;whiteSpace=wrap;html=1;aspect=fixed;fillColor=light-dark(#A20025,#FF0000);strokeColor=light-dark(#6F0000,#FF6868);fontColor=#ffffff;" vertex="1" parent="1">
          <mxGeometry x="1450" y="370" width="40" height="40" as="geometry" />
        </mxCell>
        <mxCell id="BuyGtD8ECy8CztNBaefz-4" style="edgeStyle=orthogonalEdgeStyle;rounded=0;orthogonalLoop=1;jettySize=auto;html=1;entryX=0;entryY=0.5;entryDx=0;entryDy=0;" edge="1" parent="1" source="BuyGtD8ECy8CztNBaefz-5" target="BuyGtD8ECy8CztNBaefz-7">
          <mxGeometry relative="1" as="geometry" />
        </mxCell>
        <mxCell id="BuyGtD8ECy8CztNBaefz-5" value="Receber a primeira nota&lt;div&gt;&lt;font style=&quot;color: light-dark(rgb(0, 127, 255), rgb(51, 51, 255));&quot;&gt;N1&lt;/font&gt;&lt;/div&gt;" style="rounded=0;whiteSpace=wrap;html=1;" vertex="1" parent="1">
          <mxGeometry x="390" y="350" width="120" height="60" as="geometry" />
        </mxCell>
        <mxCell id="BuyGtD8ECy8CztNBaefz-6" style="edgeStyle=orthogonalEdgeStyle;rounded=0;orthogonalLoop=1;jettySize=auto;html=1;exitX=1;exitY=0.5;exitDx=0;exitDy=0;entryX=0;entryY=0.5;entryDx=0;entryDy=0;" edge="1" parent="1" source="BuyGtD8ECy8CztNBaefz-7" target="BuyGtD8ECy8CztNBaefz-9">
          <mxGeometry relative="1" as="geometry" />
        </mxCell>
        <mxCell id="BuyGtD8ECy8CztNBaefz-7" value="Receber a segunda nota&lt;div&gt;&lt;font style=&quot;color: light-dark(rgb(0, 127, 255), rgb(0, 0, 255));&quot;&gt;N2&lt;/font&gt;&lt;/div&gt;" style="rounded=0;whiteSpace=wrap;html=1;" vertex="1" parent="1">
          <mxGeometry x="553.5" y="350" width="120" height="60" as="geometry" />
        </mxCell>
        <mxCell id="BuyGtD8ECy8CztNBaefz-8" style="edgeStyle=orthogonalEdgeStyle;rounded=0;orthogonalLoop=1;jettySize=auto;html=1;exitX=1;exitY=0.5;exitDx=0;exitDy=0;entryX=0;entryY=0.5;entryDx=0;entryDy=0;" edge="1" parent="1" source="BuyGtD8ECy8CztNBaefz-9" target="BuyGtD8ECy8CztNBaefz-11">
          <mxGeometry relative="1" as="geometry" />
        </mxCell>
        <mxCell id="BuyGtD8ECy8CztNBaefz-9" value="Calcular a média&lt;div&gt;&lt;font style=&quot;color: light-dark(rgb(0, 127, 255), rgb(0, 0, 255));&quot;&gt;media = (N1 + N2) / 2&lt;/font&gt;&lt;/div&gt;" style="rounded=0;whiteSpace=wrap;html=1;" vertex="1" parent="1">
          <mxGeometry x="710" y="350" width="120" height="60" as="geometry" />
        </mxCell>
        <mxCell id="BuyGtD8ECy8CztNBaefz-13" style="edgeStyle=orthogonalEdgeStyle;rounded=0;orthogonalLoop=1;jettySize=auto;html=1;exitX=1;exitY=0.5;exitDx=0;exitDy=0;" edge="1" parent="1" source="BuyGtD8ECy8CztNBaefz-11" target="BuyGtD8ECy8CztNBaefz-12">
          <mxGeometry relative="1" as="geometry" />
        </mxCell>
        <mxCell id="BuyGtD8ECy8CztNBaefz-11" value="&lt;div&gt;&lt;font style=&quot;&quot;&gt;Exibir&amp;nbsp;&lt;/font&gt;&lt;/div&gt;&lt;div&gt;&lt;font style=&quot;color: light-dark(rgb(0, 127, 255), rgb(0, 0, 255));&quot;&gt;media&lt;/font&gt;&lt;/div&gt;" style="rounded=0;whiteSpace=wrap;html=1;" vertex="1" parent="1">
          <mxGeometry x="870" y="350" width="120" height="60" as="geometry" />
        </mxCell>
        <mxCell id="BuyGtD8ECy8CztNBaefz-15" style="edgeStyle=orthogonalEdgeStyle;rounded=0;orthogonalLoop=1;jettySize=auto;html=1;exitX=0.5;exitY=0;exitDx=0;exitDy=0;" edge="1" parent="1" source="BuyGtD8ECy8CztNBaefz-12" target="BuyGtD8ECy8CztNBaefz-14">
          <mxGeometry relative="1" as="geometry" />
        </mxCell>
        <mxCell id="BuyGtD8ECy8CztNBaefz-20" style="edgeStyle=orthogonalEdgeStyle;rounded=0;orthogonalLoop=1;jettySize=auto;html=1;" edge="1" parent="1" source="BuyGtD8ECy8CztNBaefz-12" target="BuyGtD8ECy8CztNBaefz-16">
          <mxGeometry relative="1" as="geometry">
            <Array as="points">
              <mxPoint x="1080" y="460" />
            </Array>
          </mxGeometry>
        </mxCell>
        <mxCell id="BuyGtD8ECy8CztNBaefz-12" value="" style="rhombus;whiteSpace=wrap;html=1;" vertex="1" parent="1">
          <mxGeometry x="1040" y="340" width="80" height="80" as="geometry" />
        </mxCell>
        <mxCell id="BuyGtD8ECy8CztNBaefz-23" style="edgeStyle=orthogonalEdgeStyle;rounded=0;orthogonalLoop=1;jettySize=auto;html=1;exitX=1;exitY=0.5;exitDx=0;exitDy=0;" edge="1" parent="1" source="BuyGtD8ECy8CztNBaefz-14" target="BuyGtD8ECy8CztNBaefz-3">
          <mxGeometry relative="1" as="geometry" />
        </mxCell>
        <mxCell id="BuyGtD8ECy8CztNBaefz-14" value="Exibir &lt;font style=&quot;color: light-dark(rgb(0, 127, 255), rgb(0, 0, 255));&quot;&gt;&quot;#partiuestágio&quot;&lt;/font&gt;" style="rounded=0;whiteSpace=wrap;html=1;" vertex="1" parent="1">
          <mxGeometry x="1230" y="260" width="170" height="80" as="geometry" />
        </mxCell>
        <mxCell id="BuyGtD8ECy8CztNBaefz-24" style="edgeStyle=orthogonalEdgeStyle;rounded=0;orthogonalLoop=1;jettySize=auto;html=1;" edge="1" parent="1" source="BuyGtD8ECy8CztNBaefz-16" target="BuyGtD8ECy8CztNBaefz-3">
          <mxGeometry relative="1" as="geometry" />
        </mxCell>
        <mxCell id="BuyGtD8ECy8CztNBaefz-16" value="Exibir &lt;font style=&quot;color: light-dark(rgb(0, 127, 255), rgb(0, 0, 255));&quot;&gt;&quot;#partiutentardenovo&quot;&lt;/font&gt;" style="rounded=0;whiteSpace=wrap;html=1;" vertex="1" parent="1">
          <mxGeometry x="1230" y="420" width="170" height="80" as="geometry" />
        </mxCell>
        <mxCell id="BuyGtD8ECy8CztNBaefz-22" value="[ media &amp;gt;= 5 ]" style="text;html=1;align=center;verticalAlign=middle;whiteSpace=wrap;rounded=0;" vertex="1" parent="1">
          <mxGeometry x="1110" y="270" width="80" height="30" as="geometry" />
        </mxCell>
        <mxCell id="BuyGtD8ECy8CztNBaefz-25" value="[ media &amp;lt; 5 ]" style="text;html=1;align=center;verticalAlign=middle;whiteSpace=wrap;rounded=0;" vertex="1" parent="1">
          <mxGeometry x="1110" y="430" width="70" height="30" as="geometry" />
        </mxCell>
      </root>
    </mxGraphModel>
  </diagram>
  <diagram name="Página-3" id="HnavkFi5ICpMMMQS2q3W">
    <mxGraphModel dx="978" dy="581" grid="1" gridSize="10" guides="1" tooltips="1" connect="1" arrows="1" fold="1" page="1" pageScale="1" pageWidth="827" pageHeight="1169" math="0" shadow="0">
      <root>
        <mxCell id="0" />
        <mxCell id="1" parent="0" />
        <mxCell id="OThzZIAiGrZEYqxo_ZBN-13" style="edgeStyle=orthogonalEdgeStyle;rounded=0;orthogonalLoop=1;jettySize=auto;html=1;" parent="1" source="OThzZIAiGrZEYqxo_ZBN-1" target="OThzZIAiGrZEYqxo_ZBN-2" edge="1">
          <mxGeometry relative="1" as="geometry" />
        </mxCell>
        <mxCell id="OThzZIAiGrZEYqxo_ZBN-1" value="" style="ellipse;whiteSpace=wrap;html=1;aspect=fixed;fillColor=#60a917;fontColor=#ffffff;strokeColor=#2D7600;" parent="1" vertex="1">
          <mxGeometry x="40" y="320" width="40" height="40" as="geometry" />
        </mxCell>
        <mxCell id="OThzZIAiGrZEYqxo_ZBN-14" style="edgeStyle=orthogonalEdgeStyle;rounded=0;orthogonalLoop=1;jettySize=auto;html=1;exitX=1;exitY=0.5;exitDx=0;exitDy=0;" parent="1" source="OThzZIAiGrZEYqxo_ZBN-2" target="OThzZIAiGrZEYqxo_ZBN-3" edge="1">
          <mxGeometry relative="1" as="geometry" />
        </mxCell>
        <mxCell id="OThzZIAiGrZEYqxo_ZBN-2" value="Receber&lt;div&gt;&lt;font style=&quot;color: rgb(0, 127, 255);&quot;&gt;sexo&lt;/font&gt;&lt;/div&gt;" style="rounded=0;whiteSpace=wrap;html=1;" parent="1" vertex="1">
          <mxGeometry x="130" y="310" width="120" height="60" as="geometry" />
        </mxCell>
        <mxCell id="OThzZIAiGrZEYqxo_ZBN-15" style="edgeStyle=orthogonalEdgeStyle;rounded=0;orthogonalLoop=1;jettySize=auto;html=1;exitX=1;exitY=0.5;exitDx=0;exitDy=0;" parent="1" source="OThzZIAiGrZEYqxo_ZBN-3" target="OThzZIAiGrZEYqxo_ZBN-4" edge="1">
          <mxGeometry relative="1" as="geometry" />
        </mxCell>
        <mxCell id="OThzZIAiGrZEYqxo_ZBN-3" value="Receber&lt;div&gt;&lt;font style=&quot;color: rgb(0, 127, 255);&quot;&gt;idade&lt;/font&gt;&lt;/div&gt;" style="rounded=0;whiteSpace=wrap;html=1;" parent="1" vertex="1">
          <mxGeometry x="293" y="310" width="120" height="60" as="geometry" />
        </mxCell>
        <mxCell id="OThzZIAiGrZEYqxo_ZBN-17" style="edgeStyle=orthogonalEdgeStyle;rounded=0;orthogonalLoop=1;jettySize=auto;html=1;" parent="1" source="OThzZIAiGrZEYqxo_ZBN-4" target="OThzZIAiGrZEYqxo_ZBN-6" edge="1">
          <mxGeometry relative="1" as="geometry">
            <Array as="points">
              <mxPoint x="530" y="200" />
            </Array>
          </mxGeometry>
        </mxCell>
        <mxCell id="OThzZIAiGrZEYqxo_ZBN-19" style="edgeStyle=orthogonalEdgeStyle;rounded=0;orthogonalLoop=1;jettySize=auto;html=1;" parent="1" source="OThzZIAiGrZEYqxo_ZBN-4" target="OThzZIAiGrZEYqxo_ZBN-10" edge="1">
          <mxGeometry relative="1" as="geometry">
            <Array as="points">
              <mxPoint x="530" y="480" />
            </Array>
          </mxGeometry>
        </mxCell>
        <mxCell id="OThzZIAiGrZEYqxo_ZBN-4" value="" style="rhombus;whiteSpace=wrap;html=1;" parent="1" vertex="1">
          <mxGeometry x="490" y="300" width="80" height="80" as="geometry" />
        </mxCell>
        <mxCell id="OThzZIAiGrZEYqxo_ZBN-20" style="edgeStyle=orthogonalEdgeStyle;rounded=0;orthogonalLoop=1;jettySize=auto;html=1;" parent="1" source="OThzZIAiGrZEYqxo_ZBN-6" target="OThzZIAiGrZEYqxo_ZBN-8" edge="1">
          <mxGeometry relative="1" as="geometry">
            <Array as="points">
              <mxPoint x="710" y="130" />
            </Array>
          </mxGeometry>
        </mxCell>
        <mxCell id="OThzZIAiGrZEYqxo_ZBN-21" style="edgeStyle=orthogonalEdgeStyle;rounded=0;orthogonalLoop=1;jettySize=auto;html=1;" parent="1" source="OThzZIAiGrZEYqxo_ZBN-6" target="OThzZIAiGrZEYqxo_ZBN-9" edge="1">
          <mxGeometry relative="1" as="geometry">
            <Array as="points">
              <mxPoint x="710" y="270" />
            </Array>
          </mxGeometry>
        </mxCell>
        <mxCell id="OThzZIAiGrZEYqxo_ZBN-6" value="" style="rhombus;whiteSpace=wrap;html=1;" parent="1" vertex="1">
          <mxGeometry x="670" y="160" width="80" height="80" as="geometry" />
        </mxCell>
        <mxCell id="8WKqUvJD2gD9kUtft7SY-3" style="edgeStyle=orthogonalEdgeStyle;rounded=0;orthogonalLoop=1;jettySize=auto;html=1;exitX=1;exitY=0.5;exitDx=0;exitDy=0;" parent="1" source="OThzZIAiGrZEYqxo_ZBN-8" target="8WKqUvJD2gD9kUtft7SY-1" edge="1">
          <mxGeometry relative="1" as="geometry" />
        </mxCell>
        <mxCell id="OThzZIAiGrZEYqxo_ZBN-8" value="Exibir &lt;font style=&quot;color: rgb(0, 127, 255);&quot;&gt;&quot;você é homem maior de idade&quot;&lt;/font&gt;" style="rounded=0;whiteSpace=wrap;html=1;" parent="1" vertex="1">
          <mxGeometry x="850" y="100" width="220" height="60" as="geometry" />
        </mxCell>
        <mxCell id="8WKqUvJD2gD9kUtft7SY-10" style="edgeStyle=orthogonalEdgeStyle;rounded=0;orthogonalLoop=1;jettySize=auto;html=1;" parent="1" source="OThzZIAiGrZEYqxo_ZBN-9" target="8WKqUvJD2gD9kUtft7SY-1" edge="1">
          <mxGeometry relative="1" as="geometry" />
        </mxCell>
        <mxCell id="OThzZIAiGrZEYqxo_ZBN-9" value="Exibir &lt;font style=&quot;color: rgb(0, 127, 255);&quot;&gt;&quot;você é homem e menino&quot;&lt;/font&gt;" style="rounded=0;whiteSpace=wrap;html=1;" parent="1" vertex="1">
          <mxGeometry x="850" y="240" width="220" height="60" as="geometry" />
        </mxCell>
        <mxCell id="OThzZIAiGrZEYqxo_ZBN-22" style="edgeStyle=orthogonalEdgeStyle;rounded=0;orthogonalLoop=1;jettySize=auto;html=1;" parent="1" source="OThzZIAiGrZEYqxo_ZBN-10" target="OThzZIAiGrZEYqxo_ZBN-11" edge="1">
          <mxGeometry relative="1" as="geometry">
            <Array as="points">
              <mxPoint x="710" y="410" />
            </Array>
          </mxGeometry>
        </mxCell>
        <mxCell id="OThzZIAiGrZEYqxo_ZBN-23" style="edgeStyle=orthogonalEdgeStyle;rounded=0;orthogonalLoop=1;jettySize=auto;html=1;" parent="1" source="OThzZIAiGrZEYqxo_ZBN-10" target="OThzZIAiGrZEYqxo_ZBN-12" edge="1">
          <mxGeometry relative="1" as="geometry">
            <Array as="points">
              <mxPoint x="710" y="550" />
            </Array>
          </mxGeometry>
        </mxCell>
        <mxCell id="OThzZIAiGrZEYqxo_ZBN-10" value="" style="rhombus;whiteSpace=wrap;html=1;" parent="1" vertex="1">
          <mxGeometry x="670" y="440" width="80" height="80" as="geometry" />
        </mxCell>
        <mxCell id="8WKqUvJD2gD9kUtft7SY-9" style="edgeStyle=orthogonalEdgeStyle;rounded=0;orthogonalLoop=1;jettySize=auto;html=1;" parent="1" source="OThzZIAiGrZEYqxo_ZBN-11" target="8WKqUvJD2gD9kUtft7SY-1" edge="1">
          <mxGeometry relative="1" as="geometry" />
        </mxCell>
        <mxCell id="OThzZIAiGrZEYqxo_ZBN-11" value="Exibir &lt;font style=&quot;color: rgb(0, 127, 255);&quot;&gt;&quot;você é homem maior de idade&quot;&lt;/font&gt;" style="rounded=0;whiteSpace=wrap;html=1;" parent="1" vertex="1">
          <mxGeometry x="850" y="380" width="220" height="60" as="geometry" />
        </mxCell>
        <mxCell id="8WKqUvJD2gD9kUtft7SY-7" style="edgeStyle=orthogonalEdgeStyle;rounded=0;orthogonalLoop=1;jettySize=auto;html=1;exitX=1;exitY=0.5;exitDx=0;exitDy=0;entryX=0.5;entryY=1;entryDx=0;entryDy=0;" parent="1" source="OThzZIAiGrZEYqxo_ZBN-12" target="8WKqUvJD2gD9kUtft7SY-1" edge="1">
          <mxGeometry relative="1" as="geometry" />
        </mxCell>
        <mxCell id="OThzZIAiGrZEYqxo_ZBN-12" value="Exibir &lt;font style=&quot;color: rgb(0, 127, 255);&quot;&gt;&quot;você é mulher e menina&quot;&lt;/font&gt;" style="rounded=0;whiteSpace=wrap;html=1;" parent="1" vertex="1">
          <mxGeometry x="850" y="520" width="220" height="60" as="geometry" />
        </mxCell>
        <mxCell id="OThzZIAiGrZEYqxo_ZBN-16" value="[ sexo == homem ]" style="text;html=1;align=center;verticalAlign=middle;whiteSpace=wrap;rounded=0;" parent="1" vertex="1">
          <mxGeometry x="540" y="170" width="110" height="30" as="geometry" />
        </mxCell>
        <mxCell id="OThzZIAiGrZEYqxo_ZBN-24" value="[ sexo == homem ]" style="text;html=1;align=center;verticalAlign=middle;whiteSpace=wrap;rounded=0;" parent="1" vertex="1">
          <mxGeometry x="540" y="450" width="110" height="30" as="geometry" />
        </mxCell>
        <mxCell id="OThzZIAiGrZEYqxo_ZBN-25" value="[ idade &amp;gt;= 18]" style="text;html=1;align=center;verticalAlign=middle;whiteSpace=wrap;rounded=0;" parent="1" vertex="1">
          <mxGeometry x="727" y="100" width="100" height="30" as="geometry" />
        </mxCell>
        <mxCell id="OThzZIAiGrZEYqxo_ZBN-26" value="[ idade &amp;gt;= 18]" style="text;html=1;align=center;verticalAlign=middle;whiteSpace=wrap;rounded=0;" parent="1" vertex="1">
          <mxGeometry x="727" y="380" width="100" height="30" as="geometry" />
        </mxCell>
        <mxCell id="OThzZIAiGrZEYqxo_ZBN-27" value="[ idade &amp;lt; 18]" style="text;html=1;align=center;verticalAlign=middle;whiteSpace=wrap;rounded=0;" parent="1" vertex="1">
          <mxGeometry x="727" y="240" width="100" height="30" as="geometry" />
        </mxCell>
        <mxCell id="OThzZIAiGrZEYqxo_ZBN-29" value="[ idade &amp;lt; 18]" style="text;html=1;align=center;verticalAlign=middle;whiteSpace=wrap;rounded=0;" parent="1" vertex="1">
          <mxGeometry x="727" y="520" width="100" height="30" as="geometry" />
        </mxCell>
        <mxCell id="8WKqUvJD2gD9kUtft7SY-1" value="" style="ellipse;whiteSpace=wrap;html=1;aspect=fixed;fillColor=light-dark(#A20025,#FF0000);strokeColor=light-dark(#6F0000,#FF6868);fontColor=#ffffff;" parent="1" vertex="1">
          <mxGeometry x="1300" y="320" width="40" height="40" as="geometry" />
        </mxCell>
      </root>
    </mxGraphModel>
  </diagram>
  <diagram name="Página-4" id="cbVYnf_O7NVpYUL67BlY">
    <mxGraphModel dx="3535" dy="1528" grid="1" gridSize="10" guides="1" tooltips="1" connect="1" arrows="1" fold="1" page="1" pageScale="1" pageWidth="827" pageHeight="1169" math="0" shadow="0">
      <root>
        <mxCell id="0" />
        <mxCell id="1" parent="0" />
        <mxCell id="Ww3T-VvimN0pjbq8unJB-1" style="edgeStyle=orthogonalEdgeStyle;rounded=0;orthogonalLoop=1;jettySize=auto;html=1;entryX=0;entryY=0.5;entryDx=0;entryDy=0;" edge="1" parent="1" source="Ww3T-VvimN0pjbq8unJB-2" target="Ww3T-VvimN0pjbq8unJB-5">
          <mxGeometry relative="1" as="geometry" />
        </mxCell>
        <mxCell id="Ww3T-VvimN0pjbq8unJB-2" value="" style="ellipse;whiteSpace=wrap;html=1;aspect=fixed;fillColor=#60a917;fontColor=#ffffff;strokeColor=#2D7600;" vertex="1" parent="1">
          <mxGeometry x="-430" y="470" width="40" height="40" as="geometry" />
        </mxCell>
        <mxCell id="Ww3T-VvimN0pjbq8unJB-3" value="" style="ellipse;whiteSpace=wrap;html=1;aspect=fixed;fillColor=light-dark(#A20025,#FF0000);strokeColor=light-dark(#6F0000,#FF6868);fontColor=#ffffff;" vertex="1" parent="1">
          <mxGeometry x="360" y="480" width="40" height="40" as="geometry" />
        </mxCell>
        <mxCell id="Ww3T-VvimN0pjbq8unJB-21" style="edgeStyle=orthogonalEdgeStyle;rounded=0;orthogonalLoop=1;jettySize=auto;html=1;" edge="1" parent="1" source="Ww3T-VvimN0pjbq8unJB-5" target="Ww3T-VvimN0pjbq8unJB-14">
          <mxGeometry relative="1" as="geometry" />
        </mxCell>
        <mxCell id="Ww3T-VvimN0pjbq8unJB-5" value="Receber horas dormidas por noite&lt;div&gt;&lt;font color=&quot;#007fff&quot;&gt;horas&lt;/font&gt;&lt;/div&gt;" style="rounded=0;whiteSpace=wrap;html=1;" vertex="1" parent="1">
          <mxGeometry x="-350" y="460" width="120" height="60" as="geometry" />
        </mxCell>
        <mxCell id="Ww3T-VvimN0pjbq8unJB-12" style="edgeStyle=orthogonalEdgeStyle;rounded=0;orthogonalLoop=1;jettySize=auto;html=1;exitX=0.5;exitY=0;exitDx=0;exitDy=0;" edge="1" parent="1" source="Ww3T-VvimN0pjbq8unJB-14" target="Ww3T-VvimN0pjbq8unJB-16">
          <mxGeometry relative="1" as="geometry" />
        </mxCell>
        <mxCell id="Ww3T-VvimN0pjbq8unJB-13" style="edgeStyle=orthogonalEdgeStyle;rounded=0;orthogonalLoop=1;jettySize=auto;html=1;" edge="1" parent="1" source="Ww3T-VvimN0pjbq8unJB-14" target="Ww3T-VvimN0pjbq8unJB-18">
          <mxGeometry relative="1" as="geometry">
            <Array as="points">
              <mxPoint x="-110" y="570" />
            </Array>
          </mxGeometry>
        </mxCell>
        <mxCell id="O1vpuVbeEp51p329nOcv-5" style="edgeStyle=orthogonalEdgeStyle;rounded=0;orthogonalLoop=1;jettySize=auto;html=1;" edge="1" parent="1" source="Ww3T-VvimN0pjbq8unJB-14" target="O1vpuVbeEp51p329nOcv-1">
          <mxGeometry relative="1" as="geometry">
            <Array as="points">
              <mxPoint x="-110" y="260" />
            </Array>
          </mxGeometry>
        </mxCell>
        <mxCell id="O1vpuVbeEp51p329nOcv-9" style="edgeStyle=orthogonalEdgeStyle;rounded=0;orthogonalLoop=1;jettySize=auto;html=1;" edge="1" parent="1" source="Ww3T-VvimN0pjbq8unJB-14" target="O1vpuVbeEp51p329nOcv-2">
          <mxGeometry relative="1" as="geometry">
            <Array as="points">
              <mxPoint x="-110" y="730" />
            </Array>
          </mxGeometry>
        </mxCell>
        <mxCell id="Ww3T-VvimN0pjbq8unJB-14" value="" style="rhombus;whiteSpace=wrap;html=1;" vertex="1" parent="1">
          <mxGeometry x="-150" y="450" width="80" height="80" as="geometry" />
        </mxCell>
        <mxCell id="Ww3T-VvimN0pjbq8unJB-15" style="edgeStyle=orthogonalEdgeStyle;rounded=0;orthogonalLoop=1;jettySize=auto;html=1;exitX=1;exitY=0.5;exitDx=0;exitDy=0;" edge="1" parent="1" source="Ww3T-VvimN0pjbq8unJB-16" target="Ww3T-VvimN0pjbq8unJB-3">
          <mxGeometry relative="1" as="geometry" />
        </mxCell>
        <mxCell id="Ww3T-VvimN0pjbq8unJB-16" value="Exibir &lt;font style=&quot;color: light-dark(rgb(0, 127, 255), rgb(0, 0, 255));&quot;&gt;&quot;#Pouca concetração&quot;&lt;/font&gt;" style="rounded=0;whiteSpace=wrap;html=1;" vertex="1" parent="1">
          <mxGeometry x="70" y="370" width="170" height="80" as="geometry" />
        </mxCell>
        <mxCell id="Ww3T-VvimN0pjbq8unJB-17" style="edgeStyle=orthogonalEdgeStyle;rounded=0;orthogonalLoop=1;jettySize=auto;html=1;" edge="1" parent="1" source="Ww3T-VvimN0pjbq8unJB-18" target="Ww3T-VvimN0pjbq8unJB-3">
          <mxGeometry relative="1" as="geometry" />
        </mxCell>
        <mxCell id="Ww3T-VvimN0pjbq8unJB-18" value="Exibir &lt;font style=&quot;color: light-dark(rgb(0, 127, 255), rgb(0, 0, 255));&quot;&gt;&quot;Boa concentração&quot;&lt;/font&gt;" style="rounded=0;whiteSpace=wrap;html=1;" vertex="1" parent="1">
          <mxGeometry x="70" y="530" width="170" height="80" as="geometry" />
        </mxCell>
        <mxCell id="O1vpuVbeEp51p329nOcv-12" style="edgeStyle=orthogonalEdgeStyle;rounded=0;orthogonalLoop=1;jettySize=auto;html=1;" edge="1" parent="1" source="O1vpuVbeEp51p329nOcv-1" target="Ww3T-VvimN0pjbq8unJB-3">
          <mxGeometry relative="1" as="geometry" />
        </mxCell>
        <mxCell id="O1vpuVbeEp51p329nOcv-1" value="Exibir &lt;font style=&quot;color: light-dark(rgb(0, 127, 255), rgb(0, 0, 255));&quot;&gt;&quot;#zumbi&quot;&lt;/font&gt;" style="rounded=0;whiteSpace=wrap;html=1;" vertex="1" parent="1">
          <mxGeometry x="70" y="220" width="170" height="80" as="geometry" />
        </mxCell>
        <mxCell id="O1vpuVbeEp51p329nOcv-11" style="edgeStyle=orthogonalEdgeStyle;rounded=0;orthogonalLoop=1;jettySize=auto;html=1;" edge="1" parent="1" source="O1vpuVbeEp51p329nOcv-2" target="Ww3T-VvimN0pjbq8unJB-3">
          <mxGeometry relative="1" as="geometry" />
        </mxCell>
        <mxCell id="O1vpuVbeEp51p329nOcv-2" value="Exibir &lt;font style=&quot;color: light-dark(rgb(0, 127, 255), rgb(0, 0, 255));&quot;&gt;&quot;Olha a preguiça!&quot;&lt;/font&gt;" style="rounded=0;whiteSpace=wrap;html=1;" vertex="1" parent="1">
          <mxGeometry x="70" y="690" width="170" height="80" as="geometry" />
        </mxCell>
        <mxCell id="O1vpuVbeEp51p329nOcv-4" value="[ horas &amp;gt;= 0 &amp;amp;&amp;amp; horas &amp;lt;=4 ]" style="text;html=1;align=center;verticalAlign=middle;whiteSpace=wrap;rounded=0;" vertex="1" parent="1">
          <mxGeometry x="-100" y="230" width="150" height="30" as="geometry" />
        </mxCell>
        <mxCell id="O1vpuVbeEp51p329nOcv-6" value="[ horas &amp;gt; 4 &amp;amp;&amp;amp; horas &amp;lt; 7 ]" style="text;html=1;align=center;verticalAlign=middle;whiteSpace=wrap;rounded=0;" vertex="1" parent="1">
          <mxGeometry x="-100" y="380" width="150" height="30" as="geometry" />
        </mxCell>
        <mxCell id="O1vpuVbeEp51p329nOcv-8" value="[ horas &amp;gt;= 7 &amp;amp;&amp;amp; horas &amp;lt;=9 ]" style="text;html=1;align=center;verticalAlign=middle;whiteSpace=wrap;rounded=0;" vertex="1" parent="1">
          <mxGeometry x="-100" y="540" width="150" height="30" as="geometry" />
        </mxCell>
        <mxCell id="O1vpuVbeEp51p329nOcv-10" value="[ horas &amp;gt; 9 ]" style="text;html=1;align=center;verticalAlign=middle;whiteSpace=wrap;rounded=0;" vertex="1" parent="1">
          <mxGeometry x="-100" y="700" width="150" height="30" as="geometry" />
        </mxCell>
      </root>
    </mxGraphModel>
  </diagram>
  <diagram name="Página-5" id="oDTGZJwfKX-if2ybojGd">
    <mxGraphModel dx="1593" dy="899" grid="1" gridSize="10" guides="1" tooltips="1" connect="1" arrows="1" fold="1" page="1" pageScale="1" pageWidth="827" pageHeight="1169" math="0" shadow="0">
      <root>
        <mxCell id="0" />
        <mxCell id="1" parent="0" />
        <mxCell id="f0ev56zdYPC9zsvNalEB-1" style="edgeStyle=orthogonalEdgeStyle;rounded=0;orthogonalLoop=1;jettySize=auto;html=1;entryX=0;entryY=0.5;entryDx=0;entryDy=0;" edge="1" parent="1" source="f0ev56zdYPC9zsvNalEB-2" target="f0ev56zdYPC9zsvNalEB-5">
          <mxGeometry relative="1" as="geometry" />
        </mxCell>
        <mxCell id="f0ev56zdYPC9zsvNalEB-2" value="" style="ellipse;whiteSpace=wrap;html=1;aspect=fixed;fillColor=#60a917;fontColor=#ffffff;strokeColor=#2D7600;" vertex="1" parent="1">
          <mxGeometry x="100" y="590" width="40" height="40" as="geometry" />
        </mxCell>
        <mxCell id="f0ev56zdYPC9zsvNalEB-3" value="" style="ellipse;whiteSpace=wrap;html=1;aspect=fixed;fillColor=light-dark(#A20025,#FF0000);strokeColor=light-dark(#6F0000,#FF6868);fontColor=#ffffff;" vertex="1" parent="1">
          <mxGeometry x="1430" y="590" width="40" height="40" as="geometry" />
        </mxCell>
        <mxCell id="f0ev56zdYPC9zsvNalEB-24" style="edgeStyle=orthogonalEdgeStyle;rounded=0;orthogonalLoop=1;jettySize=auto;html=1;" edge="1" parent="1" source="f0ev56zdYPC9zsvNalEB-5" target="f0ev56zdYPC9zsvNalEB-23">
          <mxGeometry relative="1" as="geometry" />
        </mxCell>
        <mxCell id="f0ev56zdYPC9zsvNalEB-5" value="Receber salário de estagiário&lt;div&gt;&lt;font color=&quot;#007fff&quot;&gt;salEst&lt;/font&gt;&lt;/div&gt;" style="rounded=0;whiteSpace=wrap;html=1;" vertex="1" parent="1">
          <mxGeometry x="180" y="580" width="120" height="60" as="geometry" />
        </mxCell>
        <mxCell id="f0ev56zdYPC9zsvNalEB-32" style="edgeStyle=orthogonalEdgeStyle;rounded=0;orthogonalLoop=1;jettySize=auto;html=1;" edge="1" parent="1" source="f0ev56zdYPC9zsvNalEB-10" target="f0ev56zdYPC9zsvNalEB-16">
          <mxGeometry relative="1" as="geometry">
            <Array as="points">
              <mxPoint x="880" y="300" />
            </Array>
          </mxGeometry>
        </mxCell>
        <mxCell id="f0ev56zdYPC9zsvNalEB-33" style="edgeStyle=orthogonalEdgeStyle;rounded=0;orthogonalLoop=1;jettySize=auto;html=1;" edge="1" parent="1" source="f0ev56zdYPC9zsvNalEB-10" target="f0ev56zdYPC9zsvNalEB-12">
          <mxGeometry relative="1" as="geometry">
            <Array as="points">
              <mxPoint x="880" y="455" />
            </Array>
          </mxGeometry>
        </mxCell>
        <mxCell id="f0ev56zdYPC9zsvNalEB-35" style="edgeStyle=orthogonalEdgeStyle;rounded=0;orthogonalLoop=1;jettySize=auto;html=1;" edge="1" parent="1" source="f0ev56zdYPC9zsvNalEB-10" target="f0ev56zdYPC9zsvNalEB-14">
          <mxGeometry relative="1" as="geometry" />
        </mxCell>
        <mxCell id="f0ev56zdYPC9zsvNalEB-37" style="edgeStyle=orthogonalEdgeStyle;rounded=0;orthogonalLoop=1;jettySize=auto;html=1;" edge="1" parent="1" source="f0ev56zdYPC9zsvNalEB-10" target="f0ev56zdYPC9zsvNalEB-18">
          <mxGeometry relative="1" as="geometry">
            <Array as="points">
              <mxPoint x="880" y="770" />
            </Array>
          </mxGeometry>
        </mxCell>
        <mxCell id="f0ev56zdYPC9zsvNalEB-40" style="edgeStyle=orthogonalEdgeStyle;rounded=0;orthogonalLoop=1;jettySize=auto;html=1;" edge="1" parent="1" source="f0ev56zdYPC9zsvNalEB-10" target="f0ev56zdYPC9zsvNalEB-38">
          <mxGeometry relative="1" as="geometry">
            <Array as="points">
              <mxPoint x="880" y="930" />
            </Array>
          </mxGeometry>
        </mxCell>
        <mxCell id="f0ev56zdYPC9zsvNalEB-10" value="" style="rhombus;whiteSpace=wrap;html=1;" vertex="1" parent="1">
          <mxGeometry x="840" y="570" width="80" height="80" as="geometry" />
        </mxCell>
        <mxCell id="f0ev56zdYPC9zsvNalEB-42" style="edgeStyle=orthogonalEdgeStyle;rounded=0;orthogonalLoop=1;jettySize=auto;html=1;" edge="1" parent="1" source="f0ev56zdYPC9zsvNalEB-12" target="f0ev56zdYPC9zsvNalEB-3">
          <mxGeometry relative="1" as="geometry" />
        </mxCell>
        <mxCell id="f0ev56zdYPC9zsvNalEB-12" value="Exibir &lt;font style=&quot;color: light-dark(rgb(0, 127, 255), rgb(0, 0, 255));&quot;&gt;&quot;#ragazzonosabado&quot;&lt;/font&gt;" style="rounded=0;whiteSpace=wrap;html=1;" vertex="1" parent="1">
          <mxGeometry x="1160" y="415" width="170" height="80" as="geometry" />
        </mxCell>
        <mxCell id="f0ev56zdYPC9zsvNalEB-43" style="edgeStyle=orthogonalEdgeStyle;rounded=0;orthogonalLoop=1;jettySize=auto;html=1;" edge="1" parent="1" source="f0ev56zdYPC9zsvNalEB-14" target="f0ev56zdYPC9zsvNalEB-3">
          <mxGeometry relative="1" as="geometry" />
        </mxCell>
        <mxCell id="f0ev56zdYPC9zsvNalEB-14" value="Exibir &lt;font style=&quot;color: light-dark(rgb(0, 127, 255), rgb(0, 0, 255));&quot;&gt;&quot;#cinemanamorada&quot;&lt;/font&gt;" style="rounded=0;whiteSpace=wrap;html=1;" vertex="1" parent="1">
          <mxGeometry x="1156" y="570" width="170" height="80" as="geometry" />
        </mxCell>
        <mxCell id="f0ev56zdYPC9zsvNalEB-41" style="edgeStyle=orthogonalEdgeStyle;rounded=0;orthogonalLoop=1;jettySize=auto;html=1;" edge="1" parent="1" source="f0ev56zdYPC9zsvNalEB-16" target="f0ev56zdYPC9zsvNalEB-3">
          <mxGeometry relative="1" as="geometry" />
        </mxCell>
        <mxCell id="f0ev56zdYPC9zsvNalEB-16" value="Exibir &lt;font style=&quot;color: light-dark(rgb(0, 127, 255), rgb(0, 0, 255));&quot;&gt;&quot;#controletotal&quot;&lt;/font&gt;" style="rounded=0;whiteSpace=wrap;html=1;" vertex="1" parent="1">
          <mxGeometry x="1160" y="260" width="170" height="80" as="geometry" />
        </mxCell>
        <mxCell id="f0ev56zdYPC9zsvNalEB-44" style="edgeStyle=orthogonalEdgeStyle;rounded=0;orthogonalLoop=1;jettySize=auto;html=1;" edge="1" parent="1" source="f0ev56zdYPC9zsvNalEB-18" target="f0ev56zdYPC9zsvNalEB-3">
          <mxGeometry relative="1" as="geometry" />
        </mxCell>
        <mxCell id="f0ev56zdYPC9zsvNalEB-18" value="Exibir &lt;font style=&quot;color: light-dark(rgb(0, 127, 255), rgb(0, 0, 255));&quot;&gt;&quot;#novogame&quot;&lt;/font&gt;" style="rounded=0;whiteSpace=wrap;html=1;" vertex="1" parent="1">
          <mxGeometry x="1156" y="730" width="170" height="80" as="geometry" />
        </mxCell>
        <mxCell id="f0ev56zdYPC9zsvNalEB-19" value="[ mediadia &amp;lt; 15 ]" style="text;html=1;align=center;verticalAlign=middle;whiteSpace=wrap;rounded=0;" vertex="1" parent="1">
          <mxGeometry x="880" y="270" width="150" height="30" as="geometry" />
        </mxCell>
        <mxCell id="f0ev56zdYPC9zsvNalEB-20" value="[ mediadia &amp;gt;= 15 &amp;amp;&amp;amp; mediadia &amp;lt;= 20 ]" style="text;html=1;align=center;verticalAlign=middle;whiteSpace=wrap;rounded=0;" vertex="1" parent="1">
          <mxGeometry x="900" y="425" width="220" height="30" as="geometry" />
        </mxCell>
        <mxCell id="f0ev56zdYPC9zsvNalEB-26" style="edgeStyle=orthogonalEdgeStyle;rounded=0;orthogonalLoop=1;jettySize=auto;html=1;" edge="1" parent="1" source="f0ev56zdYPC9zsvNalEB-23" target="f0ev56zdYPC9zsvNalEB-25">
          <mxGeometry relative="1" as="geometry" />
        </mxCell>
        <mxCell id="f0ev56zdYPC9zsvNalEB-23" value="Receber valor da faculdade&lt;div&gt;&lt;font color=&quot;#007fff&quot;&gt;valFac&lt;/font&gt;&lt;/div&gt;" style="rounded=0;whiteSpace=wrap;html=1;" vertex="1" parent="1">
          <mxGeometry x="360" y="580" width="120" height="60" as="geometry" />
        </mxCell>
        <mxCell id="f0ev56zdYPC9zsvNalEB-28" style="edgeStyle=orthogonalEdgeStyle;rounded=0;orthogonalLoop=1;jettySize=auto;html=1;" edge="1" parent="1" source="f0ev56zdYPC9zsvNalEB-25" target="f0ev56zdYPC9zsvNalEB-10">
          <mxGeometry relative="1" as="geometry" />
        </mxCell>
        <mxCell id="f0ev56zdYPC9zsvNalEB-25" value="&lt;div&gt;&lt;font&gt;Calcular média diária&lt;/font&gt;&lt;/div&gt;&lt;div&gt;&lt;font color=&quot;#007fff&quot;&gt;mediadia = ( salEst - valFac ) / 30&lt;/font&gt;&lt;/div&gt;" style="rounded=0;whiteSpace=wrap;html=1;" vertex="1" parent="1">
          <mxGeometry x="540" y="580" width="210" height="60" as="geometry" />
        </mxCell>
        <mxCell id="f0ev56zdYPC9zsvNalEB-30" value="[ mediadia &amp;gt; 20 &amp;amp;&amp;amp; mediadia &amp;lt; 25 ]" style="text;html=1;align=center;verticalAlign=middle;whiteSpace=wrap;rounded=0;" vertex="1" parent="1">
          <mxGeometry x="920" y="580" width="220" height="30" as="geometry" />
        </mxCell>
        <mxCell id="f0ev56zdYPC9zsvNalEB-31" value="[ mediadia &amp;gt;= 25 &amp;amp;&amp;amp; mediadia &amp;lt;= 30 ]" style="text;html=1;align=center;verticalAlign=middle;whiteSpace=wrap;rounded=0;" vertex="1" parent="1">
          <mxGeometry x="900" y="740" width="220" height="30" as="geometry" />
        </mxCell>
        <mxCell id="f0ev56zdYPC9zsvNalEB-45" style="edgeStyle=orthogonalEdgeStyle;rounded=0;orthogonalLoop=1;jettySize=auto;html=1;" edge="1" parent="1" source="f0ev56zdYPC9zsvNalEB-38" target="f0ev56zdYPC9zsvNalEB-3">
          <mxGeometry relative="1" as="geometry" />
        </mxCell>
        <mxCell id="f0ev56zdYPC9zsvNalEB-38" value="Exibir &lt;font style=&quot;color: light-dark(rgb(0, 127, 255), rgb(0, 0, 255));&quot;&gt;&quot;#tobonito&quot;&lt;/font&gt;" style="rounded=0;whiteSpace=wrap;html=1;" vertex="1" parent="1">
          <mxGeometry x="1156" y="890" width="170" height="80" as="geometry" />
        </mxCell>
        <mxCell id="f0ev56zdYPC9zsvNalEB-39" value="[ mediadia &amp;gt; 30 ]" style="text;html=1;align=center;verticalAlign=middle;whiteSpace=wrap;rounded=0;" vertex="1" parent="1">
          <mxGeometry x="840" y="900" width="220" height="30" as="geometry" />
        </mxCell>
      </root>
    </mxGraphModel>
  </diagram>
  <diagram name="Página-6" id="KZ5a6D9OPFbXqdvbRo4A">
    <mxGraphModel dx="2860" dy="2404" grid="1" gridSize="10" guides="1" tooltips="1" connect="1" arrows="1" fold="1" page="1" pageScale="1" pageWidth="827" pageHeight="1169" math="0" shadow="0">
      <root>
        <mxCell id="0" />
        <mxCell id="1" parent="0" />
        <mxCell id="Q8xfbRDNpUl3NfJvCK1I-1" style="edgeStyle=orthogonalEdgeStyle;rounded=0;orthogonalLoop=1;jettySize=auto;html=1;entryX=0;entryY=0.5;entryDx=0;entryDy=0;" parent="1" source="Q8xfbRDNpUl3NfJvCK1I-2" target="Q8xfbRDNpUl3NfJvCK1I-4" edge="1">
          <mxGeometry relative="1" as="geometry" />
        </mxCell>
        <mxCell id="Q8xfbRDNpUl3NfJvCK1I-2" value="" style="ellipse;whiteSpace=wrap;html=1;aspect=fixed;fillColor=#60a917;fontColor=#ffffff;strokeColor=#2D7600;" parent="1" vertex="1">
          <mxGeometry x="-280" y="370" width="40" height="40" as="geometry" />
        </mxCell>
        <mxCell id="Q8xfbRDNpUl3NfJvCK1I-10" style="edgeStyle=orthogonalEdgeStyle;rounded=0;orthogonalLoop=1;jettySize=auto;html=1;" parent="1" source="Q8xfbRDNpUl3NfJvCK1I-4" target="Q8xfbRDNpUl3NfJvCK1I-9" edge="1">
          <mxGeometry relative="1" as="geometry" />
        </mxCell>
        <mxCell id="Q8xfbRDNpUl3NfJvCK1I-4" value="Receber o primeiro número&lt;div&gt;&lt;font style=&quot;color: light-dark(rgb(0, 127, 255), rgb(51, 51, 255));&quot;&gt;N1&lt;/font&gt;&lt;/div&gt;" style="rounded=0;whiteSpace=wrap;html=1;" parent="1" vertex="1">
          <mxGeometry x="-200" y="360" width="120" height="60" as="geometry" />
        </mxCell>
        <mxCell id="DtHdOm5Ds9ymEftPP0dQ-23" style="edgeStyle=orthogonalEdgeStyle;rounded=0;orthogonalLoop=1;jettySize=auto;html=1;" parent="1" source="Q8xfbRDNpUl3NfJvCK1I-8" target="DtHdOm5Ds9ymEftPP0dQ-7" edge="1">
          <mxGeometry relative="1" as="geometry" />
        </mxCell>
        <mxCell id="Q8xfbRDNpUl3NfJvCK1I-8" value="Receber o terceiro número&lt;div&gt;&lt;font style=&quot;color: light-dark(rgb(0, 127, 255), rgb(51, 51, 255));&quot;&gt;N3&lt;/font&gt;&lt;/div&gt;" style="rounded=0;whiteSpace=wrap;html=1;" parent="1" vertex="1">
          <mxGeometry x="120" y="360" width="120" height="60" as="geometry" />
        </mxCell>
        <mxCell id="Q8xfbRDNpUl3NfJvCK1I-11" style="edgeStyle=orthogonalEdgeStyle;rounded=0;orthogonalLoop=1;jettySize=auto;html=1;" parent="1" source="Q8xfbRDNpUl3NfJvCK1I-9" target="Q8xfbRDNpUl3NfJvCK1I-8" edge="1">
          <mxGeometry relative="1" as="geometry" />
        </mxCell>
        <mxCell id="Q8xfbRDNpUl3NfJvCK1I-9" value="Receber o segundo número&lt;div&gt;&lt;font style=&quot;color: light-dark(rgb(0, 127, 255), rgb(51, 51, 255));&quot;&gt;N2&lt;/font&gt;&lt;/div&gt;" style="rounded=0;whiteSpace=wrap;html=1;" parent="1" vertex="1">
          <mxGeometry x="-40" y="360" width="120" height="60" as="geometry" />
        </mxCell>
        <mxCell id="hME9Qoj6jTSABTEKsKsb-4" style="edgeStyle=orthogonalEdgeStyle;rounded=0;orthogonalLoop=1;jettySize=auto;html=1;" edge="1" parent="1" source="DtHdOm5Ds9ymEftPP0dQ-7" target="hME9Qoj6jTSABTEKsKsb-2">
          <mxGeometry relative="1" as="geometry">
            <Array as="points">
              <mxPoint x="360" y="175" />
            </Array>
          </mxGeometry>
        </mxCell>
        <mxCell id="hME9Qoj6jTSABTEKsKsb-104" style="edgeStyle=orthogonalEdgeStyle;rounded=0;orthogonalLoop=1;jettySize=auto;html=1;" edge="1" parent="1" source="DtHdOm5Ds9ymEftPP0dQ-7" target="hME9Qoj6jTSABTEKsKsb-81">
          <mxGeometry relative="1" as="geometry">
            <Array as="points">
              <mxPoint x="360" y="685" />
            </Array>
          </mxGeometry>
        </mxCell>
        <mxCell id="DtHdOm5Ds9ymEftPP0dQ-7" value="" style="rhombus;whiteSpace=wrap;html=1;" parent="1" vertex="1">
          <mxGeometry x="320" y="350" width="80" height="80" as="geometry" />
        </mxCell>
        <mxCell id="DtHdOm5Ds9ymEftPP0dQ-17" value="[ N1 &amp;gt;= N2 ]" style="text;html=1;align=center;verticalAlign=middle;whiteSpace=wrap;rounded=0;" parent="1" vertex="1">
          <mxGeometry x="330" y="150" width="135" height="25" as="geometry" />
        </mxCell>
        <mxCell id="hME9Qoj6jTSABTEKsKsb-22" style="edgeStyle=orthogonalEdgeStyle;rounded=0;orthogonalLoop=1;jettySize=auto;html=1;" edge="1" parent="1" source="hME9Qoj6jTSABTEKsKsb-2" target="hME9Qoj6jTSABTEKsKsb-20">
          <mxGeometry relative="1" as="geometry">
            <Array as="points">
              <mxPoint x="650" y="30" />
            </Array>
          </mxGeometry>
        </mxCell>
        <mxCell id="hME9Qoj6jTSABTEKsKsb-44" style="edgeStyle=orthogonalEdgeStyle;rounded=0;orthogonalLoop=1;jettySize=auto;html=1;" edge="1" parent="1" source="hME9Qoj6jTSABTEKsKsb-2" target="hME9Qoj6jTSABTEKsKsb-39">
          <mxGeometry relative="1" as="geometry">
            <Array as="points">
              <mxPoint x="650" y="310" />
            </Array>
          </mxGeometry>
        </mxCell>
        <mxCell id="hME9Qoj6jTSABTEKsKsb-2" value="" style="rhombus;whiteSpace=wrap;html=1;" vertex="1" parent="1">
          <mxGeometry x="610" y="135" width="80" height="80" as="geometry" />
        </mxCell>
        <mxCell id="hME9Qoj6jTSABTEKsKsb-77" style="edgeStyle=orthogonalEdgeStyle;rounded=0;orthogonalLoop=1;jettySize=auto;html=1;" edge="1" parent="1" source="hME9Qoj6jTSABTEKsKsb-9" target="hME9Qoj6jTSABTEKsKsb-27">
          <mxGeometry relative="1" as="geometry">
            <Array as="points">
              <mxPoint x="1050" y="95" />
            </Array>
          </mxGeometry>
        </mxCell>
        <mxCell id="hME9Qoj6jTSABTEKsKsb-108" style="edgeStyle=orthogonalEdgeStyle;rounded=0;orthogonalLoop=1;jettySize=auto;html=1;" edge="1" parent="1" source="hME9Qoj6jTSABTEKsKsb-9" target="hME9Qoj6jTSABTEKsKsb-12">
          <mxGeometry relative="1" as="geometry">
            <Array as="points">
              <mxPoint x="1050" y="-30" />
            </Array>
          </mxGeometry>
        </mxCell>
        <mxCell id="hME9Qoj6jTSABTEKsKsb-9" value="" style="rhombus;whiteSpace=wrap;html=1;" vertex="1" parent="1">
          <mxGeometry x="1010" y="-5" width="80" height="80" as="geometry" />
        </mxCell>
        <mxCell id="hME9Qoj6jTSABTEKsKsb-11" value="[ N1 &amp;gt;= N3 ]" style="text;html=1;align=center;verticalAlign=middle;resizable=0;points=[];autosize=1;strokeColor=none;fillColor=none;" vertex="1" parent="1">
          <mxGeometry x="650" y="35" width="90" height="30" as="geometry" />
        </mxCell>
        <mxCell id="hME9Qoj6jTSABTEKsKsb-107" style="edgeStyle=orthogonalEdgeStyle;rounded=0;orthogonalLoop=1;jettySize=auto;html=1;" edge="1" parent="1" source="hME9Qoj6jTSABTEKsKsb-12" target="hME9Qoj6jTSABTEKsKsb-25">
          <mxGeometry relative="1" as="geometry" />
        </mxCell>
        <mxCell id="hME9Qoj6jTSABTEKsKsb-12" value="&lt;font style=&quot;color: rgb(0, 127, 255);&quot;&gt;N2 = b&lt;/font&gt;" style="rounded=0;whiteSpace=wrap;html=1;" vertex="1" parent="1">
          <mxGeometry x="1150" y="-60" width="120" height="60" as="geometry" />
        </mxCell>
        <mxCell id="hME9Qoj6jTSABTEKsKsb-14" value="[ N2 &amp;gt;= N3 ]" style="text;html=1;align=center;verticalAlign=middle;resizable=0;points=[];autosize=1;strokeColor=none;fillColor=none;" vertex="1" parent="1">
          <mxGeometry x="1040" y="-60" width="90" height="30" as="geometry" />
        </mxCell>
        <mxCell id="hME9Qoj6jTSABTEKsKsb-16" value="[ N2 &amp;lt;= N3 ]" style="text;html=1;align=center;verticalAlign=middle;resizable=0;points=[];autosize=1;strokeColor=none;fillColor=none;" vertex="1" parent="1">
          <mxGeometry x="1040" y="95" width="90" height="30" as="geometry" />
        </mxCell>
        <mxCell id="hME9Qoj6jTSABTEKsKsb-24" style="edgeStyle=orthogonalEdgeStyle;rounded=0;orthogonalLoop=1;jettySize=auto;html=1;" edge="1" parent="1" source="hME9Qoj6jTSABTEKsKsb-20" target="hME9Qoj6jTSABTEKsKsb-9">
          <mxGeometry relative="1" as="geometry" />
        </mxCell>
        <mxCell id="hME9Qoj6jTSABTEKsKsb-20" value="&lt;font style=&quot;color: rgb(0, 127, 255);&quot;&gt;N1 = c&lt;/font&gt;" style="rounded=0;whiteSpace=wrap;html=1;" vertex="1" parent="1">
          <mxGeometry x="800" y="5" width="120" height="60" as="geometry" />
        </mxCell>
        <mxCell id="hME9Qoj6jTSABTEKsKsb-113" style="edgeStyle=orthogonalEdgeStyle;rounded=0;orthogonalLoop=1;jettySize=auto;html=1;" edge="1" parent="1" source="hME9Qoj6jTSABTEKsKsb-25" target="hME9Qoj6jTSABTEKsKsb-112">
          <mxGeometry relative="1" as="geometry" />
        </mxCell>
        <mxCell id="hME9Qoj6jTSABTEKsKsb-25" value="&lt;font style=&quot;color: rgb(0, 127, 255);&quot;&gt;N3 = a&lt;/font&gt;" style="rounded=0;whiteSpace=wrap;html=1;" vertex="1" parent="1">
          <mxGeometry x="1330" y="-60" width="120" height="60" as="geometry" />
        </mxCell>
        <mxCell id="hME9Qoj6jTSABTEKsKsb-78" style="edgeStyle=orthogonalEdgeStyle;rounded=0;orthogonalLoop=1;jettySize=auto;html=1;" edge="1" parent="1" source="hME9Qoj6jTSABTEKsKsb-27" target="hME9Qoj6jTSABTEKsKsb-28">
          <mxGeometry relative="1" as="geometry" />
        </mxCell>
        <mxCell id="hME9Qoj6jTSABTEKsKsb-27" value="&lt;font style=&quot;color: rgb(0, 127, 255);&quot;&gt;N2 = a&lt;/font&gt;" style="rounded=0;whiteSpace=wrap;html=1;" vertex="1" parent="1">
          <mxGeometry x="1150" y="65" width="120" height="60" as="geometry" />
        </mxCell>
        <mxCell id="hME9Qoj6jTSABTEKsKsb-114" style="edgeStyle=orthogonalEdgeStyle;rounded=0;orthogonalLoop=1;jettySize=auto;html=1;" edge="1" parent="1" source="hME9Qoj6jTSABTEKsKsb-28" target="hME9Qoj6jTSABTEKsKsb-112">
          <mxGeometry relative="1" as="geometry" />
        </mxCell>
        <mxCell id="hME9Qoj6jTSABTEKsKsb-28" value="&lt;font style=&quot;color: rgb(0, 127, 255);&quot;&gt;N3 = b&lt;/font&gt;" style="rounded=0;whiteSpace=wrap;html=1;" vertex="1" parent="1">
          <mxGeometry x="1330" y="65" width="120" height="60" as="geometry" />
        </mxCell>
        <mxCell id="hME9Qoj6jTSABTEKsKsb-47" style="edgeStyle=orthogonalEdgeStyle;rounded=0;orthogonalLoop=1;jettySize=auto;html=1;" edge="1" parent="1" source="hME9Qoj6jTSABTEKsKsb-39" target="hME9Qoj6jTSABTEKsKsb-42">
          <mxGeometry relative="1" as="geometry" />
        </mxCell>
        <mxCell id="hME9Qoj6jTSABTEKsKsb-39" value="&lt;font style=&quot;color: rgb(0, 127, 255);&quot;&gt;N1 = b&lt;/font&gt;" style="rounded=0;whiteSpace=wrap;html=1;" vertex="1" parent="1">
          <mxGeometry x="780" y="280" width="120" height="60" as="geometry" />
        </mxCell>
        <mxCell id="hME9Qoj6jTSABTEKsKsb-41" style="edgeStyle=orthogonalEdgeStyle;rounded=0;orthogonalLoop=1;jettySize=auto;html=1;" edge="1" parent="1" source="hME9Qoj6jTSABTEKsKsb-42" target="hME9Qoj6jTSABTEKsKsb-43">
          <mxGeometry relative="1" as="geometry" />
        </mxCell>
        <mxCell id="hME9Qoj6jTSABTEKsKsb-42" value="&lt;font style=&quot;color: rgb(0, 127, 255);&quot;&gt;N2 = a&lt;/font&gt;" style="rounded=0;whiteSpace=wrap;html=1;" vertex="1" parent="1">
          <mxGeometry x="1000" y="280" width="120" height="60" as="geometry" />
        </mxCell>
        <mxCell id="hME9Qoj6jTSABTEKsKsb-115" style="edgeStyle=orthogonalEdgeStyle;rounded=0;orthogonalLoop=1;jettySize=auto;html=1;" edge="1" parent="1" source="hME9Qoj6jTSABTEKsKsb-43" target="hME9Qoj6jTSABTEKsKsb-112">
          <mxGeometry relative="1" as="geometry" />
        </mxCell>
        <mxCell id="hME9Qoj6jTSABTEKsKsb-43" value="&lt;font style=&quot;color: rgb(0, 127, 255);&quot;&gt;N3 = c&lt;/font&gt;" style="rounded=0;whiteSpace=wrap;html=1;" vertex="1" parent="1">
          <mxGeometry x="1220" y="280" width="120" height="60" as="geometry" />
        </mxCell>
        <mxCell id="hME9Qoj6jTSABTEKsKsb-45" value="[ N1 &amp;lt;= N3 ]" style="text;html=1;align=center;verticalAlign=middle;resizable=0;points=[];autosize=1;strokeColor=none;fillColor=none;" vertex="1" parent="1">
          <mxGeometry x="650" y="280" width="90" height="30" as="geometry" />
        </mxCell>
        <mxCell id="hME9Qoj6jTSABTEKsKsb-79" style="edgeStyle=orthogonalEdgeStyle;rounded=0;orthogonalLoop=1;jettySize=auto;html=1;" edge="1" parent="1" source="hME9Qoj6jTSABTEKsKsb-81" target="hME9Qoj6jTSABTEKsKsb-91">
          <mxGeometry relative="1" as="geometry">
            <Array as="points">
              <mxPoint x="650" y="540" />
            </Array>
          </mxGeometry>
        </mxCell>
        <mxCell id="hME9Qoj6jTSABTEKsKsb-80" style="edgeStyle=orthogonalEdgeStyle;rounded=0;orthogonalLoop=1;jettySize=auto;html=1;" edge="1" parent="1" source="hME9Qoj6jTSABTEKsKsb-81" target="hME9Qoj6jTSABTEKsKsb-97">
          <mxGeometry relative="1" as="geometry">
            <Array as="points">
              <mxPoint x="650" y="820" />
            </Array>
          </mxGeometry>
        </mxCell>
        <mxCell id="hME9Qoj6jTSABTEKsKsb-81" value="" style="rhombus;whiteSpace=wrap;html=1;" vertex="1" parent="1">
          <mxGeometry x="610" y="645" width="80" height="80" as="geometry" />
        </mxCell>
        <mxCell id="hME9Qoj6jTSABTEKsKsb-83" style="edgeStyle=orthogonalEdgeStyle;rounded=0;orthogonalLoop=1;jettySize=auto;html=1;" edge="1" parent="1" source="hME9Qoj6jTSABTEKsKsb-84" target="hME9Qoj6jTSABTEKsKsb-94">
          <mxGeometry relative="1" as="geometry">
            <Array as="points">
              <mxPoint x="1050" y="605" />
            </Array>
          </mxGeometry>
        </mxCell>
        <mxCell id="hME9Qoj6jTSABTEKsKsb-110" style="edgeStyle=orthogonalEdgeStyle;rounded=0;orthogonalLoop=1;jettySize=auto;html=1;" edge="1" parent="1" source="hME9Qoj6jTSABTEKsKsb-84" target="hME9Qoj6jTSABTEKsKsb-87">
          <mxGeometry relative="1" as="geometry">
            <Array as="points">
              <mxPoint x="1050" y="485" />
            </Array>
          </mxGeometry>
        </mxCell>
        <mxCell id="hME9Qoj6jTSABTEKsKsb-84" value="" style="rhombus;whiteSpace=wrap;html=1;" vertex="1" parent="1">
          <mxGeometry x="1010" y="505" width="80" height="80" as="geometry" />
        </mxCell>
        <mxCell id="hME9Qoj6jTSABTEKsKsb-85" value="[ N1 &amp;lt;= N3 ]" style="text;html=1;align=center;verticalAlign=middle;resizable=0;points=[];autosize=1;strokeColor=none;fillColor=none;" vertex="1" parent="1">
          <mxGeometry x="650" y="545" width="90" height="30" as="geometry" />
        </mxCell>
        <mxCell id="hME9Qoj6jTSABTEKsKsb-111" style="edgeStyle=orthogonalEdgeStyle;rounded=0;orthogonalLoop=1;jettySize=auto;html=1;" edge="1" parent="1" source="hME9Qoj6jTSABTEKsKsb-87" target="hME9Qoj6jTSABTEKsKsb-92">
          <mxGeometry relative="1" as="geometry" />
        </mxCell>
        <mxCell id="hME9Qoj6jTSABTEKsKsb-87" value="&lt;font style=&quot;color: rgb(0, 127, 255);&quot;&gt;N2 = c&lt;/font&gt;" style="rounded=0;whiteSpace=wrap;html=1;" vertex="1" parent="1">
          <mxGeometry x="1150" y="455" width="120" height="60" as="geometry" />
        </mxCell>
        <mxCell id="hME9Qoj6jTSABTEKsKsb-88" value="[ N2 &amp;gt;= N3 ]" style="text;html=1;align=center;verticalAlign=middle;resizable=0;points=[];autosize=1;strokeColor=none;fillColor=none;" vertex="1" parent="1">
          <mxGeometry x="1040" y="455" width="90" height="30" as="geometry" />
        </mxCell>
        <mxCell id="hME9Qoj6jTSABTEKsKsb-89" value="[ N2 &amp;lt;= N3 ]" style="text;html=1;align=center;verticalAlign=middle;resizable=0;points=[];autosize=1;strokeColor=none;fillColor=none;" vertex="1" parent="1">
          <mxGeometry x="1040" y="605" width="90" height="30" as="geometry" />
        </mxCell>
        <mxCell id="hME9Qoj6jTSABTEKsKsb-90" style="edgeStyle=orthogonalEdgeStyle;rounded=0;orthogonalLoop=1;jettySize=auto;html=1;" edge="1" parent="1" source="hME9Qoj6jTSABTEKsKsb-91" target="hME9Qoj6jTSABTEKsKsb-84">
          <mxGeometry relative="1" as="geometry" />
        </mxCell>
        <mxCell id="hME9Qoj6jTSABTEKsKsb-91" value="&lt;font style=&quot;color: rgb(0, 127, 255);&quot;&gt;N1 = a&lt;/font&gt;" style="rounded=0;whiteSpace=wrap;html=1;" vertex="1" parent="1">
          <mxGeometry x="800" y="515" width="120" height="60" as="geometry" />
        </mxCell>
        <mxCell id="hME9Qoj6jTSABTEKsKsb-116" style="edgeStyle=orthogonalEdgeStyle;rounded=0;orthogonalLoop=1;jettySize=auto;html=1;" edge="1" parent="1" source="hME9Qoj6jTSABTEKsKsb-92" target="hME9Qoj6jTSABTEKsKsb-112">
          <mxGeometry relative="1" as="geometry" />
        </mxCell>
        <mxCell id="hME9Qoj6jTSABTEKsKsb-92" value="&lt;font style=&quot;color: rgb(0, 127, 255);&quot;&gt;N3 = b&lt;/font&gt;" style="rounded=0;whiteSpace=wrap;html=1;" vertex="1" parent="1">
          <mxGeometry x="1330" y="455" width="120" height="60" as="geometry" />
        </mxCell>
        <mxCell id="hME9Qoj6jTSABTEKsKsb-93" style="edgeStyle=orthogonalEdgeStyle;rounded=0;orthogonalLoop=1;jettySize=auto;html=1;" edge="1" parent="1" source="hME9Qoj6jTSABTEKsKsb-94" target="hME9Qoj6jTSABTEKsKsb-95">
          <mxGeometry relative="1" as="geometry" />
        </mxCell>
        <mxCell id="hME9Qoj6jTSABTEKsKsb-94" value="&lt;font style=&quot;color: rgb(0, 127, 255);&quot;&gt;N2 = b&lt;/font&gt;" style="rounded=0;whiteSpace=wrap;html=1;" vertex="1" parent="1">
          <mxGeometry x="1150" y="575" width="120" height="60" as="geometry" />
        </mxCell>
        <mxCell id="hME9Qoj6jTSABTEKsKsb-117" style="edgeStyle=orthogonalEdgeStyle;rounded=0;orthogonalLoop=1;jettySize=auto;html=1;" edge="1" parent="1" source="hME9Qoj6jTSABTEKsKsb-95" target="hME9Qoj6jTSABTEKsKsb-112">
          <mxGeometry relative="1" as="geometry" />
        </mxCell>
        <mxCell id="hME9Qoj6jTSABTEKsKsb-95" value="&lt;font style=&quot;color: rgb(0, 127, 255);&quot;&gt;N3 = c&lt;/font&gt;" style="rounded=0;whiteSpace=wrap;html=1;" vertex="1" parent="1">
          <mxGeometry x="1330" y="575" width="120" height="60" as="geometry" />
        </mxCell>
        <mxCell id="hME9Qoj6jTSABTEKsKsb-96" style="edgeStyle=orthogonalEdgeStyle;rounded=0;orthogonalLoop=1;jettySize=auto;html=1;" edge="1" parent="1" source="hME9Qoj6jTSABTEKsKsb-97" target="hME9Qoj6jTSABTEKsKsb-99">
          <mxGeometry relative="1" as="geometry" />
        </mxCell>
        <mxCell id="hME9Qoj6jTSABTEKsKsb-97" value="&lt;font style=&quot;color: rgb(0, 127, 255);&quot;&gt;N1 = b&lt;/font&gt;" style="rounded=0;whiteSpace=wrap;html=1;" vertex="1" parent="1">
          <mxGeometry x="780" y="790" width="120" height="60" as="geometry" />
        </mxCell>
        <mxCell id="hME9Qoj6jTSABTEKsKsb-98" style="edgeStyle=orthogonalEdgeStyle;rounded=0;orthogonalLoop=1;jettySize=auto;html=1;" edge="1" parent="1" source="hME9Qoj6jTSABTEKsKsb-99" target="hME9Qoj6jTSABTEKsKsb-100">
          <mxGeometry relative="1" as="geometry" />
        </mxCell>
        <mxCell id="hME9Qoj6jTSABTEKsKsb-99" value="&lt;font style=&quot;color: rgb(0, 127, 255);&quot;&gt;N2 = c&lt;/font&gt;" style="rounded=0;whiteSpace=wrap;html=1;" vertex="1" parent="1">
          <mxGeometry x="1000" y="790" width="120" height="60" as="geometry" />
        </mxCell>
        <mxCell id="hME9Qoj6jTSABTEKsKsb-118" style="edgeStyle=orthogonalEdgeStyle;rounded=0;orthogonalLoop=1;jettySize=auto;html=1;" edge="1" parent="1" source="hME9Qoj6jTSABTEKsKsb-100" target="hME9Qoj6jTSABTEKsKsb-112">
          <mxGeometry relative="1" as="geometry" />
        </mxCell>
        <mxCell id="hME9Qoj6jTSABTEKsKsb-100" value="&lt;font style=&quot;color: rgb(0, 127, 255);&quot;&gt;N3 = a&lt;/font&gt;" style="rounded=0;whiteSpace=wrap;html=1;" vertex="1" parent="1">
          <mxGeometry x="1220" y="790" width="120" height="60" as="geometry" />
        </mxCell>
        <mxCell id="hME9Qoj6jTSABTEKsKsb-101" value="[ N1 &amp;gt;= N3 ]" style="text;html=1;align=center;verticalAlign=middle;resizable=0;points=[];autosize=1;strokeColor=none;fillColor=none;" vertex="1" parent="1">
          <mxGeometry x="650" y="790" width="90" height="30" as="geometry" />
        </mxCell>
        <mxCell id="hME9Qoj6jTSABTEKsKsb-105" value="[ N1 &amp;lt;= N2 ]" style="text;html=1;align=center;verticalAlign=middle;whiteSpace=wrap;rounded=0;" vertex="1" parent="1">
          <mxGeometry x="330" y="660" width="135" height="25" as="geometry" />
        </mxCell>
        <mxCell id="83Lk3aUYPJV0TNoUV1j4-2" style="edgeStyle=orthogonalEdgeStyle;rounded=0;orthogonalLoop=1;jettySize=auto;html=1;" edge="1" parent="1" source="hME9Qoj6jTSABTEKsKsb-112" target="83Lk3aUYPJV0TNoUV1j4-1">
          <mxGeometry relative="1" as="geometry" />
        </mxCell>
        <mxCell id="hME9Qoj6jTSABTEKsKsb-112" value="Exibir ordem crescente&lt;div&gt;&lt;font style=&quot;color: rgb(0, 127, 255);&quot;&gt;a &lt;/font&gt;+ &lt;font style=&quot;color: rgb(0, 127, 255);&quot;&gt;b &lt;/font&gt;+ &lt;font style=&quot;color: rgb(0, 127, 255);&quot;&gt;c&lt;/font&gt;&lt;/div&gt;" style="rounded=0;whiteSpace=wrap;html=1;" vertex="1" parent="1">
          <mxGeometry x="1640" y="360" width="150" height="60" as="geometry" />
        </mxCell>
        <mxCell id="83Lk3aUYPJV0TNoUV1j4-1" value="" style="ellipse;whiteSpace=wrap;html=1;aspect=fixed;fillColor=light-dark(#A20025,#FF0000);strokeColor=light-dark(#6F0000,#FF6868);fontColor=#ffffff;" vertex="1" parent="1">
          <mxGeometry x="1960" y="370" width="40" height="40" as="geometry" />
        </mxCell>
      </root>
    </mxGraphModel>
  </diagram>
  <diagram name="Página-7" id="1n5Zamq9gAW64TNpQd3s">
    <mxGraphModel dx="1511" dy="898" grid="1" gridSize="10" guides="1" tooltips="1" connect="1" arrows="1" fold="1" page="1" pageScale="1" pageWidth="827" pageHeight="1169" math="0" shadow="0">
      <root>
        <mxCell id="0" />
        <mxCell id="1" parent="0" />
        <mxCell id="ElX5IH0pQlmyjA5pZm1p-1" style="edgeStyle=orthogonalEdgeStyle;rounded=0;orthogonalLoop=1;jettySize=auto;html=1;entryX=0;entryY=0.5;entryDx=0;entryDy=0;labelBackgroundColor=none;fontColor=default;" parent="1" source="ElX5IH0pQlmyjA5pZm1p-2" target="ElX5IH0pQlmyjA5pZm1p-3" edge="1">
          <mxGeometry relative="1" as="geometry" />
        </mxCell>
        <mxCell id="ElX5IH0pQlmyjA5pZm1p-2" value="" style="ellipse;whiteSpace=wrap;html=1;aspect=fixed;labelBackgroundColor=none;fillColor=#60a917;fontColor=#ffffff;strokeColor=#2D7600;" parent="1" vertex="1">
          <mxGeometry x="40" y="440" width="40" height="40" as="geometry" />
        </mxCell>
        <mxCell id="ElX5IH0pQlmyjA5pZm1p-5" style="edgeStyle=orthogonalEdgeStyle;rounded=0;orthogonalLoop=1;jettySize=auto;html=1;labelBackgroundColor=none;fontColor=default;" parent="1" source="ElX5IH0pQlmyjA5pZm1p-3" target="ElX5IH0pQlmyjA5pZm1p-4" edge="1">
          <mxGeometry relative="1" as="geometry" />
        </mxCell>
        <mxCell id="ElX5IH0pQlmyjA5pZm1p-3" value="Receber quantidade total de filhos menores de 18 anos&lt;div&gt;&lt;font style=&quot;color: light-dark(rgb(0, 127, 255), rgb(51, 51, 255));&quot;&gt;qntFilho&lt;/font&gt;&lt;/div&gt;" style="rounded=0;whiteSpace=wrap;html=1;labelBackgroundColor=none;" parent="1" vertex="1">
          <mxGeometry x="120" y="430" width="180" height="60" as="geometry" />
        </mxCell>
        <mxCell id="ElX5IH0pQlmyjA5pZm1p-7" style="edgeStyle=orthogonalEdgeStyle;rounded=0;orthogonalLoop=1;jettySize=auto;html=1;labelBackgroundColor=none;fontColor=default;" parent="1" source="ElX5IH0pQlmyjA5pZm1p-4" target="ElX5IH0pQlmyjA5pZm1p-6" edge="1">
          <mxGeometry relative="1" as="geometry">
            <Array as="points">
              <mxPoint x="390" y="380" />
            </Array>
          </mxGeometry>
        </mxCell>
        <mxCell id="ElX5IH0pQlmyjA5pZm1p-10" style="edgeStyle=orthogonalEdgeStyle;rounded=0;orthogonalLoop=1;jettySize=auto;html=1;labelBackgroundColor=none;fontColor=default;" parent="1" source="ElX5IH0pQlmyjA5pZm1p-4" target="ElX5IH0pQlmyjA5pZm1p-9" edge="1">
          <mxGeometry relative="1" as="geometry">
            <Array as="points">
              <mxPoint x="390" y="540" />
            </Array>
          </mxGeometry>
        </mxCell>
        <mxCell id="ElX5IH0pQlmyjA5pZm1p-4" value="" style="rhombus;whiteSpace=wrap;html=1;labelBackgroundColor=none;" parent="1" vertex="1">
          <mxGeometry x="350" y="420" width="80" height="80" as="geometry" />
        </mxCell>
        <mxCell id="6WFyNieVjum8CfhpNbCv-64" style="edgeStyle=orthogonalEdgeStyle;rounded=0;orthogonalLoop=1;jettySize=auto;html=1;" edge="1" parent="1" source="ElX5IH0pQlmyjA5pZm1p-6" target="6WFyNieVjum8CfhpNbCv-61">
          <mxGeometry relative="1" as="geometry" />
        </mxCell>
        <mxCell id="ElX5IH0pQlmyjA5pZm1p-6" value="Exibir &lt;font style=&quot;color: rgb(0, 127, 255);&quot;&gt;&quot;Sem bolsa&quot;&lt;/font&gt;" style="rounded=0;whiteSpace=wrap;html=1;labelBackgroundColor=none;" parent="1" vertex="1">
          <mxGeometry x="330" y="40" width="120" height="60" as="geometry" />
        </mxCell>
        <mxCell id="ElX5IH0pQlmyjA5pZm1p-8" value="[ qntFilho = 0 ]" style="text;html=1;align=center;verticalAlign=middle;whiteSpace=wrap;rounded=0;labelBackgroundColor=none;" parent="1" vertex="1">
          <mxGeometry x="400" y="390" width="80" height="30" as="geometry" />
        </mxCell>
        <mxCell id="ElX5IH0pQlmyjA5pZm1p-13" style="edgeStyle=orthogonalEdgeStyle;rounded=0;orthogonalLoop=1;jettySize=auto;html=1;labelBackgroundColor=none;fontColor=default;" parent="1" source="ElX5IH0pQlmyjA5pZm1p-9" target="ElX5IH0pQlmyjA5pZm1p-12" edge="1">
          <mxGeometry relative="1" as="geometry" />
        </mxCell>
        <mxCell id="ElX5IH0pQlmyjA5pZm1p-9" value="Receber nome&lt;div&gt;&lt;font style=&quot;color: rgb(0, 127, 255);&quot;&gt;nome&lt;/font&gt;&lt;/div&gt;" style="rounded=0;whiteSpace=wrap;html=1;labelBackgroundColor=none;" parent="1" vertex="1">
          <mxGeometry x="520" y="510" width="120" height="60" as="geometry" />
        </mxCell>
        <mxCell id="ElX5IH0pQlmyjA5pZm1p-11" value="[ qntFilho &amp;gt; 0 ]" style="text;html=1;align=center;verticalAlign=middle;whiteSpace=wrap;rounded=0;labelBackgroundColor=none;" parent="1" vertex="1">
          <mxGeometry x="400" y="510" width="90" height="30" as="geometry" />
        </mxCell>
        <mxCell id="rrOfCMRAHvIuTMGwjJKB-4" style="edgeStyle=orthogonalEdgeStyle;rounded=0;orthogonalLoop=1;jettySize=auto;html=1;labelBackgroundColor=none;fontColor=default;" parent="1" source="ElX5IH0pQlmyjA5pZm1p-12" target="rrOfCMRAHvIuTMGwjJKB-2" edge="1">
          <mxGeometry relative="1" as="geometry" />
        </mxCell>
        <mxCell id="ElX5IH0pQlmyjA5pZm1p-12" value="Receber idade&lt;div&gt;&lt;font style=&quot;color: rgb(0, 127, 255);&quot;&gt;idade&lt;/font&gt;&lt;/div&gt;" style="rounded=0;whiteSpace=wrap;html=1;labelBackgroundColor=none;" parent="1" vertex="1">
          <mxGeometry x="680" y="510" width="120" height="60" as="geometry" />
        </mxCell>
        <mxCell id="cykgWoZQg4nBBdzez2aO-2" style="edgeStyle=orthogonalEdgeStyle;rounded=0;orthogonalLoop=1;jettySize=auto;html=1;exitX=0.5;exitY=0;exitDx=0;exitDy=0;labelBackgroundColor=none;fontColor=default;" parent="1" source="cykgWoZQg4nBBdzez2aO-6" target="cykgWoZQg4nBBdzez2aO-8" edge="1">
          <mxGeometry relative="1" as="geometry" />
        </mxCell>
        <mxCell id="cykgWoZQg4nBBdzez2aO-3" style="edgeStyle=orthogonalEdgeStyle;rounded=0;orthogonalLoop=1;jettySize=auto;html=1;labelBackgroundColor=none;fontColor=default;" parent="1" source="cykgWoZQg4nBBdzez2aO-6" target="cykgWoZQg4nBBdzez2aO-10" edge="1">
          <mxGeometry relative="1" as="geometry">
            <Array as="points">
              <mxPoint x="1040" y="620" />
            </Array>
          </mxGeometry>
        </mxCell>
        <mxCell id="cykgWoZQg4nBBdzez2aO-4" style="edgeStyle=orthogonalEdgeStyle;rounded=0;orthogonalLoop=1;jettySize=auto;html=1;labelBackgroundColor=none;fontColor=default;" parent="1" source="cykgWoZQg4nBBdzez2aO-6" target="cykgWoZQg4nBBdzez2aO-12" edge="1">
          <mxGeometry relative="1" as="geometry">
            <Array as="points">
              <mxPoint x="1040" y="310" />
            </Array>
          </mxGeometry>
        </mxCell>
        <mxCell id="6WFyNieVjum8CfhpNbCv-52" style="edgeStyle=orthogonalEdgeStyle;rounded=0;orthogonalLoop=1;jettySize=auto;html=1;labelBackgroundColor=none;fontColor=default;" edge="1" parent="1" source="cykgWoZQg4nBBdzez2aO-6" target="6WFyNieVjum8CfhpNbCv-49">
          <mxGeometry relative="1" as="geometry">
            <Array as="points">
              <mxPoint x="1040" y="810" />
              <mxPoint x="1910" y="810" />
            </Array>
          </mxGeometry>
        </mxCell>
        <mxCell id="cykgWoZQg4nBBdzez2aO-6" value="" style="rhombus;whiteSpace=wrap;html=1;labelBackgroundColor=none;" parent="1" vertex="1">
          <mxGeometry x="1000" y="500" width="80" height="80" as="geometry" />
        </mxCell>
        <mxCell id="cykgWoZQg4nBBdzez2aO-23" style="edgeStyle=orthogonalEdgeStyle;rounded=0;orthogonalLoop=1;jettySize=auto;html=1;labelBackgroundColor=none;fontColor=default;" parent="1" source="cykgWoZQg4nBBdzez2aO-8" target="cykgWoZQg4nBBdzez2aO-21" edge="1">
          <mxGeometry relative="1" as="geometry" />
        </mxCell>
        <mxCell id="cykgWoZQg4nBBdzez2aO-8" value="&lt;span style=&quot;color: rgb(49, 158, 255);&quot;&gt;&lt;span style=&quot;color: rgb(0, 0, 0);&quot;&gt;Calcular bolsa de 20 reais&lt;/span&gt;&lt;/span&gt;&lt;div&gt;&lt;span style=&quot;color: rgb(49, 158, 255);&quot;&gt;bolsa20 = 20 + bolsa25&lt;/span&gt;&lt;span style=&quot;color: rgb(49, 158, 255); white-space: pre;&quot;&gt;&#x9;&lt;/span&gt;&lt;/div&gt;" style="rounded=0;whiteSpace=wrap;html=1;labelBackgroundColor=none;" parent="1" vertex="1">
          <mxGeometry x="1260" y="420" width="170" height="80" as="geometry" />
        </mxCell>
        <mxCell id="cykgWoZQg4nBBdzez2aO-24" style="edgeStyle=orthogonalEdgeStyle;rounded=0;orthogonalLoop=1;jettySize=auto;html=1;labelBackgroundColor=none;fontColor=default;" parent="1" source="cykgWoZQg4nBBdzez2aO-10" target="cykgWoZQg4nBBdzez2aO-21" edge="1">
          <mxGeometry relative="1" as="geometry" />
        </mxCell>
        <mxCell id="cykgWoZQg4nBBdzez2aO-10" value="&lt;span style=&quot;color: rgb(49, 158, 255);&quot;&gt;&lt;span style=&quot;color: rgb(0, 0, 0);&quot;&gt;Calcular bolsa de 15 reais&lt;/span&gt;&lt;/span&gt;&lt;div&gt;&lt;span style=&quot;color: rgb(49, 158, 255);&quot;&gt;bolsa15 = 15 + bolsa15&lt;/span&gt;&lt;span style=&quot;color: rgb(49, 158, 255); white-space: pre;&quot;&gt;&#x9;&lt;/span&gt;&lt;/div&gt;" style="rounded=0;whiteSpace=wrap;html=1;labelBackgroundColor=none;" parent="1" vertex="1">
          <mxGeometry x="1260" y="580" width="170" height="80" as="geometry" />
        </mxCell>
        <mxCell id="cykgWoZQg4nBBdzez2aO-22" style="edgeStyle=orthogonalEdgeStyle;rounded=0;orthogonalLoop=1;jettySize=auto;html=1;labelBackgroundColor=none;fontColor=default;" parent="1" source="cykgWoZQg4nBBdzez2aO-12" target="cykgWoZQg4nBBdzez2aO-21" edge="1">
          <mxGeometry relative="1" as="geometry" />
        </mxCell>
        <mxCell id="cykgWoZQg4nBBdzez2aO-12" value="&lt;div&gt;&lt;span style=&quot;color: rgb(0, 127, 255);&quot;&gt;&lt;br&gt;&lt;/span&gt;&lt;/div&gt;&lt;span&gt;&lt;font style=&quot;color: rgb(0, 0, 0);&quot;&gt;Calcular bolsa de 25 reais&lt;/font&gt;&lt;/span&gt;&lt;div&gt;&lt;span style=&quot;color: rgb(0, 127, 255);&quot;&gt;bolsa25 = 25 + bolsa25&lt;span style=&quot;white-space: pre;&quot;&gt;&#x9;&lt;/span&gt;&lt;/span&gt;&lt;/div&gt;" style="rounded=0;whiteSpace=wrap;html=1;labelBackgroundColor=none;" parent="1" vertex="1">
          <mxGeometry x="1260" y="270" width="170" height="80" as="geometry" />
        </mxCell>
        <mxCell id="cykgWoZQg4nBBdzez2aO-15" value="[ idade &amp;lt; = 3 ]" style="text;html=1;align=center;verticalAlign=middle;whiteSpace=wrap;rounded=0;labelBackgroundColor=none;" parent="1" vertex="1">
          <mxGeometry x="1050" y="280" width="90" height="30" as="geometry" />
        </mxCell>
        <mxCell id="cykgWoZQg4nBBdzez2aO-16" value="[ idade &amp;gt; 3 &amp;amp;&amp;amp; idade &amp;lt;= 16 ]" style="text;html=1;align=center;verticalAlign=middle;whiteSpace=wrap;rounded=0;labelBackgroundColor=none;" parent="1" vertex="1">
          <mxGeometry x="1050" y="430" width="160" height="30" as="geometry" />
        </mxCell>
        <mxCell id="cykgWoZQg4nBBdzez2aO-17" value="[ idade &amp;gt; 16 &amp;amp;&amp;amp; idade &amp;lt; 18 ]" style="text;html=1;align=center;verticalAlign=middle;whiteSpace=wrap;rounded=0;labelBackgroundColor=none;" parent="1" vertex="1">
          <mxGeometry x="1050" y="590" width="160" height="30" as="geometry" />
        </mxCell>
        <mxCell id="cykgWoZQg4nBBdzez2aO-18" value="[ idade &amp;gt;= 18 ]" style="text;html=1;align=center;verticalAlign=middle;whiteSpace=wrap;rounded=0;labelBackgroundColor=none;" parent="1" vertex="1">
          <mxGeometry x="1050" y="750" width="100" height="30" as="geometry" />
        </mxCell>
        <mxCell id="6WFyNieVjum8CfhpNbCv-50" style="edgeStyle=orthogonalEdgeStyle;rounded=0;orthogonalLoop=1;jettySize=auto;html=1;labelBackgroundColor=none;fontColor=default;" edge="1" parent="1" source="cykgWoZQg4nBBdzez2aO-21" target="6WFyNieVjum8CfhpNbCv-49">
          <mxGeometry relative="1" as="geometry" />
        </mxCell>
        <mxCell id="cykgWoZQg4nBBdzez2aO-21" value="Calcular contador&lt;div&gt;&lt;font style=&quot;color: rgb(0, 127, 255);&quot;&gt;cont + 1&lt;/font&gt;&lt;/div&gt;" style="rounded=0;whiteSpace=wrap;html=1;labelBackgroundColor=none;" parent="1" vertex="1">
          <mxGeometry x="1560" y="420" width="170" height="80" as="geometry" />
        </mxCell>
        <mxCell id="6WFyNieVjum8CfhpNbCv-48" style="edgeStyle=orthogonalEdgeStyle;rounded=0;orthogonalLoop=1;jettySize=auto;html=1;labelBackgroundColor=none;fontColor=default;" edge="1" parent="1" source="rrOfCMRAHvIuTMGwjJKB-2" target="cykgWoZQg4nBBdzez2aO-6">
          <mxGeometry relative="1" as="geometry" />
        </mxCell>
        <mxCell id="rrOfCMRAHvIuTMGwjJKB-2" value="Declarar contador&lt;div&gt;&lt;font style=&quot;color: rgb(0, 127, 255);&quot;&gt;cont = 0&lt;/font&gt;&lt;/div&gt;" style="rounded=0;whiteSpace=wrap;html=1;labelBackgroundColor=none;" parent="1" vertex="1">
          <mxGeometry x="840" y="510" width="120" height="60" as="geometry" />
        </mxCell>
        <mxCell id="6WFyNieVjum8CfhpNbCv-51" style="edgeStyle=orthogonalEdgeStyle;rounded=0;orthogonalLoop=1;jettySize=auto;html=1;labelBackgroundColor=none;fontColor=default;" edge="1" parent="1" source="6WFyNieVjum8CfhpNbCv-49" target="ElX5IH0pQlmyjA5pZm1p-9">
          <mxGeometry relative="1" as="geometry">
            <Array as="points">
              <mxPoint x="1910" y="160" />
              <mxPoint x="580" y="160" />
            </Array>
          </mxGeometry>
        </mxCell>
        <mxCell id="6WFyNieVjum8CfhpNbCv-56" style="edgeStyle=orthogonalEdgeStyle;rounded=0;orthogonalLoop=1;jettySize=auto;html=1;labelBackgroundColor=none;fontColor=default;" edge="1" parent="1" source="6WFyNieVjum8CfhpNbCv-49" target="6WFyNieVjum8CfhpNbCv-55">
          <mxGeometry relative="1" as="geometry" />
        </mxCell>
        <mxCell id="6WFyNieVjum8CfhpNbCv-49" value="" style="rhombus;whiteSpace=wrap;html=1;labelBackgroundColor=none;" vertex="1" parent="1">
          <mxGeometry x="1870" y="420" width="80" height="80" as="geometry" />
        </mxCell>
        <mxCell id="6WFyNieVjum8CfhpNbCv-53" value="[ cont &amp;lt; qntFilho ]" style="text;strokeColor=none;align=center;fillColor=none;html=1;verticalAlign=middle;whiteSpace=wrap;rounded=0;labelBackgroundColor=none;" vertex="1" parent="1">
          <mxGeometry x="1790" y="130" width="120" height="30" as="geometry" />
        </mxCell>
        <mxCell id="6WFyNieVjum8CfhpNbCv-54" value="[ cont == qntFilho ]" style="text;strokeColor=none;align=center;fillColor=none;html=1;verticalAlign=middle;whiteSpace=wrap;rounded=0;labelBackgroundColor=none;" vertex="1" parent="1">
          <mxGeometry x="1940" y="420" width="120" height="30" as="geometry" />
        </mxCell>
        <mxCell id="6WFyNieVjum8CfhpNbCv-59" style="edgeStyle=orthogonalEdgeStyle;rounded=0;orthogonalLoop=1;jettySize=auto;html=1;" edge="1" parent="1" source="6WFyNieVjum8CfhpNbCv-55" target="6WFyNieVjum8CfhpNbCv-58">
          <mxGeometry relative="1" as="geometry" />
        </mxCell>
        <mxCell id="6WFyNieVjum8CfhpNbCv-55" value="Somar bolsa&lt;div&gt;&lt;font style=&quot;color: rgb(0, 127, 255);&quot;&gt;bolsaTotal = bolsa25 + bolsa20 + bolsa15&lt;/font&gt;&lt;/div&gt;" style="rounded=0;whiteSpace=wrap;html=1;labelBackgroundColor=none;" vertex="1" parent="1">
          <mxGeometry x="2140" y="430" width="240" height="60" as="geometry" />
        </mxCell>
        <mxCell id="6WFyNieVjum8CfhpNbCv-63" style="edgeStyle=orthogonalEdgeStyle;rounded=0;orthogonalLoop=1;jettySize=auto;html=1;fillColor=#a20025;strokeColor=#000000;" edge="1" parent="1" source="6WFyNieVjum8CfhpNbCv-58" target="6WFyNieVjum8CfhpNbCv-61">
          <mxGeometry relative="1" as="geometry" />
        </mxCell>
        <mxCell id="6WFyNieVjum8CfhpNbCv-58" value="Exibir bolsa total&lt;div&gt;&lt;font style=&quot;color: rgb(0, 127, 255);&quot;&gt;bolsaTotal&lt;/font&gt;&lt;/div&gt;" style="rounded=0;whiteSpace=wrap;html=1;" vertex="1" parent="1">
          <mxGeometry x="2460" y="430" width="120" height="60" as="geometry" />
        </mxCell>
        <mxCell id="6WFyNieVjum8CfhpNbCv-61" value="" style="ellipse;whiteSpace=wrap;html=1;aspect=fixed;labelBackgroundColor=none;fillColor=#e51400;fontColor=#ffffff;strokeColor=#B20000;" vertex="1" parent="1">
          <mxGeometry x="2640" y="440" width="40" height="40" as="geometry" />
        </mxCell>
      </root>
    </mxGraphModel>
  </diagram>
  <diagram name="Página-8" id="KSDiOjeENxV88tonGfiy">
    <mxGraphModel dx="1187" dy="706" grid="1" gridSize="10" guides="1" tooltips="1" connect="1" arrows="1" fold="1" page="1" pageScale="1" pageWidth="827" pageHeight="1169" math="0" shadow="0">
      <root>
        <mxCell id="0" />
        <mxCell id="1" parent="0" />
        <mxCell id="bwxsFrbYJQREvJhilMGZ-1" style="edgeStyle=orthogonalEdgeStyle;rounded=0;orthogonalLoop=1;jettySize=auto;html=1;entryX=0;entryY=0.5;entryDx=0;entryDy=0;" parent="1" source="bwxsFrbYJQREvJhilMGZ-2" target="bwxsFrbYJQREvJhilMGZ-3" edge="1">
          <mxGeometry relative="1" as="geometry" />
        </mxCell>
        <mxCell id="bwxsFrbYJQREvJhilMGZ-2" value="" style="ellipse;whiteSpace=wrap;html=1;aspect=fixed;fillColor=#60a917;fontColor=#ffffff;strokeColor=#2D7600;" parent="1" vertex="1">
          <mxGeometry x="40" y="480" width="40" height="40" as="geometry" />
        </mxCell>
        <mxCell id="66d3g6OgL1vffUzF-jd8-16" style="edgeStyle=orthogonalEdgeStyle;rounded=0;orthogonalLoop=1;jettySize=auto;html=1;" parent="1" source="bwxsFrbYJQREvJhilMGZ-3" target="66d3g6OgL1vffUzF-jd8-15" edge="1">
          <mxGeometry relative="1" as="geometry" />
        </mxCell>
        <mxCell id="bwxsFrbYJQREvJhilMGZ-3" value="Receber salário bruto&lt;div&gt;&lt;font style=&quot;color: light-dark(rgb(0, 127, 255), rgb(51, 51, 255));&quot;&gt;salBruto&lt;/font&gt;&lt;/div&gt;" style="rounded=0;whiteSpace=wrap;html=1;" parent="1" vertex="1">
          <mxGeometry x="120" y="470" width="140" height="60" as="geometry" />
        </mxCell>
        <mxCell id="66d3g6OgL1vffUzF-jd8-11" style="edgeStyle=orthogonalEdgeStyle;rounded=0;orthogonalLoop=1;jettySize=auto;html=1;" parent="1" source="bwxsFrbYJQREvJhilMGZ-4" target="66d3g6OgL1vffUzF-jd8-4" edge="1">
          <mxGeometry relative="1" as="geometry" />
        </mxCell>
        <mxCell id="bwxsFrbYJQREvJhilMGZ-4" value="Perguntar se recebe algum benefício&lt;div&gt;&lt;font style=&quot;color: rgb(0, 127, 255);&quot;&gt;benef&lt;/font&gt;&lt;/div&gt;" style="rounded=0;whiteSpace=wrap;html=1;" parent="1" vertex="1">
          <mxGeometry x="1060" y="470" width="120" height="60" as="geometry" />
        </mxCell>
        <mxCell id="66d3g6OgL1vffUzF-jd8-2" style="edgeStyle=orthogonalEdgeStyle;rounded=0;orthogonalLoop=1;jettySize=auto;html=1;exitX=0.5;exitY=0;exitDx=0;exitDy=0;" parent="1" source="66d3g6OgL1vffUzF-jd8-4" target="66d3g6OgL1vffUzF-jd8-6" edge="1">
          <mxGeometry relative="1" as="geometry" />
        </mxCell>
        <mxCell id="66d3g6OgL1vffUzF-jd8-3" style="edgeStyle=orthogonalEdgeStyle;rounded=0;orthogonalLoop=1;jettySize=auto;html=1;" parent="1" source="66d3g6OgL1vffUzF-jd8-4" target="66d3g6OgL1vffUzF-jd8-8" edge="1">
          <mxGeometry relative="1" as="geometry">
            <Array as="points">
              <mxPoint x="1300" y="580" />
            </Array>
          </mxGeometry>
        </mxCell>
        <mxCell id="66d3g6OgL1vffUzF-jd8-4" value="" style="rhombus;whiteSpace=wrap;html=1;" parent="1" vertex="1">
          <mxGeometry x="1260" y="460" width="80" height="80" as="geometry" />
        </mxCell>
        <mxCell id="66d3g6OgL1vffUzF-jd8-24" style="edgeStyle=orthogonalEdgeStyle;rounded=0;orthogonalLoop=1;jettySize=auto;html=1;" parent="1" source="66d3g6OgL1vffUzF-jd8-6" target="66d3g6OgL1vffUzF-jd8-23" edge="1">
          <mxGeometry relative="1" as="geometry">
            <Array as="points">
              <mxPoint x="2275" y="420" />
            </Array>
          </mxGeometry>
        </mxCell>
        <mxCell id="66d3g6OgL1vffUzF-jd8-6" value="&lt;font style=&quot;color: light-dark(rgb(0, 127, 255), rgb(0, 0, 255));&quot;&gt;salLiq = salProv&lt;/font&gt;" style="rounded=0;whiteSpace=wrap;html=1;" parent="1" vertex="1">
          <mxGeometry x="1450" y="380" width="170" height="80" as="geometry" />
        </mxCell>
        <mxCell id="66d3g6OgL1vffUzF-jd8-14" style="edgeStyle=orthogonalEdgeStyle;rounded=0;orthogonalLoop=1;jettySize=auto;html=1;" parent="1" source="66d3g6OgL1vffUzF-jd8-8" target="66d3g6OgL1vffUzF-jd8-13" edge="1">
          <mxGeometry relative="1" as="geometry" />
        </mxCell>
        <mxCell id="66d3g6OgL1vffUzF-jd8-8" value="Perguntar nome do beneficio&lt;div&gt;&lt;font style=&quot;color: rgb(0, 127, 255);&quot;&gt;benefNome&lt;/font&gt;&lt;/div&gt;" style="rounded=0;whiteSpace=wrap;html=1;" parent="1" vertex="1">
          <mxGeometry x="1450" y="540" width="170" height="80" as="geometry" />
        </mxCell>
        <mxCell id="66d3g6OgL1vffUzF-jd8-9" value="[ benef ==não ]" style="text;html=1;align=center;verticalAlign=middle;whiteSpace=wrap;rounded=0;" parent="1" vertex="1">
          <mxGeometry x="1310" y="390" width="90" height="30" as="geometry" />
        </mxCell>
        <mxCell id="66d3g6OgL1vffUzF-jd8-12" value="[ benef == sim ]" style="text;html=1;align=center;verticalAlign=middle;whiteSpace=wrap;rounded=0;" parent="1" vertex="1">
          <mxGeometry x="1310" y="550" width="90" height="30" as="geometry" />
        </mxCell>
        <mxCell id="tQRYgLMnkPdg6WBvj4_4-1" style="edgeStyle=orthogonalEdgeStyle;rounded=0;orthogonalLoop=1;jettySize=auto;html=1;" edge="1" parent="1" source="66d3g6OgL1vffUzF-jd8-13" target="66d3g6OgL1vffUzF-jd8-22">
          <mxGeometry relative="1" as="geometry" />
        </mxCell>
        <mxCell id="66d3g6OgL1vffUzF-jd8-13" value="Perguntar valor do beneficio&lt;div&gt;&lt;font style=&quot;color: rgb(0, 127, 255);&quot;&gt;benefValor&lt;/font&gt;&lt;/div&gt;" style="rounded=0;whiteSpace=wrap;html=1;" parent="1" vertex="1">
          <mxGeometry x="1670" y="540" width="170" height="80" as="geometry" />
        </mxCell>
        <mxCell id="66d3g6OgL1vffUzF-jd8-18" style="edgeStyle=orthogonalEdgeStyle;rounded=0;orthogonalLoop=1;jettySize=auto;html=1;" parent="1" source="66d3g6OgL1vffUzF-jd8-15" target="66d3g6OgL1vffUzF-jd8-17" edge="1">
          <mxGeometry relative="1" as="geometry" />
        </mxCell>
        <mxCell id="66d3g6OgL1vffUzF-jd8-15" value="Calcular desconto INSS&lt;div&gt;&lt;font style=&quot;color: rgb(0, 127, 255);&quot;&gt;descINSS= salBruto * 10 /100&lt;/font&gt;&lt;/div&gt;" style="rounded=0;whiteSpace=wrap;html=1;" parent="1" vertex="1">
          <mxGeometry x="310" y="470" width="180" height="60" as="geometry" />
        </mxCell>
        <mxCell id="66d3g6OgL1vffUzF-jd8-21" style="edgeStyle=orthogonalEdgeStyle;rounded=0;orthogonalLoop=1;jettySize=auto;html=1;" parent="1" source="66d3g6OgL1vffUzF-jd8-17" target="66d3g6OgL1vffUzF-jd8-19" edge="1">
          <mxGeometry relative="1" as="geometry" />
        </mxCell>
        <mxCell id="66d3g6OgL1vffUzF-jd8-17" value="Calcular desconto INSS&lt;div&gt;&lt;font style=&quot;color: rgb(0, 127, 255);&quot;&gt;descIR= salBruto * 20 /100&lt;/font&gt;&lt;/div&gt;" style="rounded=0;whiteSpace=wrap;html=1;" parent="1" vertex="1">
          <mxGeometry x="540" y="470" width="180" height="60" as="geometry" />
        </mxCell>
        <mxCell id="66d3g6OgL1vffUzF-jd8-20" style="edgeStyle=orthogonalEdgeStyle;rounded=0;orthogonalLoop=1;jettySize=auto;html=1;" parent="1" source="66d3g6OgL1vffUzF-jd8-19" target="bwxsFrbYJQREvJhilMGZ-4" edge="1">
          <mxGeometry relative="1" as="geometry" />
        </mxCell>
        <mxCell id="66d3g6OgL1vffUzF-jd8-19" value="Subtrair descontos do salário bruto&lt;div&gt;&lt;font color=&quot;#007fff&quot;&gt;salProv = salBruto - descINSS - descIR&lt;/font&gt;&lt;/div&gt;" style="rounded=0;whiteSpace=wrap;html=1;" parent="1" vertex="1">
          <mxGeometry x="770" y="470" width="240" height="60" as="geometry" />
        </mxCell>
        <mxCell id="66d3g6OgL1vffUzF-jd8-25" style="edgeStyle=orthogonalEdgeStyle;rounded=0;orthogonalLoop=1;jettySize=auto;html=1;" parent="1" source="66d3g6OgL1vffUzF-jd8-22" target="66d3g6OgL1vffUzF-jd8-23" edge="1">
          <mxGeometry relative="1" as="geometry">
            <Array as="points">
              <mxPoint x="2275" y="580" />
            </Array>
          </mxGeometry>
        </mxCell>
        <mxCell id="66d3g6OgL1vffUzF-jd8-22" value="Calcular o salário líquido&lt;div&gt;&lt;font style=&quot;color: rgb(0, 127, 255);&quot;&gt;salLiq = salProv + benefValor&lt;/font&gt;&lt;/div&gt;" style="rounded=0;whiteSpace=wrap;html=1;" parent="1" vertex="1">
          <mxGeometry x="1890" y="540" width="180" height="80" as="geometry" />
        </mxCell>
        <mxCell id="9Ku5bl2Jm4S0Wt4gzrUX-2" style="edgeStyle=orthogonalEdgeStyle;rounded=0;orthogonalLoop=1;jettySize=auto;html=1;" parent="1" source="66d3g6OgL1vffUzF-jd8-23" target="9Ku5bl2Jm4S0Wt4gzrUX-1" edge="1">
          <mxGeometry relative="1" as="geometry" />
        </mxCell>
        <mxCell id="66d3g6OgL1vffUzF-jd8-23" value="&lt;div&gt;Exibir salário líquido&lt;/div&gt;&lt;font style=&quot;color: light-dark(rgb(0, 127, 255), rgb(0, 0, 255));&quot;&gt;salLiq&lt;/font&gt;" style="rounded=0;whiteSpace=wrap;html=1;" parent="1" vertex="1">
          <mxGeometry x="2190" y="460" width="170" height="80" as="geometry" />
        </mxCell>
        <mxCell id="9Ku5bl2Jm4S0Wt4gzrUX-1" value="" style="ellipse;whiteSpace=wrap;html=1;aspect=fixed;fillColor=light-dark(#A20025,#FF0000);strokeColor=light-dark(#6F0000,#FF6868);fontColor=#ffffff;" parent="1" vertex="1">
          <mxGeometry x="2441" y="480" width="40" height="40" as="geometry" />
        </mxCell>
      </root>
    </mxGraphModel>
  </diagram>
  <diagram name="Página-9" id="Cojvk0ltT_quyo8h_Deq">
    <mxGraphModel dx="978" dy="581" grid="1" gridSize="10" guides="1" tooltips="1" connect="1" arrows="1" fold="1" page="1" pageScale="1" pageWidth="827" pageHeight="1169" math="0" shadow="0">
      <root>
        <mxCell id="0" />
        <mxCell id="1" parent="0" />
        <mxCell id="o_LgWed2lzwaBHaFmn4w-1" style="edgeStyle=orthogonalEdgeStyle;rounded=0;orthogonalLoop=1;jettySize=auto;html=1;entryX=0;entryY=0.5;entryDx=0;entryDy=0;" parent="1" source="o_LgWed2lzwaBHaFmn4w-2" target="o_LgWed2lzwaBHaFmn4w-3" edge="1">
          <mxGeometry relative="1" as="geometry" />
        </mxCell>
        <mxCell id="o_LgWed2lzwaBHaFmn4w-2" value="" style="ellipse;whiteSpace=wrap;html=1;aspect=fixed;fillColor=#60a917;fontColor=#ffffff;strokeColor=#2D7600;" parent="1" vertex="1">
          <mxGeometry x="40" y="340" width="40" height="40" as="geometry" />
        </mxCell>
        <mxCell id="o_LgWed2lzwaBHaFmn4w-5" style="edgeStyle=orthogonalEdgeStyle;rounded=0;orthogonalLoop=1;jettySize=auto;html=1;" parent="1" source="o_LgWed2lzwaBHaFmn4w-3" target="o_LgWed2lzwaBHaFmn4w-4" edge="1">
          <mxGeometry relative="1" as="geometry" />
        </mxCell>
        <mxCell id="o_LgWed2lzwaBHaFmn4w-3" value="Receber o primeiro fator&lt;div&gt;&lt;font style=&quot;color: light-dark(rgb(0, 127, 255), rgb(51, 51, 255));&quot;&gt;fator1&lt;/font&gt;&lt;/div&gt;" style="rounded=0;whiteSpace=wrap;html=1;" parent="1" vertex="1">
          <mxGeometry x="120" y="330" width="150" height="60" as="geometry" />
        </mxCell>
        <mxCell id="tCv5VkPYeae0sQ_VGIUC-2" style="edgeStyle=orthogonalEdgeStyle;rounded=0;orthogonalLoop=1;jettySize=auto;html=1;" parent="1" source="o_LgWed2lzwaBHaFmn4w-4" target="o_LgWed2lzwaBHaFmn4w-14" edge="1">
          <mxGeometry relative="1" as="geometry" />
        </mxCell>
        <mxCell id="o_LgWed2lzwaBHaFmn4w-4" value="Receber o segundofator&lt;div&gt;&lt;font style=&quot;color: light-dark(rgb(0, 127, 255), rgb(51, 51, 255));&quot;&gt;fator2&lt;/font&gt;&lt;/div&gt;" style="rounded=0;whiteSpace=wrap;html=1;" parent="1" vertex="1">
          <mxGeometry x="320" y="330" width="150" height="60" as="geometry" />
        </mxCell>
        <mxCell id="o_LgWed2lzwaBHaFmn4w-16" style="edgeStyle=orthogonalEdgeStyle;rounded=0;orthogonalLoop=1;jettySize=auto;html=1;" parent="1" source="o_LgWed2lzwaBHaFmn4w-6" target="o_LgWed2lzwaBHaFmn4w-11" edge="1">
          <mxGeometry relative="1" as="geometry">
            <Array as="points">
              <mxPoint x="1090" y="480" />
            </Array>
          </mxGeometry>
        </mxCell>
        <mxCell id="tCv5VkPYeae0sQ_VGIUC-4" style="edgeStyle=orthogonalEdgeStyle;rounded=0;orthogonalLoop=1;jettySize=auto;html=1;" parent="1" source="o_LgWed2lzwaBHaFmn4w-6" target="tCv5VkPYeae0sQ_VGIUC-1" edge="1">
          <mxGeometry relative="1" as="geometry">
            <Array as="points">
              <mxPoint x="1090" y="210" />
            </Array>
          </mxGeometry>
        </mxCell>
        <mxCell id="o_LgWed2lzwaBHaFmn4w-6" value="" style="rhombus;whiteSpace=wrap;html=1;" parent="1" vertex="1">
          <mxGeometry x="1050" y="320" width="80" height="80" as="geometry" />
        </mxCell>
        <mxCell id="o_LgWed2lzwaBHaFmn4w-7" value="[ fator2 == cont ]" style="text;html=1;align=center;verticalAlign=middle;whiteSpace=wrap;rounded=0;" parent="1" vertex="1">
          <mxGeometry x="1101" y="450" width="99" height="30" as="geometry" />
        </mxCell>
        <mxCell id="9lNFu6TASspy2gOJKJV8-2" style="edgeStyle=orthogonalEdgeStyle;rounded=0;orthogonalLoop=1;jettySize=auto;html=1;" parent="1" source="o_LgWed2lzwaBHaFmn4w-11" target="9lNFu6TASspy2gOJKJV8-1" edge="1">
          <mxGeometry relative="1" as="geometry" />
        </mxCell>
        <mxCell id="o_LgWed2lzwaBHaFmn4w-11" value="Exibir resultado&lt;div&gt;&lt;font style=&quot;color: rgb(0, 127, 255);&quot;&gt;res&lt;/font&gt;&lt;/div&gt;" style="whiteSpace=wrap;html=1;" parent="1" vertex="1">
          <mxGeometry x="1210" y="450" width="120" height="60" as="geometry" />
        </mxCell>
        <mxCell id="tCv5VkPYeae0sQ_VGIUC-3" style="edgeStyle=orthogonalEdgeStyle;rounded=0;orthogonalLoop=1;jettySize=auto;html=1;" parent="1" source="o_LgWed2lzwaBHaFmn4w-14" target="sgCFdKb4uadYSM-VTWc4-1" edge="1">
          <mxGeometry relative="1" as="geometry" />
        </mxCell>
        <mxCell id="o_LgWed2lzwaBHaFmn4w-14" value="Declarar resposta&lt;br&gt;&lt;div&gt;&lt;font style=&quot;color: rgb(0, 127, 255);&quot;&gt;res = fator1&lt;/font&gt;&lt;/div&gt;" style="rounded=0;whiteSpace=wrap;html=1;" parent="1" vertex="1">
          <mxGeometry x="520" y="330" width="120" height="60" as="geometry" />
        </mxCell>
        <mxCell id="tCv5VkPYeae0sQ_VGIUC-6" style="edgeStyle=orthogonalEdgeStyle;rounded=0;orthogonalLoop=1;jettySize=auto;html=1;" parent="1" source="o_LgWed2lzwaBHaFmn4w-15" target="sgCFdKb4uadYSM-VTWc4-1" edge="1">
          <mxGeometry relative="1" as="geometry">
            <Array as="points">
              <mxPoint x="750" y="210" />
            </Array>
          </mxGeometry>
        </mxCell>
        <mxCell id="o_LgWed2lzwaBHaFmn4w-15" value="Calcular resultado&lt;br&gt;&lt;div&gt;&lt;font style=&quot;color: rgb(0, 127, 255);&quot;&gt;res = res + fator1&lt;/font&gt;&lt;/div&gt;" style="rounded=0;whiteSpace=wrap;html=1;" parent="1" vertex="1">
          <mxGeometry x="770" y="180" width="120" height="60" as="geometry" />
        </mxCell>
        <mxCell id="o_LgWed2lzwaBHaFmn4w-21" value="[ fator2 != cont ]" style="text;html=1;align=center;verticalAlign=middle;whiteSpace=wrap;rounded=0;" parent="1" vertex="1">
          <mxGeometry x="1101" y="300" width="89" height="30" as="geometry" />
        </mxCell>
        <mxCell id="9lNFu6TASspy2gOJKJV8-1" value="" style="ellipse;whiteSpace=wrap;html=1;aspect=fixed;fillColor=light-dark(#A20025,#FF0000);strokeColor=light-dark(#6F0000,#FF6868);fontColor=#ffffff;" parent="1" vertex="1">
          <mxGeometry x="1420" y="460" width="40" height="40" as="geometry" />
        </mxCell>
        <mxCell id="tCv5VkPYeae0sQ_VGIUC-7" style="edgeStyle=orthogonalEdgeStyle;rounded=0;orthogonalLoop=1;jettySize=auto;html=1;" parent="1" source="sgCFdKb4uadYSM-VTWc4-1" target="o_LgWed2lzwaBHaFmn4w-6" edge="1">
          <mxGeometry relative="1" as="geometry" />
        </mxCell>
        <mxCell id="sgCFdKb4uadYSM-VTWc4-1" value="Declarar contador&lt;br&gt;&lt;div&gt;&lt;font style=&quot;color: rgb(0, 127, 255);&quot;&gt;cont = 1&lt;/font&gt;&lt;/div&gt;" style="rounded=0;whiteSpace=wrap;html=1;" parent="1" vertex="1">
          <mxGeometry x="690" y="330" width="120" height="60" as="geometry" />
        </mxCell>
        <mxCell id="tCv5VkPYeae0sQ_VGIUC-5" style="edgeStyle=orthogonalEdgeStyle;rounded=0;orthogonalLoop=1;jettySize=auto;html=1;" parent="1" source="tCv5VkPYeae0sQ_VGIUC-1" target="o_LgWed2lzwaBHaFmn4w-15" edge="1">
          <mxGeometry relative="1" as="geometry" />
        </mxCell>
        <mxCell id="tCv5VkPYeae0sQ_VGIUC-1" value="Calcular quantidade de multiplicações&lt;div&gt;&lt;font style=&quot;color: rgb(0, 127, 255);&quot;&gt;cont = cont + 1&lt;/font&gt;&lt;/div&gt;" style="rounded=0;whiteSpace=wrap;html=1;" parent="1" vertex="1">
          <mxGeometry x="940" y="180" width="140" height="60" as="geometry" />
        </mxCell>
      </root>
    </mxGraphModel>
  </diagram>
  <diagram name="Página-10" id="YUsw4o4cNvR2dozYFVGf">
    <mxGraphModel dx="831" dy="494" grid="1" gridSize="10" guides="1" tooltips="1" connect="1" arrows="1" fold="1" page="1" pageScale="1" pageWidth="827" pageHeight="1169" math="0" shadow="0">
      <root>
        <mxCell id="0" />
        <mxCell id="1" parent="0" />
        <mxCell id="ATJ0QDzm5_bRddmfKFXH-1" style="edgeStyle=orthogonalEdgeStyle;rounded=0;orthogonalLoop=1;jettySize=auto;html=1;entryX=0;entryY=0.5;entryDx=0;entryDy=0;" parent="1" source="ATJ0QDzm5_bRddmfKFXH-2" target="ATJ0QDzm5_bRddmfKFXH-4" edge="1">
          <mxGeometry relative="1" as="geometry" />
        </mxCell>
        <mxCell id="ATJ0QDzm5_bRddmfKFXH-2" value="" style="ellipse;whiteSpace=wrap;html=1;aspect=fixed;fillColor=#60a917;fontColor=#ffffff;strokeColor=#2D7600;" parent="1" vertex="1">
          <mxGeometry x="50" y="440" width="40" height="40" as="geometry" />
        </mxCell>
        <mxCell id="ATJ0QDzm5_bRddmfKFXH-3" style="edgeStyle=orthogonalEdgeStyle;rounded=0;orthogonalLoop=1;jettySize=auto;html=1;" parent="1" source="ATJ0QDzm5_bRddmfKFXH-4" target="ATJ0QDzm5_bRddmfKFXH-5" edge="1">
          <mxGeometry relative="1" as="geometry" />
        </mxCell>
        <mxCell id="ATJ0QDzm5_bRddmfKFXH-4" value="Receber o dividendo&lt;div&gt;&lt;font style=&quot;color: light-dark(rgb(0, 127, 255), rgb(51, 51, 255));&quot;&gt;dendo&lt;/font&gt;&lt;/div&gt;" style="rounded=0;whiteSpace=wrap;html=1;" parent="1" vertex="1">
          <mxGeometry x="130" y="430" width="150" height="60" as="geometry" />
        </mxCell>
        <mxCell id="422LjyxLcobEYMMqPO-g-1" style="edgeStyle=orthogonalEdgeStyle;rounded=0;orthogonalLoop=1;jettySize=auto;html=1;" parent="1" source="ATJ0QDzm5_bRddmfKFXH-5" target="Miv45MzIJ8LbkUY--o5n-10" edge="1">
          <mxGeometry relative="1" as="geometry" />
        </mxCell>
        <mxCell id="ATJ0QDzm5_bRddmfKFXH-5" value="Receber o divisor&lt;div&gt;&lt;font color=&quot;#007fff&quot;&gt;sor&lt;/font&gt;&lt;/div&gt;" style="rounded=0;whiteSpace=wrap;html=1;" parent="1" vertex="1">
          <mxGeometry x="330" y="430" width="150" height="60" as="geometry" />
        </mxCell>
        <mxCell id="zZg3Ztmz7RKIwGBiqq-L-1" style="edgeStyle=orthogonalEdgeStyle;rounded=0;orthogonalLoop=1;jettySize=auto;html=1;" parent="1" source="zZg3Ztmz7RKIwGBiqq-L-3" target="zZg3Ztmz7RKIwGBiqq-L-5" edge="1">
          <mxGeometry relative="1" as="geometry">
            <Array as="points">
              <mxPoint x="940" y="580" />
            </Array>
          </mxGeometry>
        </mxCell>
        <mxCell id="Miv45MzIJ8LbkUY--o5n-15" style="edgeStyle=orthogonalEdgeStyle;rounded=0;orthogonalLoop=1;jettySize=auto;html=1;" parent="1" source="zZg3Ztmz7RKIwGBiqq-L-3" target="Miv45MzIJ8LbkUY--o5n-5" edge="1">
          <mxGeometry relative="1" as="geometry">
            <Array as="points">
              <mxPoint x="940" y="300" />
            </Array>
          </mxGeometry>
        </mxCell>
        <mxCell id="zZg3Ztmz7RKIwGBiqq-L-3" value="" style="rhombus;whiteSpace=wrap;html=1;" parent="1" vertex="1">
          <mxGeometry x="900" y="420" width="80" height="80" as="geometry" />
        </mxCell>
        <mxCell id="zZg3Ztmz7RKIwGBiqq-L-4" value="[ dendo &amp;lt; sor ]" style="text;html=1;align=center;verticalAlign=middle;whiteSpace=wrap;rounded=0;" parent="1" vertex="1">
          <mxGeometry x="951" y="550" width="80" height="30" as="geometry" />
        </mxCell>
        <mxCell id="xLtn4VmAmIMKZVZk9Ylc-2" style="edgeStyle=orthogonalEdgeStyle;rounded=0;orthogonalLoop=1;jettySize=auto;html=1;" parent="1" source="zZg3Ztmz7RKIwGBiqq-L-5" target="zZg3Ztmz7RKIwGBiqq-L-14" edge="1">
          <mxGeometry relative="1" as="geometry" />
        </mxCell>
        <mxCell id="zZg3Ztmz7RKIwGBiqq-L-5" value="Exibir resultado&lt;div&gt;&lt;font style=&quot;color: rgb(0, 127, 255);&quot;&gt;cont&lt;/font&gt;&lt;/div&gt;" style="whiteSpace=wrap;html=1;" parent="1" vertex="1">
          <mxGeometry x="1060" y="550" width="120" height="60" as="geometry" />
        </mxCell>
        <mxCell id="Miv45MzIJ8LbkUY--o5n-14" style="edgeStyle=orthogonalEdgeStyle;rounded=0;orthogonalLoop=1;jettySize=auto;html=1;entryX=0;entryY=0.5;entryDx=0;entryDy=0;" parent="1" source="zZg3Ztmz7RKIwGBiqq-L-11" target="zZg3Ztmz7RKIwGBiqq-L-3" edge="1">
          <mxGeometry relative="1" as="geometry" />
        </mxCell>
        <mxCell id="zZg3Ztmz7RKIwGBiqq-L-11" value="Calcular resultado&lt;br&gt;&lt;div&gt;&lt;font style=&quot;color: rgb(0, 127, 255);&quot;&gt;dendo = dendo - sor&lt;/font&gt;&lt;/div&gt;" style="rounded=0;whiteSpace=wrap;html=1;" parent="1" vertex="1">
          <mxGeometry x="700" y="430" width="120" height="60" as="geometry" />
        </mxCell>
        <mxCell id="zZg3Ztmz7RKIwGBiqq-L-12" value="[ dendo &amp;gt;= sor ]" style="text;html=1;align=center;verticalAlign=middle;whiteSpace=wrap;rounded=0;" parent="1" vertex="1">
          <mxGeometry x="941" y="400" width="90" height="30" as="geometry" />
        </mxCell>
        <mxCell id="Miv45MzIJ8LbkUY--o5n-3" style="edgeStyle=orthogonalEdgeStyle;rounded=0;orthogonalLoop=1;jettySize=auto;html=1;entryX=0.5;entryY=1;entryDx=0;entryDy=0;" parent="1" source="zZg3Ztmz7RKIwGBiqq-L-14" target="ATJ0QDzm5_bRddmfKFXH-4" edge="1">
          <mxGeometry relative="1" as="geometry">
            <Array as="points">
              <mxPoint x="1300" y="670" />
              <mxPoint x="205" y="670" />
            </Array>
          </mxGeometry>
        </mxCell>
        <mxCell id="zZg3Ztmz7RKIwGBiqq-L-14" value="Exibir resto&lt;div&gt;&lt;font style=&quot;color: rgb(0, 127, 255);&quot;&gt;dendo&lt;/font&gt;&lt;/div&gt;" style="whiteSpace=wrap;html=1;" parent="1" vertex="1">
          <mxGeometry x="1230" y="550" width="140" height="60" as="geometry" />
        </mxCell>
        <mxCell id="Miv45MzIJ8LbkUY--o5n-16" style="edgeStyle=orthogonalEdgeStyle;rounded=0;orthogonalLoop=1;jettySize=auto;html=1;" parent="1" source="Miv45MzIJ8LbkUY--o5n-5" target="zZg3Ztmz7RKIwGBiqq-L-11" edge="1">
          <mxGeometry relative="1" as="geometry">
            <Array as="points">
              <mxPoint x="760" y="300" />
            </Array>
          </mxGeometry>
        </mxCell>
        <mxCell id="Miv45MzIJ8LbkUY--o5n-5" value="Calcular quociente&lt;div&gt;&lt;font style=&quot;color: rgb(0, 127, 255);&quot;&gt;cont = cont + 1&lt;/font&gt;&lt;/div&gt;" style="rounded=0;whiteSpace=wrap;html=1;" parent="1" vertex="1">
          <mxGeometry x="790" y="270" width="120" height="60" as="geometry" />
        </mxCell>
        <mxCell id="Miv45MzIJ8LbkUY--o5n-12" style="edgeStyle=orthogonalEdgeStyle;rounded=0;orthogonalLoop=1;jettySize=auto;html=1;" parent="1" source="Miv45MzIJ8LbkUY--o5n-10" target="zZg3Ztmz7RKIwGBiqq-L-11" edge="1">
          <mxGeometry relative="1" as="geometry" />
        </mxCell>
        <mxCell id="Miv45MzIJ8LbkUY--o5n-10" value="Declarar quociente&lt;div&gt;&lt;font style=&quot;color: rgb(0, 127, 255);&quot;&gt;cont = 0&lt;/font&gt;&lt;/div&gt;" style="rounded=0;whiteSpace=wrap;html=1;" parent="1" vertex="1">
          <mxGeometry x="530" y="430" width="120" height="60" as="geometry" />
        </mxCell>
      </root>
    </mxGraphModel>
  </diagram>
  <diagram name="Página-11" id="gdN4B70xVT0Ck8UJQ6E8">
    <mxGraphModel dx="831" dy="494" grid="1" gridSize="10" guides="1" tooltips="1" connect="1" arrows="1" fold="1" page="1" pageScale="1" pageWidth="827" pageHeight="1169" math="0" shadow="0">
      <root>
        <mxCell id="0" />
        <mxCell id="1" parent="0" />
        <mxCell id="wNd5uUSMvJvqE6nw08YI-1" style="edgeStyle=orthogonalEdgeStyle;rounded=0;orthogonalLoop=1;jettySize=auto;html=1;entryX=0;entryY=0.5;entryDx=0;entryDy=0;" edge="1" parent="1" source="wNd5uUSMvJvqE6nw08YI-2" target="wNd5uUSMvJvqE6nw08YI-5">
          <mxGeometry relative="1" as="geometry" />
        </mxCell>
        <mxCell id="wNd5uUSMvJvqE6nw08YI-2" value="" style="ellipse;whiteSpace=wrap;html=1;aspect=fixed;fillColor=#60a917;fontColor=#ffffff;strokeColor=#2D7600;" vertex="1" parent="1">
          <mxGeometry x="570" y="660" width="40" height="40" as="geometry" />
        </mxCell>
        <mxCell id="wNd5uUSMvJvqE6nw08YI-3" value="" style="ellipse;whiteSpace=wrap;html=1;aspect=fixed;fillColor=light-dark(#A20025,#FF0000);strokeColor=light-dark(#6F0000,#FF6868);fontColor=#ffffff;" vertex="1" parent="1">
          <mxGeometry x="1430" y="665" width="40" height="40" as="geometry" />
        </mxCell>
        <mxCell id="wNd5uUSMvJvqE6nw08YI-4" style="edgeStyle=orthogonalEdgeStyle;rounded=0;orthogonalLoop=1;jettySize=auto;html=1;" edge="1" parent="1" source="wNd5uUSMvJvqE6nw08YI-5" target="wNd5uUSMvJvqE6nw08YI-10">
          <mxGeometry relative="1" as="geometry" />
        </mxCell>
        <mxCell id="wNd5uUSMvJvqE6nw08YI-5" value="Receber renda familiar&lt;div&gt;&lt;font color=&quot;#007fff&quot;&gt;renda&lt;/font&gt;&lt;/div&gt;" style="rounded=0;whiteSpace=wrap;html=1;" vertex="1" parent="1">
          <mxGeometry x="650" y="650" width="120" height="60" as="geometry" />
        </mxCell>
        <mxCell id="wNd5uUSMvJvqE6nw08YI-6" style="edgeStyle=orthogonalEdgeStyle;rounded=0;orthogonalLoop=1;jettySize=auto;html=1;exitX=0.5;exitY=0;exitDx=0;exitDy=0;" edge="1" parent="1" source="wNd5uUSMvJvqE6nw08YI-10" target="wNd5uUSMvJvqE6nw08YI-12">
          <mxGeometry relative="1" as="geometry">
            <Array as="points">
              <mxPoint x="890" y="595" />
            </Array>
          </mxGeometry>
        </mxCell>
        <mxCell id="wNd5uUSMvJvqE6nw08YI-8" style="edgeStyle=orthogonalEdgeStyle;rounded=0;orthogonalLoop=1;jettySize=auto;html=1;" edge="1" parent="1" source="wNd5uUSMvJvqE6nw08YI-10" target="wNd5uUSMvJvqE6nw08YI-16">
          <mxGeometry relative="1" as="geometry">
            <Array as="points">
              <mxPoint x="890" y="450" />
            </Array>
          </mxGeometry>
        </mxCell>
        <mxCell id="wNd5uUSMvJvqE6nw08YI-25" style="edgeStyle=orthogonalEdgeStyle;rounded=0;orthogonalLoop=1;jettySize=auto;html=1;entryX=0;entryY=0.5;entryDx=0;entryDy=0;" edge="1" parent="1" source="wNd5uUSMvJvqE6nw08YI-10" target="wNd5uUSMvJvqE6nw08YI-14">
          <mxGeometry relative="1" as="geometry">
            <Array as="points">
              <mxPoint x="890" y="755" />
            </Array>
          </mxGeometry>
        </mxCell>
        <mxCell id="wNd5uUSMvJvqE6nw08YI-26" style="edgeStyle=orthogonalEdgeStyle;rounded=0;orthogonalLoop=1;jettySize=auto;html=1;" edge="1" parent="1" source="wNd5uUSMvJvqE6nw08YI-10" target="wNd5uUSMvJvqE6nw08YI-18">
          <mxGeometry relative="1" as="geometry">
            <Array as="points">
              <mxPoint x="890" y="915" />
            </Array>
          </mxGeometry>
        </mxCell>
        <mxCell id="wNd5uUSMvJvqE6nw08YI-29" style="edgeStyle=orthogonalEdgeStyle;rounded=0;orthogonalLoop=1;jettySize=auto;html=1;" edge="1" parent="1" source="wNd5uUSMvJvqE6nw08YI-10" target="wNd5uUSMvJvqE6nw08YI-27">
          <mxGeometry relative="1" as="geometry">
            <Array as="points">
              <mxPoint x="890" y="310" />
            </Array>
          </mxGeometry>
        </mxCell>
        <mxCell id="wNd5uUSMvJvqE6nw08YI-35" style="edgeStyle=orthogonalEdgeStyle;rounded=0;orthogonalLoop=1;jettySize=auto;html=1;" edge="1" parent="1" source="wNd5uUSMvJvqE6nw08YI-10" target="wNd5uUSMvJvqE6nw08YI-33">
          <mxGeometry relative="1" as="geometry">
            <Array as="points">
              <mxPoint x="890" y="1070" />
            </Array>
          </mxGeometry>
        </mxCell>
        <mxCell id="wNd5uUSMvJvqE6nw08YI-10" value="" style="rhombus;whiteSpace=wrap;html=1;" vertex="1" parent="1">
          <mxGeometry x="850" y="640" width="80" height="80" as="geometry" />
        </mxCell>
        <mxCell id="wNd5uUSMvJvqE6nw08YI-11" style="edgeStyle=orthogonalEdgeStyle;rounded=0;orthogonalLoop=1;jettySize=auto;html=1;exitX=1;exitY=0.5;exitDx=0;exitDy=0;" edge="1" parent="1" source="wNd5uUSMvJvqE6nw08YI-12" target="wNd5uUSMvJvqE6nw08YI-3">
          <mxGeometry relative="1" as="geometry" />
        </mxCell>
        <mxCell id="wNd5uUSMvJvqE6nw08YI-12" value="Exibir&amp;nbsp;&lt;div&gt;&lt;span style=&quot;color: rgb(0, 127, 255);&quot;&gt;&quot;Faixa Amarela&quot;&lt;/span&gt;&lt;/div&gt;" style="rounded=0;whiteSpace=wrap;html=1;" vertex="1" parent="1">
          <mxGeometry x="1140" y="555" width="170" height="80" as="geometry" />
        </mxCell>
        <mxCell id="wNd5uUSMvJvqE6nw08YI-13" style="edgeStyle=orthogonalEdgeStyle;rounded=0;orthogonalLoop=1;jettySize=auto;html=1;" edge="1" parent="1" source="wNd5uUSMvJvqE6nw08YI-14" target="wNd5uUSMvJvqE6nw08YI-3">
          <mxGeometry relative="1" as="geometry" />
        </mxCell>
        <mxCell id="wNd5uUSMvJvqE6nw08YI-14" value="Exibir&lt;div&gt;&lt;font style=&quot;color: light-dark(rgb(0, 127, 255), rgb(0, 0, 255));&quot;&gt;&quot;Faixa Verde Claro&quot;&lt;/font&gt;&lt;/div&gt;" style="rounded=0;whiteSpace=wrap;html=1;" vertex="1" parent="1">
          <mxGeometry x="1140" y="715" width="170" height="80" as="geometry" />
        </mxCell>
        <mxCell id="wNd5uUSMvJvqE6nw08YI-15" style="edgeStyle=orthogonalEdgeStyle;rounded=0;orthogonalLoop=1;jettySize=auto;html=1;" edge="1" parent="1" source="wNd5uUSMvJvqE6nw08YI-16" target="wNd5uUSMvJvqE6nw08YI-3">
          <mxGeometry relative="1" as="geometry" />
        </mxCell>
        <mxCell id="wNd5uUSMvJvqE6nw08YI-16" value="Exibir&amp;nbsp;&lt;div&gt;&lt;span style=&quot;color: rgb(0, 127, 255);&quot;&gt;&quot;Faixa Vermelha&quot;&lt;/span&gt;&lt;/div&gt;" style="rounded=0;whiteSpace=wrap;html=1;" vertex="1" parent="1">
          <mxGeometry x="1140" y="405" width="170" height="80" as="geometry" />
        </mxCell>
        <mxCell id="wNd5uUSMvJvqE6nw08YI-17" style="edgeStyle=orthogonalEdgeStyle;rounded=0;orthogonalLoop=1;jettySize=auto;html=1;" edge="1" parent="1" source="wNd5uUSMvJvqE6nw08YI-18" target="wNd5uUSMvJvqE6nw08YI-3">
          <mxGeometry relative="1" as="geometry" />
        </mxCell>
        <mxCell id="wNd5uUSMvJvqE6nw08YI-18" value="Exibir&amp;nbsp;&lt;div&gt;&lt;font style=&quot;color: light-dark(rgb(0, 127, 255), rgb(0, 0, 255));&quot;&gt;&quot;Faixa Verde&quot;&lt;/font&gt;&lt;/div&gt;" style="rounded=0;whiteSpace=wrap;html=1;" vertex="1" parent="1">
          <mxGeometry x="1140" y="875" width="170" height="80" as="geometry" />
        </mxCell>
        <mxCell id="wNd5uUSMvJvqE6nw08YI-20" value="[ renda &amp;gt;= 1356 &amp;amp;&amp;amp; renda &amp;lt; 2034 ]" style="text;html=1;align=center;verticalAlign=middle;whiteSpace=wrap;rounded=0;" vertex="1" parent="1">
          <mxGeometry x="890" y="420" width="195" height="30" as="geometry" />
        </mxCell>
        <mxCell id="wNd5uUSMvJvqE6nw08YI-23" value="[ renda &amp;gt;= 2034 &amp;amp;&amp;amp; renda &amp;lt; 3390 ]" style="text;html=1;align=center;verticalAlign=middle;whiteSpace=wrap;rounded=0;" vertex="1" parent="1">
          <mxGeometry x="890" y="560" width="200" height="30" as="geometry" />
        </mxCell>
        <mxCell id="wNd5uUSMvJvqE6nw08YI-32" style="edgeStyle=orthogonalEdgeStyle;rounded=0;orthogonalLoop=1;jettySize=auto;html=1;" edge="1" parent="1" source="wNd5uUSMvJvqE6nw08YI-27" target="wNd5uUSMvJvqE6nw08YI-3">
          <mxGeometry relative="1" as="geometry" />
        </mxCell>
        <mxCell id="wNd5uUSMvJvqE6nw08YI-27" value="Exibir&amp;nbsp;&lt;div&gt;&lt;font style=&quot;color: light-dark(rgb(0, 127, 255), rgb(0, 0, 255));&quot;&gt;&quot;Faixa Vermelho Escuro&quot;&lt;/font&gt;&lt;/div&gt;" style="rounded=0;whiteSpace=wrap;html=1;" vertex="1" parent="1">
          <mxGeometry x="1140" y="270" width="170" height="80" as="geometry" />
        </mxCell>
        <mxCell id="wNd5uUSMvJvqE6nw08YI-28" value="[ renda &amp;lt; 1356 ]" style="text;html=1;align=center;verticalAlign=middle;whiteSpace=wrap;rounded=0;" vertex="1" parent="1">
          <mxGeometry x="870" y="280" width="150" height="30" as="geometry" />
        </mxCell>
        <mxCell id="wNd5uUSMvJvqE6nw08YI-30" value="[ renda &amp;gt;= 3990 &amp;amp;&amp;amp; renda &amp;lt; 6780 ]" style="text;html=1;align=center;verticalAlign=middle;whiteSpace=wrap;rounded=0;" vertex="1" parent="1">
          <mxGeometry x="890" y="720" width="200" height="30" as="geometry" />
        </mxCell>
        <mxCell id="wNd5uUSMvJvqE6nw08YI-31" value="[ renda &amp;gt;= 6780 &amp;amp;&amp;amp; renda &amp;lt; 13560]" style="text;html=1;align=center;verticalAlign=middle;whiteSpace=wrap;rounded=0;" vertex="1" parent="1">
          <mxGeometry x="890" y="890" width="200" height="30" as="geometry" />
        </mxCell>
        <mxCell id="wNd5uUSMvJvqE6nw08YI-36" style="edgeStyle=orthogonalEdgeStyle;rounded=0;orthogonalLoop=1;jettySize=auto;html=1;" edge="1" parent="1" source="wNd5uUSMvJvqE6nw08YI-33" target="wNd5uUSMvJvqE6nw08YI-3">
          <mxGeometry relative="1" as="geometry" />
        </mxCell>
        <mxCell id="wNd5uUSMvJvqE6nw08YI-33" value="Exibir&amp;nbsp;&lt;div&gt;&lt;font style=&quot;color: light-dark(rgb(0, 127, 255), rgb(0, 0, 255));&quot;&gt;&quot;Faixa Azul&quot;&lt;/font&gt;&lt;/div&gt;" style="rounded=0;whiteSpace=wrap;html=1;" vertex="1" parent="1">
          <mxGeometry x="1140" y="1030" width="170" height="80" as="geometry" />
        </mxCell>
        <mxCell id="wNd5uUSMvJvqE6nw08YI-34" value="[ renda &amp;gt;= 13560 &amp;amp;&amp;amp; renda &amp;lt; 33900]" style="text;html=1;align=center;verticalAlign=middle;whiteSpace=wrap;rounded=0;" vertex="1" parent="1">
          <mxGeometry x="894" y="1045" width="200" height="30" as="geometry" />
        </mxCell>
      </root>
    </mxGraphModel>
  </diagram>
  <diagram name="Página-12" id="HyvKGJZmyfLAnN4lhLUL">
    <mxGraphModel dx="1187" dy="706" grid="1" gridSize="10" guides="1" tooltips="1" connect="1" arrows="1" fold="1" page="1" pageScale="1" pageWidth="827" pageHeight="1169" math="0" shadow="0">
      <root>
        <mxCell id="0" />
        <mxCell id="1" parent="0" />
        <mxCell id="zJ6jGJWwtYiIv1zfAybr-1" style="edgeStyle=orthogonalEdgeStyle;rounded=0;orthogonalLoop=1;jettySize=auto;html=1;entryX=0;entryY=0.5;entryDx=0;entryDy=0;" edge="1" parent="1" source="zJ6jGJWwtYiIv1zfAybr-2" target="zJ6jGJWwtYiIv1zfAybr-3">
          <mxGeometry relative="1" as="geometry" />
        </mxCell>
        <mxCell id="zJ6jGJWwtYiIv1zfAybr-2" value="" style="ellipse;whiteSpace=wrap;html=1;aspect=fixed;fillColor=#60a917;fontColor=#ffffff;strokeColor=#2D7600;" vertex="1" parent="1">
          <mxGeometry x="130" y="200" width="40" height="40" as="geometry" />
        </mxCell>
        <mxCell id="zJ6jGJWwtYiIv1zfAybr-5" style="edgeStyle=orthogonalEdgeStyle;rounded=0;orthogonalLoop=1;jettySize=auto;html=1;" edge="1" parent="1" source="zJ6jGJWwtYiIv1zfAybr-3" target="zJ6jGJWwtYiIv1zfAybr-4">
          <mxGeometry relative="1" as="geometry" />
        </mxCell>
        <mxCell id="zJ6jGJWwtYiIv1zfAybr-3" value="Receber valor da mercadoria&lt;div&gt;&lt;font color=&quot;#007fff&quot;&gt;valor&lt;/font&gt;&lt;/div&gt;" style="rounded=0;whiteSpace=wrap;html=1;" vertex="1" parent="1">
          <mxGeometry x="210" y="190" width="120" height="60" as="geometry" />
        </mxCell>
        <mxCell id="zJ6jGJWwtYiIv1zfAybr-6" style="edgeStyle=orthogonalEdgeStyle;rounded=0;orthogonalLoop=1;jettySize=auto;html=1;" edge="1" parent="1" source="zJ6jGJWwtYiIv1zfAybr-4" target="zJ6jGJWwtYiIv1zfAybr-3">
          <mxGeometry relative="1" as="geometry">
            <Array as="points">
              <mxPoint x="440" y="110" />
              <mxPoint x="270" y="110" />
            </Array>
          </mxGeometry>
        </mxCell>
        <mxCell id="XQSnoZkigZ12Or-rqKZl-2" value="" style="edgeStyle=orthogonalEdgeStyle;rounded=0;orthogonalLoop=1;jettySize=auto;html=1;" edge="1" parent="1" source="zJ6jGJWwtYiIv1zfAybr-4" target="XQSnoZkigZ12Or-rqKZl-1">
          <mxGeometry relative="1" as="geometry" />
        </mxCell>
        <mxCell id="zJ6jGJWwtYiIv1zfAybr-4" value="" style="rhombus;whiteSpace=wrap;html=1;" vertex="1" parent="1">
          <mxGeometry x="400" y="180" width="80" height="80" as="geometry" />
        </mxCell>
        <mxCell id="tMhb3N6rmvKnFvInU_O7-1" value="[ valor &amp;lt;= 0 ]" style="text;html=1;align=center;verticalAlign=middle;whiteSpace=wrap;rounded=0;" vertex="1" parent="1">
          <mxGeometry x="320" y="80" width="150" height="30" as="geometry" />
        </mxCell>
        <mxCell id="eveShrzKlXvvysGxQ54u-2" style="edgeStyle=orthogonalEdgeStyle;rounded=0;orthogonalLoop=1;jettySize=auto;html=1;" edge="1" parent="1" source="XQSnoZkigZ12Or-rqKZl-1" target="eveShrzKlXvvysGxQ54u-1">
          <mxGeometry relative="1" as="geometry" />
        </mxCell>
        <mxCell id="XQSnoZkigZ12Or-rqKZl-1" value="Receber quantidade de mercadoria comprada&lt;div&gt;&lt;font style=&quot;color: rgb(0, 127, 255);&quot;&gt;qtdMerc&lt;/font&gt;&lt;/div&gt;" style="whiteSpace=wrap;html=1;" vertex="1" parent="1">
          <mxGeometry x="590" y="190" width="190" height="60" as="geometry" />
        </mxCell>
        <mxCell id="WJii48WO536qwmqjHJSQ-1" value="[ valor &amp;gt; 0 ]" style="text;html=1;align=center;verticalAlign=middle;whiteSpace=wrap;rounded=0;" vertex="1" parent="1">
          <mxGeometry x="440" y="190" width="150" height="30" as="geometry" />
        </mxCell>
        <mxCell id="eveShrzKlXvvysGxQ54u-3" style="edgeStyle=orthogonalEdgeStyle;rounded=0;orthogonalLoop=1;jettySize=auto;html=1;" edge="1" parent="1" source="eveShrzKlXvvysGxQ54u-1" target="XQSnoZkigZ12Or-rqKZl-1">
          <mxGeometry relative="1" as="geometry">
            <Array as="points">
              <mxPoint x="900" y="110" />
              <mxPoint x="685" y="110" />
            </Array>
          </mxGeometry>
        </mxCell>
        <mxCell id="eveShrzKlXvvysGxQ54u-6" style="edgeStyle=orthogonalEdgeStyle;rounded=0;orthogonalLoop=1;jettySize=auto;html=1;" edge="1" parent="1" source="eveShrzKlXvvysGxQ54u-1" target="eveShrzKlXvvysGxQ54u-5">
          <mxGeometry relative="1" as="geometry" />
        </mxCell>
        <mxCell id="eveShrzKlXvvysGxQ54u-1" value="" style="rhombus;whiteSpace=wrap;html=1;" vertex="1" parent="1">
          <mxGeometry x="860" y="180" width="80" height="80" as="geometry" />
        </mxCell>
        <mxCell id="eveShrzKlXvvysGxQ54u-4" value="[ valor &amp;lt;= 0 ]" style="text;html=1;align=center;verticalAlign=middle;whiteSpace=wrap;rounded=0;" vertex="1" parent="1">
          <mxGeometry x="780" y="80" width="150" height="30" as="geometry" />
        </mxCell>
        <mxCell id="-Z4q09TtzTRHNNUuTdD9-11" style="edgeStyle=orthogonalEdgeStyle;rounded=0;orthogonalLoop=1;jettySize=auto;html=1;" edge="1" parent="1" source="eveShrzKlXvvysGxQ54u-5" target="-Z4q09TtzTRHNNUuTdD9-7">
          <mxGeometry relative="1" as="geometry" />
        </mxCell>
        <mxCell id="eveShrzKlXvvysGxQ54u-5" value="Receber valor em dinheiro do comprador&lt;div&gt;&lt;font style=&quot;color: rgb(0, 127, 255);&quot;&gt;valorCom&lt;/font&gt;&lt;/div&gt;" style="whiteSpace=wrap;html=1;" vertex="1" parent="1">
          <mxGeometry x="1051" y="190" width="190" height="60" as="geometry" />
        </mxCell>
        <mxCell id="eveShrzKlXvvysGxQ54u-7" value="[ valor &amp;gt; 0 ]" style="text;html=1;align=center;verticalAlign=middle;whiteSpace=wrap;rounded=0;" vertex="1" parent="1">
          <mxGeometry x="901" y="190" width="150" height="30" as="geometry" />
        </mxCell>
        <mxCell id="-Z4q09TtzTRHNNUuTdD9-6" style="edgeStyle=orthogonalEdgeStyle;rounded=0;orthogonalLoop=1;jettySize=auto;html=1;" edge="1" parent="1" source="-Z4q09TtzTRHNNUuTdD9-7" target="-Z4q09TtzTRHNNUuTdD9-9">
          <mxGeometry relative="1" as="geometry" />
        </mxCell>
        <mxCell id="-Z4q09TtzTRHNNUuTdD9-12" style="edgeStyle=orthogonalEdgeStyle;rounded=0;orthogonalLoop=1;jettySize=auto;html=1;" edge="1" parent="1" source="-Z4q09TtzTRHNNUuTdD9-7" target="eveShrzKlXvvysGxQ54u-5">
          <mxGeometry relative="1" as="geometry">
            <Array as="points">
              <mxPoint x="1380" y="110" />
              <mxPoint x="1146" y="110" />
            </Array>
          </mxGeometry>
        </mxCell>
        <mxCell id="-Z4q09TtzTRHNNUuTdD9-7" value="" style="rhombus;whiteSpace=wrap;html=1;" vertex="1" parent="1">
          <mxGeometry x="1340" y="180" width="80" height="80" as="geometry" />
        </mxCell>
        <mxCell id="-Z4q09TtzTRHNNUuTdD9-20" style="edgeStyle=orthogonalEdgeStyle;rounded=0;orthogonalLoop=1;jettySize=auto;html=1;" edge="1" parent="1" source="-Z4q09TtzTRHNNUuTdD9-9" target="-Z4q09TtzTRHNNUuTdD9-19">
          <mxGeometry relative="1" as="geometry" />
        </mxCell>
        <mxCell id="-Z4q09TtzTRHNNUuTdD9-9" value="Calcular valor total&lt;div&gt;&lt;font style=&quot;color: rgb(0, 127, 255);&quot;&gt;valotTotal = valor * qtdMerc&lt;/font&gt;&lt;/div&gt;" style="whiteSpace=wrap;html=1;" vertex="1" parent="1">
          <mxGeometry x="1531" y="190" width="190" height="60" as="geometry" />
        </mxCell>
        <mxCell id="-Z4q09TtzTRHNNUuTdD9-10" value="[ valor &amp;gt; 0 ]" style="text;html=1;align=center;verticalAlign=middle;whiteSpace=wrap;rounded=0;" vertex="1" parent="1">
          <mxGeometry x="1381" y="190" width="150" height="30" as="geometry" />
        </mxCell>
        <mxCell id="-Z4q09TtzTRHNNUuTdD9-13" value="[ valor &amp;lt;= 0 ]" style="text;html=1;align=center;verticalAlign=middle;whiteSpace=wrap;rounded=0;" vertex="1" parent="1">
          <mxGeometry x="1260" y="80" width="150" height="30" as="geometry" />
        </mxCell>
        <mxCell id="-Z4q09TtzTRHNNUuTdD9-17" style="edgeStyle=orthogonalEdgeStyle;rounded=0;orthogonalLoop=1;jettySize=auto;html=1;" edge="1" parent="1" source="-Z4q09TtzTRHNNUuTdD9-14" target="-Z4q09TtzTRHNNUuTdD9-16">
          <mxGeometry relative="1" as="geometry">
            <Array as="points">
              <mxPoint x="2107.5" y="130" />
            </Array>
          </mxGeometry>
        </mxCell>
        <mxCell id="-Z4q09TtzTRHNNUuTdD9-23" style="edgeStyle=orthogonalEdgeStyle;rounded=0;orthogonalLoop=1;jettySize=auto;html=1;" edge="1" parent="1" source="-Z4q09TtzTRHNNUuTdD9-14" target="-Z4q09TtzTRHNNUuTdD9-22">
          <mxGeometry relative="1" as="geometry">
            <Array as="points">
              <mxPoint x="2108" y="310" />
            </Array>
          </mxGeometry>
        </mxCell>
        <mxCell id="-Z4q09TtzTRHNNUuTdD9-14" value="" style="rhombus;whiteSpace=wrap;html=1;" vertex="1" parent="1">
          <mxGeometry x="2067.5" y="180" width="80" height="80" as="geometry" />
        </mxCell>
        <mxCell id="Sg7X3c6skM2Q7NzSXgPj-2" style="edgeStyle=orthogonalEdgeStyle;rounded=0;orthogonalLoop=1;jettySize=auto;html=1;" edge="1" parent="1" source="-Z4q09TtzTRHNNUuTdD9-16" target="Sg7X3c6skM2Q7NzSXgPj-1">
          <mxGeometry relative="1" as="geometry" />
        </mxCell>
        <mxCell id="-Z4q09TtzTRHNNUuTdD9-16" value="Exibir&lt;div&gt;&lt;font style=&quot;color: rgb(0, 127, 255);&quot;&gt;&quot;Vendedor entrega troco ao usuário e agradece&quot;&lt;/font&gt;&lt;/div&gt;" style="rounded=0;whiteSpace=wrap;html=1;" vertex="1" parent="1">
          <mxGeometry x="2267.5" y="100" width="182.5" height="60" as="geometry" />
        </mxCell>
        <mxCell id="-Z4q09TtzTRHNNUuTdD9-18" value="[ troco != 0 ]" style="text;html=1;align=center;verticalAlign=middle;whiteSpace=wrap;rounded=0;" vertex="1" parent="1">
          <mxGeometry x="2080" y="100" width="150" height="30" as="geometry" />
        </mxCell>
        <mxCell id="-Z4q09TtzTRHNNUuTdD9-21" style="edgeStyle=orthogonalEdgeStyle;rounded=0;orthogonalLoop=1;jettySize=auto;html=1;" edge="1" parent="1" source="-Z4q09TtzTRHNNUuTdD9-19" target="-Z4q09TtzTRHNNUuTdD9-14">
          <mxGeometry relative="1" as="geometry" />
        </mxCell>
        <mxCell id="-Z4q09TtzTRHNNUuTdD9-19" value="Calcular troco&lt;div&gt;&lt;font style=&quot;color: rgb(0, 127, 255);&quot;&gt;troco = valorCom - valorTotal&lt;/font&gt;&lt;/div&gt;" style="whiteSpace=wrap;html=1;" vertex="1" parent="1">
          <mxGeometry x="1800" y="190" width="190" height="60" as="geometry" />
        </mxCell>
        <mxCell id="Sg7X3c6skM2Q7NzSXgPj-3" style="edgeStyle=orthogonalEdgeStyle;rounded=0;orthogonalLoop=1;jettySize=auto;html=1;" edge="1" parent="1" source="-Z4q09TtzTRHNNUuTdD9-22" target="Sg7X3c6skM2Q7NzSXgPj-1">
          <mxGeometry relative="1" as="geometry" />
        </mxCell>
        <mxCell id="-Z4q09TtzTRHNNUuTdD9-22" value="Exibir&lt;div&gt;&lt;font style=&quot;color: rgb(0, 127, 255);&quot;&gt;&quot;Vendedor agradece&quot;&lt;/font&gt;&lt;/div&gt;" style="rounded=0;whiteSpace=wrap;html=1;" vertex="1" parent="1">
          <mxGeometry x="2267.5" y="280" width="182.5" height="60" as="geometry" />
        </mxCell>
        <mxCell id="-Z4q09TtzTRHNNUuTdD9-24" value="[ troco == 0 ]" style="text;html=1;align=center;verticalAlign=middle;whiteSpace=wrap;rounded=0;" vertex="1" parent="1">
          <mxGeometry x="2080" y="280" width="150" height="30" as="geometry" />
        </mxCell>
        <mxCell id="Sg7X3c6skM2Q7NzSXgPj-1" value="" style="ellipse;whiteSpace=wrap;html=1;aspect=fixed;fillColor=light-dark(#A20025,#FF0000);strokeColor=light-dark(#6F0000,#FF6868);fontColor=#ffffff;" vertex="1" parent="1">
          <mxGeometry x="2530" y="200" width="40" height="40" as="geometry" />
        </mxCell>
      </root>
    </mxGraphModel>
  </diagram>
  <diagram name="Página-13" id="2rFChS9OOMJKazpccKGa">
    <mxGraphModel dx="2794" dy="1623" grid="1" gridSize="10" guides="1" tooltips="1" connect="1" arrows="1" fold="1" page="1" pageScale="1" pageWidth="827" pageHeight="1169" math="0" shadow="0">
      <root>
        <mxCell id="0" />
        <mxCell id="1" parent="0" />
        <mxCell id="9ad2jPbWNL5ebFo15KD5-1" style="edgeStyle=orthogonalEdgeStyle;rounded=0;orthogonalLoop=1;jettySize=auto;html=1;entryX=0;entryY=0.5;entryDx=0;entryDy=0;" edge="1" parent="1" source="9ad2jPbWNL5ebFo15KD5-2" target="9ad2jPbWNL5ebFo15KD5-3">
          <mxGeometry relative="1" as="geometry" />
        </mxCell>
        <mxCell id="9ad2jPbWNL5ebFo15KD5-2" value="" style="ellipse;whiteSpace=wrap;html=1;aspect=fixed;fillColor=#60a917;fontColor=#ffffff;strokeColor=#2D7600;" vertex="1" parent="1">
          <mxGeometry x="150" y="320" width="40" height="40" as="geometry" />
        </mxCell>
        <mxCell id="9ad2jPbWNL5ebFo15KD5-5" style="edgeStyle=orthogonalEdgeStyle;rounded=0;orthogonalLoop=1;jettySize=auto;html=1;" edge="1" parent="1" source="9ad2jPbWNL5ebFo15KD5-3" target="9ad2jPbWNL5ebFo15KD5-4">
          <mxGeometry relative="1" as="geometry" />
        </mxCell>
        <mxCell id="9ad2jPbWNL5ebFo15KD5-3" value="Sortear valor do 1º jogador&lt;div&gt;&lt;font color=&quot;#007fff&quot;&gt;valor1&lt;/font&gt;&lt;/div&gt;" style="rounded=0;whiteSpace=wrap;html=1;" vertex="1" parent="1">
          <mxGeometry x="230" y="310" width="160" height="60" as="geometry" />
        </mxCell>
        <mxCell id="66El6MCfraDVVNFrmeTM-12" style="edgeStyle=orthogonalEdgeStyle;rounded=0;orthogonalLoop=1;jettySize=auto;html=1;" edge="1" parent="1" source="9ad2jPbWNL5ebFo15KD5-4" target="9ad2jPbWNL5ebFo15KD5-6">
          <mxGeometry relative="1" as="geometry" />
        </mxCell>
        <mxCell id="9ad2jPbWNL5ebFo15KD5-4" value="Sortear valor do 2º jogador&lt;div&gt;&lt;font color=&quot;#007fff&quot;&gt;valor2&lt;/font&gt;&lt;/div&gt;" style="rounded=0;whiteSpace=wrap;html=1;" vertex="1" parent="1">
          <mxGeometry x="450" y="310" width="160" height="60" as="geometry" />
        </mxCell>
        <mxCell id="2jGUTHV5K_B9O7AqsagR-4" style="edgeStyle=orthogonalEdgeStyle;rounded=0;orthogonalLoop=1;jettySize=auto;html=1;" edge="1" parent="1" source="9ad2jPbWNL5ebFo15KD5-6" target="2jGUTHV5K_B9O7AqsagR-2">
          <mxGeometry relative="1" as="geometry">
            <Array as="points">
              <mxPoint x="740" y="230" />
            </Array>
          </mxGeometry>
        </mxCell>
        <mxCell id="2jGUTHV5K_B9O7AqsagR-6" style="edgeStyle=orthogonalEdgeStyle;rounded=0;orthogonalLoop=1;jettySize=auto;html=1;" edge="1" parent="1" source="9ad2jPbWNL5ebFo15KD5-6" target="2jGUTHV5K_B9O7AqsagR-1">
          <mxGeometry relative="1" as="geometry" />
        </mxCell>
        <mxCell id="2jGUTHV5K_B9O7AqsagR-9" style="edgeStyle=orthogonalEdgeStyle;rounded=0;orthogonalLoop=1;jettySize=auto;html=1;" edge="1" parent="1" source="9ad2jPbWNL5ebFo15KD5-6" target="2jGUTHV5K_B9O7AqsagR-3">
          <mxGeometry relative="1" as="geometry">
            <Array as="points">
              <mxPoint x="740" y="450" />
            </Array>
          </mxGeometry>
        </mxCell>
        <mxCell id="9ad2jPbWNL5ebFo15KD5-6" value="" style="rhombus;whiteSpace=wrap;html=1;" vertex="1" parent="1">
          <mxGeometry x="700" y="300" width="80" height="80" as="geometry" />
        </mxCell>
        <mxCell id="66El6MCfraDVVNFrmeTM-26" style="edgeStyle=orthogonalEdgeStyle;rounded=0;orthogonalLoop=1;jettySize=auto;html=1;" edge="1" parent="1" source="2jGUTHV5K_B9O7AqsagR-1" target="66El6MCfraDVVNFrmeTM-15">
          <mxGeometry relative="1" as="geometry" />
        </mxCell>
        <mxCell id="2jGUTHV5K_B9O7AqsagR-1" value="Exibir&amp;nbsp;&lt;div&gt;&lt;font style=&quot;color: rgb(0, 127, 255);&quot;&gt;&quot;Empate&quot;&lt;/font&gt;&lt;/div&gt;" style="rounded=0;whiteSpace=wrap;html=1;" vertex="1" parent="1">
          <mxGeometry x="910" y="310" width="120" height="60" as="geometry" />
        </mxCell>
        <mxCell id="66El6MCfraDVVNFrmeTM-14" style="edgeStyle=orthogonalEdgeStyle;rounded=0;orthogonalLoop=1;jettySize=auto;html=1;" edge="1" parent="1" source="2jGUTHV5K_B9O7AqsagR-2" target="66El6MCfraDVVNFrmeTM-13">
          <mxGeometry relative="1" as="geometry" />
        </mxCell>
        <mxCell id="2jGUTHV5K_B9O7AqsagR-2" value="Exibir&amp;nbsp;&lt;div&gt;&lt;font style=&quot;color: rgb(0, 127, 255);&quot;&gt;&quot;O 1º venceu&quot;&lt;/font&gt;&lt;/div&gt;" style="rounded=0;whiteSpace=wrap;html=1;" vertex="1" parent="1">
          <mxGeometry x="910" y="200" width="120" height="60" as="geometry" />
        </mxCell>
        <mxCell id="66El6MCfraDVVNFrmeTM-27" style="edgeStyle=orthogonalEdgeStyle;rounded=0;orthogonalLoop=1;jettySize=auto;html=1;" edge="1" parent="1" source="2jGUTHV5K_B9O7AqsagR-3" target="66El6MCfraDVVNFrmeTM-16">
          <mxGeometry relative="1" as="geometry" />
        </mxCell>
        <mxCell id="2jGUTHV5K_B9O7AqsagR-3" value="Exibir&amp;nbsp;&lt;div&gt;&lt;font style=&quot;color: rgb(0, 127, 255);&quot;&gt;&quot;O 2º venceu&quot;&lt;/font&gt;&lt;/div&gt;" style="rounded=0;whiteSpace=wrap;html=1;" vertex="1" parent="1">
          <mxGeometry x="910" y="420" width="120" height="60" as="geometry" />
        </mxCell>
        <mxCell id="66El6MCfraDVVNFrmeTM-1" value="[ valor1 &amp;gt; valor2 ]" style="text;html=1;align=center;verticalAlign=middle;whiteSpace=wrap;rounded=0;" vertex="1" parent="1">
          <mxGeometry x="720" y="200" width="150" height="30" as="geometry" />
        </mxCell>
        <mxCell id="66El6MCfraDVVNFrmeTM-2" value="[ valor1 == valor2 ]" style="text;html=1;align=center;verticalAlign=middle;whiteSpace=wrap;rounded=0;" vertex="1" parent="1">
          <mxGeometry x="760" y="310" width="150" height="30" as="geometry" />
        </mxCell>
        <mxCell id="66El6MCfraDVVNFrmeTM-3" value="[ valor1 &amp;lt; valor2 ]" style="text;html=1;align=center;verticalAlign=middle;whiteSpace=wrap;rounded=0;" vertex="1" parent="1">
          <mxGeometry x="720" y="420" width="150" height="30" as="geometry" />
        </mxCell>
        <mxCell id="66El6MCfraDVVNFrmeTM-23" style="edgeStyle=orthogonalEdgeStyle;rounded=0;orthogonalLoop=1;jettySize=auto;html=1;" edge="1" parent="1" source="66El6MCfraDVVNFrmeTM-4" target="66El6MCfraDVVNFrmeTM-22">
          <mxGeometry relative="1" as="geometry" />
        </mxCell>
        <mxCell id="66El6MCfraDVVNFrmeTM-4" value="Exibir&lt;div&gt;&lt;font style=&quot;color: rgb(0, 127, 255);&quot;&gt;&quot;Nova partida?&lt;/font&gt;&lt;/div&gt;&lt;div&gt;&lt;span style=&quot;background-color: transparent; color: light-dark(rgb(0, 127, 255), rgb(49, 158, 255));&quot;&gt;S ou N&quot;&lt;/span&gt;&lt;/div&gt;" style="rounded=0;whiteSpace=wrap;html=1;" vertex="1" parent="1">
          <mxGeometry x="1570" y="310" width="120" height="60" as="geometry" />
        </mxCell>
        <mxCell id="66El6MCfraDVVNFrmeTM-20" style="edgeStyle=orthogonalEdgeStyle;rounded=0;orthogonalLoop=1;jettySize=auto;html=1;" edge="1" parent="1" source="66El6MCfraDVVNFrmeTM-8" target="66El6MCfraDVVNFrmeTM-4">
          <mxGeometry relative="1" as="geometry" />
        </mxCell>
        <mxCell id="66El6MCfraDVVNFrmeTM-8" value="Calcular partidas&lt;br&gt;&lt;div&gt;&lt;font color=&quot;#007fff&quot;&gt;contPart = contPart + 1&lt;/font&gt;&lt;/div&gt;" style="rounded=0;whiteSpace=wrap;html=1;" vertex="1" parent="1">
          <mxGeometry x="1360" y="310" width="150" height="60" as="geometry" />
        </mxCell>
        <mxCell id="66El6MCfraDVVNFrmeTM-17" style="edgeStyle=orthogonalEdgeStyle;rounded=0;orthogonalLoop=1;jettySize=auto;html=1;" edge="1" parent="1" source="66El6MCfraDVVNFrmeTM-13" target="66El6MCfraDVVNFrmeTM-8">
          <mxGeometry relative="1" as="geometry" />
        </mxCell>
        <mxCell id="66El6MCfraDVVNFrmeTM-13" value="&lt;font style=&quot;color: rgb(0, 127, 255);&quot;&gt;cont1 = cont1 + 1&lt;/font&gt;" style="rounded=0;whiteSpace=wrap;html=1;" vertex="1" parent="1">
          <mxGeometry x="1090" y="200" width="120" height="60" as="geometry" />
        </mxCell>
        <mxCell id="66El6MCfraDVVNFrmeTM-18" style="edgeStyle=orthogonalEdgeStyle;rounded=0;orthogonalLoop=1;jettySize=auto;html=1;" edge="1" parent="1" source="66El6MCfraDVVNFrmeTM-15" target="66El6MCfraDVVNFrmeTM-8">
          <mxGeometry relative="1" as="geometry" />
        </mxCell>
        <mxCell id="66El6MCfraDVVNFrmeTM-15" value="&lt;font style=&quot;color: rgb(0, 127, 255);&quot;&gt;contEmp = contEmp + 1&lt;/font&gt;" style="rounded=0;whiteSpace=wrap;html=1;" vertex="1" parent="1">
          <mxGeometry x="1090" y="310" width="150" height="60" as="geometry" />
        </mxCell>
        <mxCell id="66El6MCfraDVVNFrmeTM-19" style="edgeStyle=orthogonalEdgeStyle;rounded=0;orthogonalLoop=1;jettySize=auto;html=1;" edge="1" parent="1" source="66El6MCfraDVVNFrmeTM-16" target="66El6MCfraDVVNFrmeTM-8">
          <mxGeometry relative="1" as="geometry" />
        </mxCell>
        <mxCell id="66El6MCfraDVVNFrmeTM-16" value="&lt;font style=&quot;color: rgb(0, 127, 255);&quot;&gt;cont2 = cont2 + 1&lt;/font&gt;" style="rounded=0;whiteSpace=wrap;html=1;" vertex="1" parent="1">
          <mxGeometry x="1090" y="420" width="120" height="60" as="geometry" />
        </mxCell>
        <mxCell id="66El6MCfraDVVNFrmeTM-25" style="edgeStyle=orthogonalEdgeStyle;rounded=0;orthogonalLoop=1;jettySize=auto;html=1;" edge="1" parent="1" source="66El6MCfraDVVNFrmeTM-22" target="66El6MCfraDVVNFrmeTM-24">
          <mxGeometry relative="1" as="geometry" />
        </mxCell>
        <mxCell id="66El6MCfraDVVNFrmeTM-29" style="edgeStyle=orthogonalEdgeStyle;rounded=0;orthogonalLoop=1;jettySize=auto;html=1;" edge="1" parent="1" source="66El6MCfraDVVNFrmeTM-22" target="9ad2jPbWNL5ebFo15KD5-3">
          <mxGeometry relative="1" as="geometry">
            <Array as="points">
              <mxPoint x="1810" y="140" />
              <mxPoint x="310" y="140" />
            </Array>
          </mxGeometry>
        </mxCell>
        <mxCell id="66El6MCfraDVVNFrmeTM-22" value="" style="rhombus;whiteSpace=wrap;html=1;" vertex="1" parent="1">
          <mxGeometry x="1770" y="300" width="80" height="80" as="geometry" />
        </mxCell>
        <mxCell id="gPfUH8-a8Mq_THTOlITV-2" style="edgeStyle=orthogonalEdgeStyle;rounded=0;orthogonalLoop=1;jettySize=auto;html=1;" edge="1" parent="1" source="66El6MCfraDVVNFrmeTM-24" target="gPfUH8-a8Mq_THTOlITV-1">
          <mxGeometry relative="1" as="geometry" />
        </mxCell>
        <mxCell id="66El6MCfraDVVNFrmeTM-24" value="Exibir&amp;nbsp;&lt;div&gt;&lt;font style=&quot;color: rgb(0, 127, 255);&quot;&gt;&quot;O jogo acabou após &quot;&lt;/font&gt; + &lt;font style=&quot;color: rgb(0, 127, 255);&quot;&gt;contPart&lt;/font&gt; + &lt;font style=&quot;color: rgb(0, 127, 255);&quot;&gt;&quot;partidas. 1º jogador: &quot;&lt;/font&gt; + &lt;font style=&quot;color: rgb(0, 127, 255);&quot;&gt;cont1&lt;/font&gt; + &lt;font style=&quot;color: rgb(0, 127, 255);&quot;&gt;&quot;vitórias. 2º jogador: &quot;&lt;/font&gt; +&lt;font style=&quot;color: rgb(0, 127, 255);&quot;&gt; cont2 &lt;/font&gt;+ &lt;font style=&quot;color: rgb(0, 127, 255);&quot;&gt;&quot;vitórias. Empates: &quot; &lt;/font&gt;&lt;font style=&quot;color: rgb(0, 0, 0);&quot;&gt;+&lt;/font&gt;&lt;font style=&quot;color: rgb(0, 127, 255);&quot;&gt; contEmp&lt;/font&gt;&lt;/div&gt;" style="rounded=0;whiteSpace=wrap;html=1;" vertex="1" parent="1">
          <mxGeometry x="1940" y="310" width="730" height="60" as="geometry" />
        </mxCell>
        <mxCell id="66El6MCfraDVVNFrmeTM-28" value="[ N ]" style="text;html=1;align=center;verticalAlign=middle;whiteSpace=wrap;rounded=0;" vertex="1" parent="1">
          <mxGeometry x="1790" y="310" width="150" height="30" as="geometry" />
        </mxCell>
        <mxCell id="66El6MCfraDVVNFrmeTM-30" value="[ S ]" style="text;html=1;align=center;verticalAlign=middle;whiteSpace=wrap;rounded=0;" vertex="1" parent="1">
          <mxGeometry x="1710" y="110" width="150" height="30" as="geometry" />
        </mxCell>
        <mxCell id="gPfUH8-a8Mq_THTOlITV-1" value="" style="ellipse;whiteSpace=wrap;html=1;aspect=fixed;fillColor=light-dark(#A20025,#FF0000);strokeColor=light-dark(#6F0000,#FF6868);fontColor=#ffffff;" vertex="1" parent="1">
          <mxGeometry x="2740" y="320" width="40" height="40" as="geometry" />
        </mxCell>
      </root>
    </mxGraphModel>
  </diagram>
  <diagram name="Página-14" id="xksQ9oe5Rft8g2XY2DXr">
    <mxGraphModel dx="3985" dy="2285" grid="1" gridSize="10" guides="1" tooltips="1" connect="1" arrows="1" fold="1" page="1" pageScale="1" pageWidth="827" pageHeight="1169" math="0" shadow="0">
      <root>
        <mxCell id="0" />
        <mxCell id="1" parent="0" />
        <mxCell id="xLh0bLQ_XMdGutAl6GOV-7" style="edgeStyle=orthogonalEdgeStyle;rounded=0;orthogonalLoop=1;jettySize=auto;html=1;" edge="1" parent="1" source="xLh0bLQ_XMdGutAl6GOV-2" target="xLh0bLQ_XMdGutAl6GOV-4">
          <mxGeometry relative="1" as="geometry" />
        </mxCell>
        <mxCell id="xLh0bLQ_XMdGutAl6GOV-2" value="" style="ellipse;whiteSpace=wrap;html=1;aspect=fixed;fillColor=#60a917;fontColor=#ffffff;strokeColor=#2D7600;" vertex="1" parent="1">
          <mxGeometry x="20" y="240" width="40" height="40" as="geometry" />
        </mxCell>
        <mxCell id="xLh0bLQ_XMdGutAl6GOV-10" style="edgeStyle=orthogonalEdgeStyle;rounded=0;orthogonalLoop=1;jettySize=auto;html=1;" edge="1" parent="1" source="xLh0bLQ_XMdGutAl6GOV-4" target="xLh0bLQ_XMdGutAl6GOV-8">
          <mxGeometry relative="1" as="geometry" />
        </mxCell>
        <mxCell id="xLh0bLQ_XMdGutAl6GOV-4" value="Receber cartão&lt;div&gt;&lt;font style=&quot;color: rgb(0, 127, 255);&quot;&gt;cart&lt;/font&gt;&lt;/div&gt;" style="rounded=0;whiteSpace=wrap;html=1;" vertex="1" parent="1">
          <mxGeometry x="100" y="230" width="120" height="60" as="geometry" />
        </mxCell>
        <mxCell id="xLh0bLQ_XMdGutAl6GOV-12" value="" style="edgeStyle=orthogonalEdgeStyle;rounded=0;orthogonalLoop=1;jettySize=auto;html=1;" edge="1" parent="1" source="xLh0bLQ_XMdGutAl6GOV-8" target="xLh0bLQ_XMdGutAl6GOV-9">
          <mxGeometry relative="1" as="geometry" />
        </mxCell>
        <mxCell id="xLh0bLQ_XMdGutAl6GOV-8" value="Ler o cartão" style="rounded=0;whiteSpace=wrap;html=1;" vertex="1" parent="1">
          <mxGeometry x="260" y="230" width="120" height="60" as="geometry" />
        </mxCell>
        <mxCell id="xLh0bLQ_XMdGutAl6GOV-14" style="edgeStyle=orthogonalEdgeStyle;rounded=0;orthogonalLoop=1;jettySize=auto;html=1;" edge="1" parent="1" source="xLh0bLQ_XMdGutAl6GOV-9" target="xLh0bLQ_XMdGutAl6GOV-13">
          <mxGeometry relative="1" as="geometry">
            <Array as="points">
              <mxPoint x="460" y="170" />
            </Array>
          </mxGeometry>
        </mxCell>
        <mxCell id="W7Wya8alj8OAVtXYa5Uj-3" value="" style="edgeStyle=orthogonalEdgeStyle;rounded=0;orthogonalLoop=1;jettySize=auto;html=1;" edge="1" parent="1" source="xLh0bLQ_XMdGutAl6GOV-9" target="W7Wya8alj8OAVtXYa5Uj-2">
          <mxGeometry relative="1" as="geometry" />
        </mxCell>
        <mxCell id="xLh0bLQ_XMdGutAl6GOV-9" value="" style="rhombus;whiteSpace=wrap;html=1;" vertex="1" parent="1">
          <mxGeometry x="420" y="220" width="80" height="80" as="geometry" />
        </mxCell>
        <mxCell id="xLh0bLQ_XMdGutAl6GOV-15" style="edgeStyle=orthogonalEdgeStyle;rounded=0;orthogonalLoop=1;jettySize=auto;html=1;" edge="1" parent="1" source="xLh0bLQ_XMdGutAl6GOV-13" target="xLh0bLQ_XMdGutAl6GOV-4">
          <mxGeometry relative="1" as="geometry">
            <Array as="points">
              <mxPoint x="160" y="170" />
            </Array>
          </mxGeometry>
        </mxCell>
        <mxCell id="xLh0bLQ_XMdGutAl6GOV-13" value="Exibir &lt;font style=&quot;color: rgb(0, 127, 255);&quot;&gt;&quot;retire e insira o cartão novamente&quot;&lt;/font&gt;" style="rounded=0;whiteSpace=wrap;html=1;" vertex="1" parent="1">
          <mxGeometry x="180" y="140" width="130" height="60" as="geometry" />
        </mxCell>
        <mxCell id="W7Wya8alj8OAVtXYa5Uj-1" value="[ ler == não ]" style="text;html=1;align=center;verticalAlign=middle;whiteSpace=wrap;rounded=0;" vertex="1" parent="1">
          <mxGeometry x="350" y="140" width="150" height="30" as="geometry" />
        </mxCell>
        <mxCell id="1xR0R-Q_Tz9fFSIqGq9v-8" style="edgeStyle=orthogonalEdgeStyle;rounded=0;orthogonalLoop=1;jettySize=auto;html=1;" edge="1" parent="1" source="W7Wya8alj8OAVtXYa5Uj-2" target="W7Wya8alj8OAVtXYa5Uj-4">
          <mxGeometry relative="1" as="geometry">
            <Array as="points">
              <mxPoint x="680" y="170" />
            </Array>
          </mxGeometry>
        </mxCell>
        <mxCell id="1xR0R-Q_Tz9fFSIqGq9v-9" style="edgeStyle=orthogonalEdgeStyle;rounded=0;orthogonalLoop=1;jettySize=auto;html=1;" edge="1" parent="1" source="W7Wya8alj8OAVtXYa5Uj-2" target="1xR0R-Q_Tz9fFSIqGq9v-5">
          <mxGeometry relative="1" as="geometry" />
        </mxCell>
        <mxCell id="W7Wya8alj8OAVtXYa5Uj-2" value="" style="rhombus;whiteSpace=wrap;html=1;" vertex="1" parent="1">
          <mxGeometry x="640" y="220" width="80" height="80" as="geometry" />
        </mxCell>
        <mxCell id="1xR0R-Q_Tz9fFSIqGq9v-2" style="edgeStyle=orthogonalEdgeStyle;rounded=0;orthogonalLoop=1;jettySize=auto;html=1;" edge="1" parent="1" source="W7Wya8alj8OAVtXYa5Uj-4" target="1xR0R-Q_Tz9fFSIqGq9v-1">
          <mxGeometry relative="1" as="geometry" />
        </mxCell>
        <mxCell id="W7Wya8alj8OAVtXYa5Uj-4" value="Exibir &lt;font style=&quot;color: rgb(0, 127, 255);&quot;&gt;&quot;Cartão bloqueado! Procure seu gerente!&quot;&lt;/font&gt;" style="rounded=0;whiteSpace=wrap;html=1;" vertex="1" parent="1">
          <mxGeometry x="840" y="140" width="150" height="60" as="geometry" />
        </mxCell>
        <mxCell id="1xR0R-Q_Tz9fFSIqGq9v-1" value="" style="ellipse;whiteSpace=wrap;html=1;aspect=fixed;fillColor=light-dark(#A20025,#FF0000);strokeColor=light-dark(#6F0000,#FF6868);fontColor=#ffffff;" vertex="1" parent="1">
          <mxGeometry x="895" y="20" width="40" height="40" as="geometry" />
        </mxCell>
        <mxCell id="1xR0R-Q_Tz9fFSIqGq9v-3" value="[ ler == sim ]" style="text;html=1;align=center;verticalAlign=middle;whiteSpace=wrap;rounded=0;" vertex="1" parent="1">
          <mxGeometry x="460" y="230" width="150" height="30" as="geometry" />
        </mxCell>
        <mxCell id="1xR0R-Q_Tz9fFSIqGq9v-12" style="edgeStyle=orthogonalEdgeStyle;rounded=0;orthogonalLoop=1;jettySize=auto;html=1;" edge="1" parent="1" source="1xR0R-Q_Tz9fFSIqGq9v-5" target="1xR0R-Q_Tz9fFSIqGq9v-11">
          <mxGeometry relative="1" as="geometry" />
        </mxCell>
        <mxCell id="1xR0R-Q_Tz9fFSIqGq9v-5" value="Exibir&lt;div&gt;&lt;font style=&quot;color: rgb(0, 127, 255);&quot;&gt;&quot;Digite a senha&quot;&lt;/font&gt;&lt;/div&gt;" style="rounded=0;whiteSpace=wrap;html=1;" vertex="1" parent="1">
          <mxGeometry x="900" y="230" width="120" height="60" as="geometry" />
        </mxCell>
        <mxCell id="1xR0R-Q_Tz9fFSIqGq9v-4" value="[ cart == bloqueado ]" style="text;html=1;align=center;verticalAlign=middle;whiteSpace=wrap;rounded=0;" vertex="1" parent="1">
          <mxGeometry x="660" y="140" width="150" height="30" as="geometry" />
        </mxCell>
        <mxCell id="1xR0R-Q_Tz9fFSIqGq9v-10" value="[ cart != bloqueado ]" style="text;html=1;align=center;verticalAlign=middle;whiteSpace=wrap;rounded=0;" vertex="1" parent="1">
          <mxGeometry x="700" y="230" width="150" height="30" as="geometry" />
        </mxCell>
        <mxCell id="1xR0R-Q_Tz9fFSIqGq9v-15" value="" style="edgeStyle=orthogonalEdgeStyle;rounded=0;orthogonalLoop=1;jettySize=auto;html=1;" edge="1" parent="1" source="1xR0R-Q_Tz9fFSIqGq9v-11" target="1xR0R-Q_Tz9fFSIqGq9v-13">
          <mxGeometry relative="1" as="geometry" />
        </mxCell>
        <mxCell id="1xR0R-Q_Tz9fFSIqGq9v-11" value="Receber senha&lt;div&gt;&lt;font style=&quot;color: rgb(0, 127, 255);&quot;&gt;senha&lt;/font&gt;&lt;/div&gt;" style="rounded=0;whiteSpace=wrap;html=1;" vertex="1" parent="1">
          <mxGeometry x="1090" y="230" width="120" height="60" as="geometry" />
        </mxCell>
        <mxCell id="1xR0R-Q_Tz9fFSIqGq9v-16" value="" style="edgeStyle=orthogonalEdgeStyle;rounded=0;orthogonalLoop=1;jettySize=auto;html=1;" edge="1" parent="1" source="1xR0R-Q_Tz9fFSIqGq9v-13" target="1xR0R-Q_Tz9fFSIqGq9v-14">
          <mxGeometry relative="1" as="geometry" />
        </mxCell>
        <mxCell id="1xR0R-Q_Tz9fFSIqGq9v-13" value="Contador de vezes em que uma senha foi tentada&lt;div&gt;&lt;font style=&quot;color: rgb(0, 127, 255);&quot;&gt;cont&lt;/font&gt;&lt;/div&gt;" style="rounded=0;whiteSpace=wrap;html=1;" vertex="1" parent="1">
          <mxGeometry x="1270" y="230" width="150" height="60" as="geometry" />
        </mxCell>
        <mxCell id="1xR0R-Q_Tz9fFSIqGq9v-29" value="" style="edgeStyle=orthogonalEdgeStyle;rounded=0;orthogonalLoop=1;jettySize=auto;html=1;" edge="1" parent="1" source="1xR0R-Q_Tz9fFSIqGq9v-14" target="1xR0R-Q_Tz9fFSIqGq9v-23">
          <mxGeometry relative="1" as="geometry" />
        </mxCell>
        <mxCell id="1xR0R-Q_Tz9fFSIqGq9v-14" value="&lt;font style=&quot;color: rgb(0, 127, 255);&quot;&gt;cont = cont + 1&lt;/font&gt;" style="rounded=0;whiteSpace=wrap;html=1;" vertex="1" parent="1">
          <mxGeometry x="1480" y="230" width="120" height="60" as="geometry" />
        </mxCell>
        <mxCell id="1xR0R-Q_Tz9fFSIqGq9v-21" style="edgeStyle=orthogonalEdgeStyle;rounded=0;orthogonalLoop=1;jettySize=auto;html=1;" edge="1" parent="1" source="1xR0R-Q_Tz9fFSIqGq9v-19" target="1xR0R-Q_Tz9fFSIqGq9v-5">
          <mxGeometry relative="1" as="geometry" />
        </mxCell>
        <mxCell id="1xR0R-Q_Tz9fFSIqGq9v-19" value="Exibir&lt;div&gt;&lt;span style=&quot;background-color: transparent;&quot;&gt;&lt;font style=&quot;color: light-dark(rgb(0, 127, 255), rgb(255, 255, 255));&quot;&gt;&quot;Senha errada!&quot;&lt;/font&gt;&lt;/span&gt;&lt;/div&gt;" style="rounded=0;whiteSpace=wrap;html=1;" vertex="1" parent="1">
          <mxGeometry x="1285" y="350" width="120" height="60" as="geometry" />
        </mxCell>
        <mxCell id="1xR0R-Q_Tz9fFSIqGq9v-22" value="[ senha == errada ]" style="text;html=1;align=center;verticalAlign=middle;whiteSpace=wrap;rounded=0;" vertex="1" parent="1">
          <mxGeometry x="1734" y="350" width="150" height="30" as="geometry" />
        </mxCell>
        <mxCell id="1xR0R-Q_Tz9fFSIqGq9v-30" style="edgeStyle=orthogonalEdgeStyle;rounded=0;orthogonalLoop=1;jettySize=auto;html=1;" edge="1" parent="1" source="1xR0R-Q_Tz9fFSIqGq9v-23" target="W7Wya8alj8OAVtXYa5Uj-4">
          <mxGeometry relative="1" as="geometry">
            <Array as="points">
              <mxPoint x="1694" y="170" />
            </Array>
          </mxGeometry>
        </mxCell>
        <mxCell id="1xR0R-Q_Tz9fFSIqGq9v-32" value="" style="edgeStyle=orthogonalEdgeStyle;rounded=0;orthogonalLoop=1;jettySize=auto;html=1;" edge="1" parent="1" source="1xR0R-Q_Tz9fFSIqGq9v-23" target="1xR0R-Q_Tz9fFSIqGq9v-31">
          <mxGeometry relative="1" as="geometry" />
        </mxCell>
        <mxCell id="1xR0R-Q_Tz9fFSIqGq9v-23" value="" style="rhombus;whiteSpace=wrap;html=1;" vertex="1" parent="1">
          <mxGeometry x="1654" y="220" width="80" height="80" as="geometry" />
        </mxCell>
        <mxCell id="1xR0R-Q_Tz9fFSIqGq9v-27" value="[ cont &amp;gt; 2 ]" style="text;html=1;align=center;verticalAlign=middle;whiteSpace=wrap;rounded=0;" vertex="1" parent="1">
          <mxGeometry x="1584" y="140" width="150" height="30" as="geometry" />
        </mxCell>
        <mxCell id="1xR0R-Q_Tz9fFSIqGq9v-34" style="edgeStyle=orthogonalEdgeStyle;rounded=0;orthogonalLoop=1;jettySize=auto;html=1;" edge="1" parent="1" source="1xR0R-Q_Tz9fFSIqGq9v-31" target="1xR0R-Q_Tz9fFSIqGq9v-19">
          <mxGeometry relative="1" as="geometry">
            <Array as="points">
              <mxPoint x="1880" y="380" />
            </Array>
          </mxGeometry>
        </mxCell>
        <mxCell id="1xR0R-Q_Tz9fFSIqGq9v-36" value="" style="edgeStyle=orthogonalEdgeStyle;rounded=0;orthogonalLoop=1;jettySize=auto;html=1;" edge="1" parent="1" source="1xR0R-Q_Tz9fFSIqGq9v-31" target="1xR0R-Q_Tz9fFSIqGq9v-35">
          <mxGeometry relative="1" as="geometry" />
        </mxCell>
        <mxCell id="1xR0R-Q_Tz9fFSIqGq9v-31" value="" style="rhombus;whiteSpace=wrap;html=1;" vertex="1" parent="1">
          <mxGeometry x="1840" y="220" width="80" height="80" as="geometry" />
        </mxCell>
        <mxCell id="1xR0R-Q_Tz9fFSIqGq9v-33" value="[ cont &amp;lt;= 2 ]" style="text;html=1;align=center;verticalAlign=middle;whiteSpace=wrap;rounded=0;" vertex="1" parent="1">
          <mxGeometry x="1690" y="230" width="150" height="30" as="geometry" />
        </mxCell>
        <mxCell id="1xR0R-Q_Tz9fFSIqGq9v-39" value="" style="edgeStyle=orthogonalEdgeStyle;rounded=0;orthogonalLoop=1;jettySize=auto;html=1;" edge="1" parent="1" source="1xR0R-Q_Tz9fFSIqGq9v-35" target="1xR0R-Q_Tz9fFSIqGq9v-38">
          <mxGeometry relative="1" as="geometry" />
        </mxCell>
        <mxCell id="1xR0R-Q_Tz9fFSIqGq9v-35" value="Escolher entre&lt;div&gt;&lt;span style=&quot;background-color: transparent;&quot;&gt;&lt;font style=&quot;color: light-dark(rgb(0, 127, 255), rgb(255, 255, 255));&quot;&gt;&quot;Extrato&quot;&lt;/font&gt;&lt;/span&gt;&lt;span style=&quot;background-color: transparent; color: light-dark(rgb(0, 0, 0), rgb(255, 255, 255));&quot;&gt;, &lt;/span&gt;&lt;span style=&quot;background-color: transparent;&quot;&gt;&lt;font style=&quot;color: light-dark(rgb(0, 127, 255), rgb(255, 255, 255));&quot;&gt;&quot;Saque&quot;&lt;/font&gt;&lt;/span&gt;&lt;span style=&quot;background-color: transparent; color: light-dark(rgb(0, 0, 0), rgb(255, 255, 255));&quot;&gt;, &lt;/span&gt;&lt;span style=&quot;background-color: transparent;&quot;&gt;&lt;font style=&quot;color: light-dark(rgb(0, 127, 255), rgb(255, 255, 255));&quot;&gt;&quot;Sair&quot;&lt;/font&gt;&lt;/span&gt;&lt;span style=&quot;background-color: transparent; color: light-dark(rgb(0, 0, 0), rgb(255, 255, 255));&quot;&gt;&amp;nbsp;&amp;nbsp;&lt;/span&gt;&lt;/div&gt;" style="whiteSpace=wrap;html=1;" vertex="1" parent="1">
          <mxGeometry x="2080" y="230" width="150" height="60" as="geometry" />
        </mxCell>
        <mxCell id="1xR0R-Q_Tz9fFSIqGq9v-37" value="[ senha == certa ]" style="text;html=1;align=center;verticalAlign=middle;whiteSpace=wrap;rounded=0;" vertex="1" parent="1">
          <mxGeometry x="1890" y="230" width="150" height="30" as="geometry" />
        </mxCell>
        <mxCell id="1xR0R-Q_Tz9fFSIqGq9v-41" value="" style="edgeStyle=orthogonalEdgeStyle;rounded=0;orthogonalLoop=1;jettySize=auto;html=1;" edge="1" parent="1" source="1xR0R-Q_Tz9fFSIqGq9v-38" target="1xR0R-Q_Tz9fFSIqGq9v-40">
          <mxGeometry relative="1" as="geometry" />
        </mxCell>
        <mxCell id="1xR0R-Q_Tz9fFSIqGq9v-44" style="edgeStyle=orthogonalEdgeStyle;rounded=0;orthogonalLoop=1;jettySize=auto;html=1;" edge="1" parent="1" source="1xR0R-Q_Tz9fFSIqGq9v-38" target="1xR0R-Q_Tz9fFSIqGq9v-42">
          <mxGeometry relative="1" as="geometry">
            <Array as="points">
              <mxPoint x="2340" y="380" />
            </Array>
          </mxGeometry>
        </mxCell>
        <mxCell id="1xR0R-Q_Tz9fFSIqGq9v-53" style="edgeStyle=orthogonalEdgeStyle;rounded=0;orthogonalLoop=1;jettySize=auto;html=1;" edge="1" parent="1" source="1xR0R-Q_Tz9fFSIqGq9v-38" target="1xR0R-Q_Tz9fFSIqGq9v-48">
          <mxGeometry relative="1" as="geometry">
            <Array as="points">
              <mxPoint x="2340" y="140" />
            </Array>
          </mxGeometry>
        </mxCell>
        <mxCell id="1xR0R-Q_Tz9fFSIqGq9v-38" value="" style="rhombus;whiteSpace=wrap;html=1;" vertex="1" parent="1">
          <mxGeometry x="2300" y="220" width="80" height="80" as="geometry" />
        </mxCell>
        <mxCell id="1xR0R-Q_Tz9fFSIqGq9v-57" value="" style="edgeStyle=orthogonalEdgeStyle;rounded=0;orthogonalLoop=1;jettySize=auto;html=1;" edge="1" parent="1" source="1xR0R-Q_Tz9fFSIqGq9v-40" target="1xR0R-Q_Tz9fFSIqGq9v-56">
          <mxGeometry relative="1" as="geometry" />
        </mxCell>
        <mxCell id="1xR0R-Q_Tz9fFSIqGq9v-40" value="Solicitar valor do saque&lt;div&gt;&lt;font style=&quot;color: rgb(0, 127, 255);&quot;&gt;&quot;Qual valor do saque?&quot;&lt;/font&gt;&lt;/div&gt;" style="whiteSpace=wrap;html=1;" vertex="1" parent="1">
          <mxGeometry x="2530" y="230" width="140" height="60" as="geometry" />
        </mxCell>
        <mxCell id="1xR0R-Q_Tz9fFSIqGq9v-55" style="edgeStyle=orthogonalEdgeStyle;rounded=0;orthogonalLoop=1;jettySize=auto;html=1;" edge="1" parent="1" source="1xR0R-Q_Tz9fFSIqGq9v-42" target="1xR0R-Q_Tz9fFSIqGq9v-35">
          <mxGeometry relative="1" as="geometry">
            <Array as="points">
              <mxPoint x="2590" y="430" />
              <mxPoint x="2155" y="430" />
            </Array>
          </mxGeometry>
        </mxCell>
        <mxCell id="1xR0R-Q_Tz9fFSIqGq9v-42" value="Exibir extrato" style="whiteSpace=wrap;html=1;" vertex="1" parent="1">
          <mxGeometry x="2530" y="350" width="120" height="60" as="geometry" />
        </mxCell>
        <mxCell id="1xR0R-Q_Tz9fFSIqGq9v-47" value="[ Extrato == verdadeiro ]" style="text;html=1;align=center;verticalAlign=middle;whiteSpace=wrap;rounded=0;" vertex="1" parent="1">
          <mxGeometry x="2340" y="350" width="150" height="30" as="geometry" />
        </mxCell>
        <mxCell id="1xR0R-Q_Tz9fFSIqGq9v-52" style="edgeStyle=orthogonalEdgeStyle;rounded=0;orthogonalLoop=1;jettySize=auto;html=1;" edge="1" parent="1" source="1xR0R-Q_Tz9fFSIqGq9v-48" target="1xR0R-Q_Tz9fFSIqGq9v-1">
          <mxGeometry relative="1" as="geometry">
            <Array as="points">
              <mxPoint x="2570" y="40" />
            </Array>
          </mxGeometry>
        </mxCell>
        <mxCell id="1xR0R-Q_Tz9fFSIqGq9v-48" value="Exibir&lt;div&gt;&lt;font style=&quot;color: rgb(0, 127, 255);&quot;&gt;&quot;Retire o cartão&quot;&lt;/font&gt;&lt;/div&gt;" style="whiteSpace=wrap;html=1;" vertex="1" parent="1">
          <mxGeometry x="2530" y="110" width="120" height="60" as="geometry" />
        </mxCell>
        <mxCell id="1xR0R-Q_Tz9fFSIqGq9v-49" value="[ Sair == verdadeiro ]" style="text;html=1;align=center;verticalAlign=middle;whiteSpace=wrap;rounded=0;" vertex="1" parent="1">
          <mxGeometry x="2320" y="110" width="150" height="30" as="geometry" />
        </mxCell>
        <mxCell id="1xR0R-Q_Tz9fFSIqGq9v-54" value="[ Saque == verdadeiro ]" style="text;html=1;align=center;verticalAlign=middle;whiteSpace=wrap;rounded=0;" vertex="1" parent="1">
          <mxGeometry x="2360" y="230" width="150" height="30" as="geometry" />
        </mxCell>
        <mxCell id="1xR0R-Q_Tz9fFSIqGq9v-60" value="" style="edgeStyle=orthogonalEdgeStyle;rounded=0;orthogonalLoop=1;jettySize=auto;html=1;" edge="1" parent="1" source="1xR0R-Q_Tz9fFSIqGq9v-56" target="1xR0R-Q_Tz9fFSIqGq9v-59">
          <mxGeometry relative="1" as="geometry" />
        </mxCell>
        <mxCell id="1xR0R-Q_Tz9fFSIqGq9v-56" value="Calcular saques por mês&lt;div&gt;&lt;font style=&quot;color: rgb(0, 127, 255);&quot;&gt;qtdSaque&lt;/font&gt;&lt;/div&gt;" style="rounded=0;whiteSpace=wrap;html=1;" vertex="1" parent="1">
          <mxGeometry x="2730" y="230" width="120" height="60" as="geometry" />
        </mxCell>
        <mxCell id="1xR0R-Q_Tz9fFSIqGq9v-95" style="edgeStyle=orthogonalEdgeStyle;rounded=0;orthogonalLoop=1;jettySize=auto;html=1;" edge="1" parent="1" source="1xR0R-Q_Tz9fFSIqGq9v-59" target="1xR0R-Q_Tz9fFSIqGq9v-86">
          <mxGeometry relative="1" as="geometry" />
        </mxCell>
        <mxCell id="1xR0R-Q_Tz9fFSIqGq9v-59" value="&lt;font style=&quot;color: rgb(0, 127, 255);&quot;&gt;qtdSaque = qtdSaque + 1&lt;/font&gt;" style="whiteSpace=wrap;html=1;rounded=0;" vertex="1" parent="1">
          <mxGeometry x="2895" y="230" width="150" height="60" as="geometry" />
        </mxCell>
        <mxCell id="1xR0R-Q_Tz9fFSIqGq9v-112" style="edgeStyle=orthogonalEdgeStyle;rounded=0;orthogonalLoop=1;jettySize=auto;html=1;" edge="1" parent="1" source="1xR0R-Q_Tz9fFSIqGq9v-86" target="1xR0R-Q_Tz9fFSIqGq9v-90">
          <mxGeometry relative="1" as="geometry">
            <Array as="points">
              <mxPoint x="3130" y="380" />
            </Array>
          </mxGeometry>
        </mxCell>
        <mxCell id="1xR0R-Q_Tz9fFSIqGq9v-113" style="edgeStyle=orthogonalEdgeStyle;rounded=0;orthogonalLoop=1;jettySize=auto;html=1;" edge="1" parent="1" source="1xR0R-Q_Tz9fFSIqGq9v-86" target="1xR0R-Q_Tz9fFSIqGq9v-88">
          <mxGeometry relative="1" as="geometry">
            <Array as="points">
              <mxPoint x="3130" y="170" />
            </Array>
          </mxGeometry>
        </mxCell>
        <mxCell id="1xR0R-Q_Tz9fFSIqGq9v-86" value="" style="rhombus;whiteSpace=wrap;html=1;" vertex="1" parent="1">
          <mxGeometry x="3090" y="220" width="80" height="80" as="geometry" />
        </mxCell>
        <mxCell id="1xR0R-Q_Tz9fFSIqGq9v-100" value="" style="edgeStyle=orthogonalEdgeStyle;rounded=0;orthogonalLoop=1;jettySize=auto;html=1;" edge="1" parent="1" source="1xR0R-Q_Tz9fFSIqGq9v-88" target="1xR0R-Q_Tz9fFSIqGq9v-99">
          <mxGeometry relative="1" as="geometry" />
        </mxCell>
        <mxCell id="1xR0R-Q_Tz9fFSIqGq9v-88" value="Verificar saldo em conta" style="whiteSpace=wrap;html=1;" vertex="1" parent="1">
          <mxGeometry x="3280" y="137.5" width="120" height="60" as="geometry" />
        </mxCell>
        <mxCell id="1xR0R-Q_Tz9fFSIqGq9v-97" value="" style="edgeStyle=orthogonalEdgeStyle;rounded=0;orthogonalLoop=1;jettySize=auto;html=1;" edge="1" parent="1" source="1xR0R-Q_Tz9fFSIqGq9v-90" target="1xR0R-Q_Tz9fFSIqGq9v-96">
          <mxGeometry relative="1" as="geometry" />
        </mxCell>
        <mxCell id="1xR0R-Q_Tz9fFSIqGq9v-90" value="Realizar saque" style="whiteSpace=wrap;html=1;" vertex="1" parent="1">
          <mxGeometry x="3290" y="350" width="120" height="60" as="geometry" />
        </mxCell>
        <mxCell id="1xR0R-Q_Tz9fFSIqGq9v-91" value="[ qtdSaque &amp;lt;= 3 ]" style="text;html=1;align=center;verticalAlign=middle;whiteSpace=wrap;rounded=0;" vertex="1" parent="1">
          <mxGeometry x="3110" y="350" width="150" height="30" as="geometry" />
        </mxCell>
        <mxCell id="1xR0R-Q_Tz9fFSIqGq9v-115" style="edgeStyle=orthogonalEdgeStyle;rounded=0;orthogonalLoop=1;jettySize=auto;html=1;" edge="1" parent="1" source="1xR0R-Q_Tz9fFSIqGq9v-96" target="1xR0R-Q_Tz9fFSIqGq9v-35">
          <mxGeometry relative="1" as="geometry">
            <Array as="points">
              <mxPoint x="3530" y="450" />
              <mxPoint x="2155" y="450" />
            </Array>
          </mxGeometry>
        </mxCell>
        <mxCell id="1xR0R-Q_Tz9fFSIqGq9v-96" value="Atualizar saldo em conta" style="whiteSpace=wrap;html=1;" vertex="1" parent="1">
          <mxGeometry x="3470" y="350" width="120" height="60" as="geometry" />
        </mxCell>
        <mxCell id="1xR0R-Q_Tz9fFSIqGq9v-107" style="edgeStyle=orthogonalEdgeStyle;rounded=0;orthogonalLoop=1;jettySize=auto;html=1;" edge="1" parent="1" source="1xR0R-Q_Tz9fFSIqGq9v-99" target="1xR0R-Q_Tz9fFSIqGq9v-101">
          <mxGeometry relative="1" as="geometry">
            <Array as="points">
              <mxPoint x="3500" y="280" />
            </Array>
          </mxGeometry>
        </mxCell>
        <mxCell id="1xR0R-Q_Tz9fFSIqGq9v-118" style="edgeStyle=orthogonalEdgeStyle;rounded=0;orthogonalLoop=1;jettySize=auto;html=1;" edge="1" parent="1" source="1xR0R-Q_Tz9fFSIqGq9v-99" target="1xR0R-Q_Tz9fFSIqGq9v-116">
          <mxGeometry relative="1" as="geometry">
            <Array as="points">
              <mxPoint x="3500" y="80" />
            </Array>
          </mxGeometry>
        </mxCell>
        <mxCell id="1xR0R-Q_Tz9fFSIqGq9v-99" value="" style="rhombus;whiteSpace=wrap;html=1;" vertex="1" parent="1">
          <mxGeometry x="3460" y="127.5" width="80" height="80" as="geometry" />
        </mxCell>
        <mxCell id="1xR0R-Q_Tz9fFSIqGq9v-114" style="edgeStyle=orthogonalEdgeStyle;rounded=0;orthogonalLoop=1;jettySize=auto;html=1;" edge="1" parent="1" source="1xR0R-Q_Tz9fFSIqGq9v-101" target="1xR0R-Q_Tz9fFSIqGq9v-90">
          <mxGeometry relative="1" as="geometry">
            <Array as="points">
              <mxPoint x="3760" y="320" />
              <mxPoint x="3350" y="320" />
            </Array>
          </mxGeometry>
        </mxCell>
        <mxCell id="1xR0R-Q_Tz9fFSIqGq9v-101" value="Descontar 2 reais do saldo em conta" style="whiteSpace=wrap;html=1;" vertex="1" parent="1">
          <mxGeometry x="3700" y="250" width="120" height="60" as="geometry" />
        </mxCell>
        <mxCell id="1xR0R-Q_Tz9fFSIqGq9v-108" value="[ saldo + qtdSaque &amp;gt; 2 reais ]" style="text;html=1;align=center;verticalAlign=middle;whiteSpace=wrap;rounded=0;" vertex="1" parent="1">
          <mxGeometry x="3510" y="250" width="160" height="30" as="geometry" />
        </mxCell>
        <mxCell id="1xR0R-Q_Tz9fFSIqGq9v-98" value="[ qtdSaque &amp;gt; 3 ]" style="text;html=1;align=center;verticalAlign=middle;whiteSpace=wrap;rounded=0;" vertex="1" parent="1">
          <mxGeometry x="3100" y="140" width="150" height="30" as="geometry" />
        </mxCell>
        <mxCell id="1xR0R-Q_Tz9fFSIqGq9v-119" style="edgeStyle=orthogonalEdgeStyle;rounded=0;orthogonalLoop=1;jettySize=auto;html=1;" edge="1" parent="1" source="1xR0R-Q_Tz9fFSIqGq9v-116" target="1xR0R-Q_Tz9fFSIqGq9v-35">
          <mxGeometry relative="1" as="geometry">
            <Array as="points">
              <mxPoint x="3870" y="80" />
              <mxPoint x="3870" y="470" />
              <mxPoint x="2155" y="470" />
            </Array>
          </mxGeometry>
        </mxCell>
        <mxCell id="1xR0R-Q_Tz9fFSIqGq9v-116" value="Exibir&lt;div&gt;&lt;font style=&quot;color: rgb(0, 127, 255);&quot;&gt;&quot;Saldo insuficiente&quot;&lt;/font&gt;&lt;/div&gt;" style="whiteSpace=wrap;html=1;" vertex="1" parent="1">
          <mxGeometry x="3722" y="50" width="120" height="60" as="geometry" />
        </mxCell>
        <mxCell id="1xR0R-Q_Tz9fFSIqGq9v-117" value="[ saldo + qtdSaque &amp;lt;= 2 reais ]" style="text;html=1;align=center;verticalAlign=middle;whiteSpace=wrap;rounded=0;" vertex="1" parent="1">
          <mxGeometry x="3500" y="50" width="170" height="30" as="geometry" />
        </mxCell>
      </root>
    </mxGraphModel>
  </diagram>
</mxfile>
